<svg width="119" height="35" viewBox="0 0 119 35" fill="none" xmlns="http://www.w3.org/2000/svg">
<mask id="mask0_3771_11513" style="mask-type:luminance" maskUnits="userSpaceOnUse" x="0" y="0" width="119" height="35">
<path d="M0 9.53674e-05H118.186V34.3975H0V9.53674e-05Z" fill="white"/>
</mask>
<g mask="url(#mask0_3771_11513)">
<path d="M113.809 34.3558H4.3773C1.96979 34.3558 0 32.4211 0 30.0561V4.25814C0 1.89318 1.96979 -0.0415573 4.3773 -0.0415573H113.809C116.216 -0.0415573 118.186 1.89318 118.186 4.25814V30.0561C118.186 32.4211 116.216 34.3558 113.809 34.3558Z" fill="#100F0D"/>
<path d="M113.809 9.53674e-05H4.3773C1.96979 9.53674e-05 0 1.93501 0 4.29979V30.0978C0 32.4627 1.96979 34.3975 4.3773 34.3975H113.809C116.216 34.3975 118.186 32.4627 118.186 30.0978V4.29979C118.186 1.93501 116.216 9.53674e-05 113.809 9.53674e-05ZM113.809 0.688019C115.836 0.688019 117.485 2.30809 117.485 4.29979V30.0978C117.485 32.0895 115.836 33.7096 113.809 33.7096H4.3773C2.3497 33.7096 0.700357 32.0895 0.700357 30.0978V4.29979C0.700357 2.30809 2.3497 0.688019 4.3773 0.688019H113.809Z" fill="#A2A2A1"/>
<path d="M31.5337 20.9103H29.1934V14.3084H31.5531C32.2171 14.3084 32.7888 14.4406 33.268 14.7049C33.7472 14.9671 34.1158 15.3443 34.3737 15.8364C34.6337 16.3285 34.7637 16.9174 34.7637 17.6029C34.7637 18.2906 34.6337 18.8816 34.3737 19.3759C34.1158 19.8701 33.7451 20.2494 33.2616 20.5138C32.7802 20.7781 32.2042 20.9103 31.5337 20.9103ZM30.5892 19.7143H31.4757C31.8883 19.7143 32.2354 19.6413 32.5169 19.4951C32.8006 19.3468 33.0133 19.118 33.1552 18.8085C33.2992 18.4969 33.3712 18.095 33.3712 17.6029C33.3712 17.1151 33.2992 16.7164 33.1552 16.407C33.0133 16.0975 32.8017 15.8697 32.5201 15.7236C32.2386 15.5774 31.8915 15.5044 31.4789 15.5044H30.5892V19.7143ZM35.7977 20.9103V14.3084H40.2462V15.4592H37.1935V17.0323H40.0173V18.1831H37.1935V19.7595H40.2591V20.9103H35.7977ZM44.9373 16.2071C44.9115 15.9471 44.8009 15.7451 44.6053 15.6011C44.4097 15.4571 44.1443 15.3851 43.8091 15.3851C43.5813 15.3851 43.3889 15.4173 43.2321 15.4818C43.0752 15.5441 42.9548 15.6312 42.871 15.7429C42.7893 15.8547 42.7485 15.9814 42.7485 16.1233C42.7442 16.2415 42.7689 16.3446 42.8227 16.4327C42.8785 16.5209 42.9548 16.5971 43.0515 16.6616C43.1482 16.7239 43.26 16.7787 43.3868 16.826C43.5136 16.8712 43.649 16.9098 43.793 16.9421L44.3861 17.0839C44.6741 17.1484 44.9384 17.2343 45.1791 17.3418C45.4198 17.4492 45.6282 17.5814 45.8045 17.7383C45.9807 17.8952 46.1171 18.08 46.2138 18.2927C46.3127 18.5055 46.3632 18.7494 46.3654 19.0245C46.3632 19.4285 46.2601 19.7788 46.0559 20.0754C45.8539 20.3698 45.5616 20.5987 45.1791 20.762C44.7987 20.9232 44.3399 21.0038 43.8026 21.0038C43.2697 21.0038 42.8055 20.9221 42.41 20.7588C42.0168 20.5954 41.7095 20.3537 41.4881 20.0335C41.2689 19.7111 41.1539 19.3125 41.1432 18.8375H42.4939C42.5089 19.0589 42.5723 19.2437 42.684 19.392C42.7979 19.5381 42.9495 19.6488 43.1386 19.724C43.3298 19.7971 43.5458 19.8336 43.7865 19.8336C44.0229 19.8336 44.2281 19.7992 44.4022 19.7305C44.5784 19.6617 44.7149 19.5661 44.8116 19.4436C44.9083 19.3211 44.9567 19.1803 44.9567 19.0213C44.9567 18.873 44.9126 18.7483 44.8245 18.6473C44.7385 18.5463 44.6117 18.4604 44.4441 18.3895C44.2786 18.3185 44.0755 18.2541 43.8349 18.196L43.116 18.0155C42.5594 17.8801 42.1199 17.6684 41.7976 17.3805C41.4752 17.0925 41.3151 16.7046 41.3173 16.2168C41.3151 15.817 41.4215 15.4678 41.6364 15.1691C41.8534 14.8704 42.1511 14.6372 42.5293 14.4696C42.9075 14.302 43.3374 14.2182 43.8187 14.2182C44.3087 14.2182 44.7364 14.302 45.1017 14.4696C45.4692 14.6372 45.755 14.8704 45.9592 15.1691C46.1633 15.4678 46.2686 15.8138 46.2751 16.2071H44.9373ZM53.1292 16.6197H51.7173C51.6915 16.437 51.6388 16.2748 51.5593 16.133C51.4798 15.989 51.3777 15.8665 51.2531 15.7655C51.1284 15.6645 50.9845 15.5871 50.8211 15.5334C50.6599 15.4796 50.4848 15.4528 50.2957 15.4528C49.954 15.4528 49.6563 15.5377 49.4028 15.7074C49.1492 15.8751 48.9525 16.1201 48.8128 16.4424C48.6732 16.7626 48.6033 17.1516 48.6033 17.6093C48.6033 18.08 48.6732 18.4754 48.8128 18.7956C48.9547 19.1158 49.1524 19.3576 49.406 19.5209C49.6596 19.6842 49.9529 19.7659 50.286 19.7659C50.473 19.7659 50.646 19.7412 50.805 19.6918C50.9662 19.6423 51.1091 19.5703 51.2337 19.4758C51.3584 19.3791 51.4615 19.262 51.5432 19.1244C51.627 18.9869 51.685 18.83 51.7173 18.6538L53.1292 18.6602C53.0927 18.9632 53.0013 19.2555 52.8552 19.537C52.7112 19.8164 52.5167 20.0668 52.2717 20.2881C52.0289 20.5073 51.7388 20.6814 51.4014 20.8103C51.0661 20.9371 50.6868 21.0005 50.2635 21.0005C49.6746 21.0005 49.1481 20.8673 48.6839 20.6008C48.2219 20.3343 47.8565 19.9486 47.5879 19.4436C47.3214 18.9385 47.1882 18.3271 47.1882 17.6093C47.1882 16.8894 47.3236 16.2769 47.5943 15.7719C47.8651 15.2669 48.2326 14.8822 48.6968 14.6179C49.161 14.3514 49.6832 14.2182 50.2635 14.2182C50.646 14.2182 51.0006 14.2719 51.3272 14.3793C51.656 14.4868 51.9472 14.6437 52.2008 14.85C52.4544 15.0541 52.6607 15.3045 52.8197 15.6011C52.9809 15.8976 53.0841 16.2372 53.1292 16.6197ZM55.1439 20.9103H53.6482L55.9273 14.3084H57.726L60.0018 20.9103H58.5061L56.8524 15.817H56.8008L55.1439 20.9103ZM55.0504 18.3153H58.5835V19.4049H55.0504V18.3153ZM60.7965 20.9103V14.3084H63.4011C63.8997 14.3084 64.3252 14.3976 64.6776 14.576C65.0322 14.7522 65.3019 15.0026 65.4867 15.3271C65.6737 15.6494 65.7672 16.0287 65.7672 16.465C65.7672 16.9034 65.6726 17.2805 65.4835 17.5965C65.2944 17.9102 65.0204 18.1509 64.6615 18.3185C64.3048 18.4862 63.8728 18.57 63.3656 18.57H61.6217V17.4482H63.14C63.4065 17.4482 63.6278 17.4116 63.804 17.3386C63.9803 17.2655 64.1114 17.1559 64.1973 17.0098C64.2854 16.8636 64.3295 16.682 64.3295 16.465C64.3295 16.2458 64.2854 16.061 64.1973 15.9105C64.1114 15.7601 63.9792 15.6462 63.8008 15.5688C63.6246 15.4893 63.4022 15.4496 63.1335 15.4496H62.1923V20.9103H60.7965ZM64.3617 17.9059L66.0025 20.9103H64.4616L62.8563 17.9059H64.3617ZM71.1312 16.4424C71.0861 16.2855 71.0227 16.1469 70.941 16.0266C70.8593 15.9041 70.7594 15.8009 70.6412 15.7171C70.5252 15.6312 70.3919 15.5656 70.2415 15.5205C70.0932 15.4753 69.9288 15.4528 69.7483 15.4528C69.4109 15.4528 69.1143 15.5366 68.8586 15.7042C68.605 15.8718 68.4073 16.1158 68.2655 16.436C68.1236 16.754 68.0527 17.143 68.0527 17.6029C68.0527 18.0628 68.1225 18.4539 68.2622 18.7763C68.4019 19.0986 68.5996 19.3447 68.8554 19.5145C69.1111 19.6821 69.413 19.7659 69.7612 19.7659C70.0771 19.7659 70.3468 19.71 70.5703 19.5983C70.796 19.4844 70.9679 19.3243 71.0861 19.118C71.2064 18.9117 71.2666 18.6678 71.2666 18.3862L71.5503 18.4281H69.8482V17.3773H72.6108V18.2089C72.6108 18.7892 72.4883 19.2878 72.2433 19.7047C71.9983 20.1194 71.6609 20.4396 71.2311 20.6653C70.8013 20.8888 70.3092 21.0005 69.7547 21.0005C69.1358 21.0005 68.5921 20.8641 68.1236 20.5911C67.6551 20.3161 67.2898 19.926 67.0276 19.421C66.7676 18.9138 66.6376 18.3121 66.6376 17.6158C66.6376 17.0807 66.7149 16.6036 66.8696 16.1845C67.0265 15.7633 67.2457 15.4066 67.5273 15.1143C67.8088 14.822 68.1365 14.5996 68.5104 14.447C68.8844 14.2944 69.2895 14.2182 69.7257 14.2182C70.0997 14.2182 70.4478 14.273 70.7702 14.3826C71.0925 14.49 71.3783 14.6426 71.6276 14.8403C71.8791 15.038 72.0843 15.2733 72.2433 15.5463C72.4024 15.817 72.5044 16.1158 72.5496 16.4424H71.1312ZM74.5933 20.9103H73.0976L75.3766 14.3084H77.1754L79.4512 20.9103H77.9555L76.3018 15.817H76.2502L74.5933 20.9103ZM74.4998 18.3153H78.0329V19.4049H74.4998V18.3153ZM80.2458 20.9103V14.3084H82.8505C83.349 14.3084 83.7746 14.3976 84.127 14.576C84.4816 14.7522 84.7513 15.0026 84.9361 15.3271C85.1231 15.6494 85.2166 16.0287 85.2166 16.465C85.2166 16.9034 85.122 17.2805 84.9329 17.5965C84.7438 17.9102 84.4698 18.1509 84.1109 18.3185C83.7541 18.4862 83.3222 18.57 82.815 18.57H81.0711V17.4482H82.5894C82.8558 17.4482 83.0772 17.4116 83.2534 17.3386C83.4296 17.2655 83.5607 17.1559 83.6467 17.0098C83.7348 16.8636 83.7789 16.682 83.7789 16.465C83.7789 16.2458 83.7348 16.061 83.6467 15.9105C83.5607 15.7601 83.4286 15.6462 83.2502 15.5688C83.074 15.4893 82.8515 15.4496 82.5829 15.4496H81.6416V20.9103H80.2458ZM83.8111 17.9059L85.4519 20.9103H83.911L82.3057 17.9059H83.8111ZM89.4419 20.9103H87.9461L90.2252 14.3084H92.0239L94.2998 20.9103H92.804L91.1503 15.817H91.0988L89.4419 20.9103ZM89.3484 18.3153H92.8814V19.4049H89.3484V18.3153ZM95.0944 20.9103V14.3084H97.699C98.1997 14.3084 98.6263 14.404 98.9788 14.5953C99.3312 14.7844 99.5998 15.0477 99.7847 15.3851C99.9716 15.7203 100.065 16.1072 100.065 16.5456C100.065 16.984 99.9706 17.3708 99.7814 17.7061C99.5923 18.0413 99.3183 18.3024 98.9594 18.4894C98.6027 18.6763 98.1707 18.7698 97.6636 18.7698H96.0034V17.6513H97.4379C97.7065 17.6513 97.9279 17.605 98.102 17.5126C98.2782 17.4181 98.4093 17.2881 98.4952 17.1226C98.5834 16.955 98.6274 16.7626 98.6274 16.5456C98.6274 16.3264 98.5834 16.1351 98.4952 15.9718C98.4093 15.8063 98.2782 15.6784 98.102 15.5882C97.9257 15.4958 97.7022 15.4496 97.4315 15.4496H96.4902V20.9103H95.0944ZM100.972 20.9103V14.3084H102.368V17.2193H102.455L104.83 14.3084H106.503L104.053 17.2644L106.532 20.9103H104.863L103.054 18.196L102.368 19.0342V20.9103H100.972Z" fill="white"/>
<mask id="mask1_3771_11513" style="mask-type:alpha" maskUnits="userSpaceOnUse" x="9" y="10" width="14" height="14">
<rect x="9.83838" y="10.5363" width="12.826" height="12.826" fill="#D9D9D9"/>
</mask>
<g mask="url(#mask1_3771_11513)">
<path d="M11.9761 22.2933C11.6821 22.2933 11.4305 22.1887 11.2212 21.9794C11.0119 21.7701 10.9072 21.5184 10.9072 21.2245V12.6738C10.9072 12.3799 11.0119 12.1283 11.2212 11.919C11.4305 11.7096 11.6821 11.605 11.9761 11.605H16.2514L19.4579 14.8115V17.0828H18.3891V15.3459H15.717V12.6738H11.9761V21.2245H17.8547V22.2933H11.9761ZM12.5105 20.6901C12.5461 20.2536 12.6797 19.8528 12.9113 19.4876C13.1429 19.1225 13.4457 18.833 13.8198 18.6192L13.3121 17.7107C13.3121 17.7018 13.3299 17.635 13.3655 17.5103C13.4101 17.4925 13.4524 17.4836 13.4925 17.4836C13.5326 17.4836 13.5615 17.5058 13.5793 17.5504L14.1004 18.4856C14.2785 18.4144 14.4567 18.3587 14.6348 18.3186C14.8129 18.2785 14.9955 18.2585 15.1826 18.2585C15.3696 18.2585 15.5522 18.2785 15.7303 18.3186C15.9085 18.3587 16.0866 18.4144 16.2648 18.4856L16.7858 17.5504L16.9862 17.4969C17.0308 17.5148 17.0575 17.5459 17.0664 17.5905C17.0753 17.635 17.0708 17.6751 17.053 17.7107L16.5453 18.6192C16.9194 18.833 17.2223 19.1225 17.4538 19.4876C17.6854 19.8528 17.819 20.2536 17.8547 20.6901H12.5105ZM13.9801 19.8885C14.0514 19.8885 14.1137 19.8617 14.1672 19.8083C14.2206 19.7549 14.2473 19.6925 14.2473 19.6212C14.2473 19.55 14.2206 19.4876 14.1672 19.4342C14.1137 19.3808 14.0514 19.354 13.9801 19.354C13.9089 19.354 13.8465 19.3808 13.7931 19.4342C13.7396 19.4876 13.7129 19.55 13.7129 19.6212C13.7129 19.6925 13.7396 19.7549 13.7931 19.8083C13.8465 19.8617 13.9089 19.8885 13.9801 19.8885ZM16.385 19.8885C16.4563 19.8885 16.5186 19.8617 16.5721 19.8083C16.6255 19.7549 16.6522 19.6925 16.6522 19.6212C16.6522 19.55 16.6255 19.4876 16.5721 19.4342C16.5186 19.3808 16.4563 19.354 16.385 19.354C16.3138 19.354 16.2514 19.3808 16.198 19.4342C16.1445 19.4876 16.1178 19.55 16.1178 19.6212C16.1178 19.6925 16.1445 19.7549 16.198 19.8083C16.2514 19.8617 16.3138 19.8885 16.385 19.8885ZM20.5267 22.2933L18.3891 20.1557L19.1373 19.3941L19.9923 20.2358V18.018H21.0612V20.2358L21.9162 19.3941L22.6644 20.1557L20.5267 22.2933Z" fill="#6CFF69"/>
</g>
</g>
</svg>
