<svg width="116" height="35" viewBox="0 0 116 35" fill="none" xmlns="http://www.w3.org/2000/svg">
<path d="M111.828 34.3567H4.06182C1.82262 34.3567 0 32.5289 0 30.2914V4.05924C0 1.8209 1.82262 0 4.06182 0H111.828C114.067 0 115.954 1.8209 115.954 4.05924V30.2914C115.954 32.5289 114.067 34.3567 111.828 34.3567Z" fill="#A6A6A6"/>
<path d="M115.216 30.2913C115.216 32.1087 113.744 33.5809 111.923 33.5809H4.15578C2.33573 33.5809 0.858398 32.1087 0.858398 30.2913V4.05737C0.858398 2.24076 2.33573 0.763428 4.15578 0.763428H111.922C113.744 0.763428 115.215 2.24076 115.215 4.05737L115.216 30.2913Z" fill="black"/>
<path d="M25.8766 16.9916C25.8517 14.2233 28.1433 12.8766 28.248 12.8139C26.9502 10.9217 24.9386 10.6631 24.2318 10.6425C22.5423 10.4647 20.9035 11.6535 20.0428 11.6535C19.165 11.6535 17.8397 10.6597 16.4113 10.6889C14.5732 10.7172 12.8537 11.7814 11.9106 13.434C9.9643 16.8035 11.4159 21.7552 13.2806 24.4788C14.2134 25.8127 15.3033 27.3021 16.73 27.2497C18.1257 27.1921 18.6471 26.3598 20.3314 26.3598C22.0003 26.3598 22.4899 27.2497 23.9449 27.2162C25.4428 27.1921 26.3859 25.8763 27.2861 24.5303C28.364 23.0015 28.7969 21.4958 28.8141 21.4185C28.7789 21.4065 25.9049 20.3096 25.8766 16.9916Z" fill="white"/>
<path d="M23.1281 8.85122C23.8788 7.91243 24.3925 6.63522 24.2499 5.33911C23.1633 5.38721 21.8045 6.09066 21.0221 7.00885C20.3298 7.81795 19.7114 9.14411 19.8711 10.3913C21.0916 10.4823 22.3448 9.77542 23.1281 8.85122Z" fill="white"/>
<path d="M46.0762 27.0588H44.1256L43.0571 23.7013H39.3431L38.3253 27.0588H36.4263L40.1059 15.6283H42.3786L46.0762 27.0588ZM42.735 22.2926L41.7687 19.3079C41.6665 19.003 41.475 18.2849 41.1924 17.1546H41.158C41.0455 17.6407 40.8643 18.3588 40.6152 19.3079L39.6661 22.2926H42.735Z" fill="white"/>
<path d="M55.5398 22.836C55.5398 24.2378 55.161 25.3458 54.4034 26.1592C53.7249 26.8832 52.8823 27.2449 51.8765 27.2449C50.7908 27.2449 50.0109 26.8549 49.536 26.075H49.5016V30.4168H47.6704V21.5296C47.6704 20.6484 47.6472 19.7439 47.6025 18.8163H49.213L49.3152 20.1227H49.3496C49.9603 19.1384 50.887 18.6471 52.1307 18.6471C53.103 18.6471 53.9147 19.031 54.5641 19.7998C55.2151 20.5693 55.5398 21.5812 55.5398 22.836ZM53.6742 22.903C53.6742 22.1008 53.4938 21.4394 53.1314 20.9189C52.7354 20.3761 52.2038 20.1047 51.5372 20.1047C51.0854 20.1047 50.6749 20.2558 50.3081 20.5539C49.9405 20.8545 49.7 21.247 49.5875 21.7332C49.5308 21.9599 49.5025 22.1455 49.5025 22.2915V23.6657C49.5025 24.2653 49.6863 24.7712 50.0539 25.1843C50.4215 25.5974 50.8991 25.8036 51.4866 25.8036C52.1763 25.8036 52.7131 25.5373 53.097 25.0065C53.4818 24.4748 53.6742 23.774 53.6742 22.903Z" fill="white"/>
<path d="M65.0194 22.836C65.0194 24.2378 64.6406 25.3458 63.8822 26.1592C63.2045 26.8832 62.3619 27.2449 61.3561 27.2449C60.2704 27.2449 59.4905 26.8549 59.0164 26.075H58.9821V30.4168H57.1509V21.5296C57.1509 20.6484 57.1277 19.7439 57.083 18.8163H58.6935L58.7957 20.1227H58.83C59.4399 19.1384 60.3666 18.6471 61.6112 18.6471C62.5827 18.6471 63.3943 19.031 64.0454 19.7998C64.6939 20.5693 65.0194 21.5812 65.0194 22.836ZM63.1538 22.903C63.1538 22.1008 62.9726 21.4394 62.6101 20.9189C62.2142 20.3761 61.6842 20.1047 61.0168 20.1047C60.5642 20.1047 60.1545 20.2558 59.7869 20.5539C59.4193 20.8545 59.1796 21.247 59.0671 21.7332C59.0113 21.9599 58.9821 22.1455 58.9821 22.2915V23.6657C58.9821 24.2653 59.1659 24.7712 59.5318 25.1843C59.8994 25.5966 60.377 25.8036 60.9662 25.8036C61.6559 25.8036 62.1927 25.5373 62.5766 25.0065C62.9614 24.4748 63.1538 23.774 63.1538 22.903Z" fill="white"/>
<path d="M75.6186 23.8537C75.6186 24.8259 75.281 25.617 74.6033 26.2277C73.8586 26.8951 72.8219 27.2283 71.4897 27.2283C70.2598 27.2283 69.2737 26.9913 68.5273 26.5163L68.9517 24.99C69.7556 25.4761 70.6377 25.7201 71.5988 25.7201C72.2885 25.7201 72.8254 25.5638 73.211 25.2528C73.595 24.9419 73.7865 24.5245 73.7865 24.004C73.7865 23.5402 73.6284 23.1493 73.3115 22.8324C72.9963 22.5155 72.4698 22.2209 71.7345 21.9486C69.7333 21.2022 68.7335 20.1088 68.7335 18.671C68.7335 17.7313 69.0839 16.9609 69.7857 16.3613C70.4848 15.7609 71.4176 15.4612 72.584 15.4612C73.6242 15.4612 74.4882 15.6424 75.1779 16.004L74.7201 17.4968C74.0759 17.1464 73.3476 16.9712 72.5325 16.9712C71.8883 16.9712 71.385 17.1301 71.0242 17.4461C70.7193 17.7287 70.5664 18.0731 70.5664 18.4811C70.5664 18.9329 70.7408 19.3066 71.0912 19.6003C71.3961 19.8717 71.9501 20.1655 72.7541 20.4824C73.7375 20.8784 74.4599 21.3413 74.9246 21.8721C75.3875 22.4012 75.6186 23.0635 75.6186 23.8537Z" fill="white"/>
<path d="M81.6728 20.1912H79.6544V24.1929C79.6544 25.2107 80.01 25.7192 80.7229 25.7192C81.0501 25.7192 81.3215 25.6909 81.5363 25.6342L81.5869 27.0248C81.2262 27.1596 80.7512 27.2275 80.1629 27.2275C79.4396 27.2275 78.8745 27.0067 78.4665 26.5661C78.0602 26.1246 77.8558 25.3843 77.8558 24.3441V20.1895H76.6533V18.8153H77.8558V17.3061L79.6544 16.7633V18.8153H81.6728V20.1912Z" fill="white"/>
<path d="M90.78 22.8699C90.78 24.1368 90.4175 25.1769 89.6943 25.9903C88.9359 26.8278 87.9292 27.2452 86.6744 27.2452C85.465 27.2452 84.5022 26.8441 83.7841 26.0419C83.0661 25.2396 82.707 24.227 82.707 23.0065C82.707 21.7292 83.0764 20.6831 83.8176 19.8697C84.5571 19.0554 85.5552 18.6483 86.8101 18.6483C88.0194 18.6483 88.9926 19.0494 89.727 19.8525C90.4295 20.6316 90.78 21.6373 90.78 22.8699ZM88.8801 22.9292C88.8801 22.169 88.7177 21.5171 88.3888 20.9734C88.0048 20.3155 87.456 19.9874 86.7448 19.9874C86.0087 19.9874 85.4496 20.3163 85.0656 20.9734C84.7367 21.518 84.5743 22.1802 84.5743 22.9635C84.5743 23.7237 84.7367 24.3756 85.0656 24.9184C85.4616 25.5763 86.0147 25.9044 86.7285 25.9044C87.4276 25.9044 87.9765 25.5695 88.3724 24.9012C88.71 24.3472 88.8801 23.6884 88.8801 22.9292Z" fill="white"/>
<path d="M96.7319 20.4268C96.5507 20.3933 96.3575 20.3761 96.1547 20.3761C95.5106 20.3761 95.0124 20.6192 94.662 21.1062C94.357 21.5356 94.2042 22.0785 94.2042 22.7338V27.0585H92.3738L92.391 21.4119C92.391 20.462 92.3678 19.5971 92.3223 18.8172H93.9173L93.9843 20.3941H94.0349C94.2282 19.8522 94.5331 19.4158 94.9505 19.0886C95.3585 18.794 95.7992 18.6471 96.2741 18.6471C96.4433 18.6471 96.5962 18.6591 96.7319 18.6806V20.4268Z" fill="white"/>
<path d="M104.922 22.5478C104.922 22.8759 104.9 23.1524 104.855 23.3783H99.3609C99.3824 24.1926 99.6478 24.8153 100.158 25.2448C100.621 25.6287 101.22 25.8211 101.955 25.8211C102.768 25.8211 103.51 25.6914 104.178 25.4311L104.465 26.7023C103.685 27.0425 102.764 27.2117 101.701 27.2117C100.423 27.2117 99.4202 26.8355 98.6901 26.0839C97.9617 25.3324 97.5967 24.3231 97.5967 23.0571C97.5967 21.8142 97.936 20.7792 98.6154 19.9538C99.3265 19.0726 100.288 18.632 101.497 18.632C102.685 18.632 103.584 19.0726 104.195 19.9538C104.678 20.6538 104.922 21.5196 104.922 22.5478ZM103.175 22.0728C103.187 21.5299 103.068 21.061 102.82 20.665C102.503 20.1557 102.016 19.9014 101.36 19.9014C100.762 19.9014 100.275 20.1497 99.9029 20.6478C99.598 21.0438 99.4167 21.5188 99.3609 22.0719L103.175 22.0728Z" fill="white"/>
<path d="M37.6847 11.0121H36.5281V7.26409H37.7359C38.0995 7.26409 38.4106 7.33912 38.6693 7.48919C38.9279 7.63803 39.1262 7.85215 39.264 8.13154C39.4019 8.40971 39.4708 8.74279 39.4708 9.13077C39.4708 9.52118 39.4013 9.85731 39.2622 10.1391C39.1231 10.4197 38.9206 10.6357 38.6546 10.787C38.3887 10.9371 38.0653 11.0121 37.6847 11.0121ZM36.9819 10.6095H37.6554C37.9653 10.6095 38.2221 10.5497 38.4259 10.4301C38.6296 10.3106 38.7815 10.1404 38.8816 9.91953C38.9816 9.6987 39.0316 9.43578 39.0316 9.13077C39.0316 8.82819 38.9822 8.56771 38.8834 8.34932C38.7846 8.12971 38.6369 7.96135 38.4405 7.84422C38.2441 7.72588 37.9995 7.6667 37.7066 7.6667H36.9819V10.6095ZM43.2112 7.26409V11.0121H42.7574V7.26409H43.2112ZM48.6961 8.20109C48.6742 8.01564 48.5851 7.87167 48.4289 7.76919C48.2728 7.6667 48.0812 7.61546 47.8543 7.61546C47.6884 7.61546 47.5432 7.6423 47.4187 7.69598C47.2955 7.74967 47.1991 7.82348 47.1296 7.91742C47.0613 8.01137 47.0271 8.11812 47.0271 8.23769C47.0271 8.33773 47.0509 8.42375 47.0985 8.49573C47.1473 8.56649 47.2095 8.62566 47.2851 8.67325C47.3608 8.71961 47.4401 8.75804 47.5231 8.78854C47.606 8.81782 47.6823 8.84161 47.7518 8.85991L48.1325 8.9624C48.2301 8.98802 48.3387 9.0234 48.4582 9.06854C48.579 9.11368 48.6943 9.1753 48.8041 9.25338C48.9151 9.33024 49.0066 9.42907 49.0786 9.54985C49.1506 9.67064 49.1866 9.81887 49.1866 9.99456C49.1866 10.1971 49.1335 10.3801 49.0274 10.5436C48.9225 10.7071 48.7687 10.837 48.5662 10.9334C48.3649 11.0298 48.1203 11.078 47.8323 11.078C47.5639 11.078 47.3315 11.0347 47.1351 10.948C46.9399 10.8614 46.7861 10.7406 46.6739 10.5857C46.5629 10.4307 46.5 10.2508 46.4854 10.0458H46.9539C46.9661 10.1873 47.0137 10.3045 47.0966 10.3972C47.1808 10.4887 47.287 10.557 47.4151 10.6021C47.5444 10.6461 47.6835 10.668 47.8323 10.668C48.0056 10.668 48.1611 10.64 48.299 10.5838C48.4369 10.5265 48.5461 10.4472 48.6266 10.3459C48.7071 10.2435 48.7474 10.1239 48.7474 9.98724C48.7474 9.8628 48.7126 9.76153 48.6431 9.68345C48.5735 9.60537 48.482 9.54192 48.3686 9.49312C48.2551 9.44432 48.1325 9.40162 48.0007 9.36502L47.5395 9.23325C47.2467 9.14907 47.0149 9.02889 46.8441 8.87272C46.6733 8.71656 46.5879 8.5122 46.5879 8.25965C46.5879 8.0498 46.6446 7.86679 46.7581 7.71063C46.8728 7.55324 47.0265 7.43123 47.2193 7.34461C47.4133 7.25677 47.6298 7.21284 47.8689 7.21284C48.1105 7.21284 48.3252 7.25616 48.5131 7.34278C48.701 7.42818 48.8499 7.54531 48.9597 7.69415C49.0707 7.843 49.1293 8.01198 49.1354 8.20109H48.6961ZM52.458 11.0121V7.26409H53.7244C54.0185 7.26409 54.2588 7.31716 54.4455 7.4233C54.6334 7.52823 54.7725 7.67036 54.8627 7.84971C54.953 8.02906 54.9982 8.22915 54.9982 8.44998C54.9982 8.67081 54.953 8.8715 54.8627 9.05207C54.7737 9.23264 54.6358 9.37661 54.4491 9.48397C54.2625 9.59011 54.0233 9.64319 53.7318 9.64319H52.824V9.24057H53.7171C53.9184 9.24057 54.0801 9.2058 54.2021 9.13626C54.3241 9.06671 54.4125 8.97277 54.4674 8.85442C54.5236 8.73486 54.5516 8.60004 54.5516 8.44998C54.5516 8.29991 54.5236 8.1657 54.4674 8.04736C54.4125 7.92901 54.3235 7.83629 54.2003 7.76919C54.077 7.70086 53.9135 7.6667 53.7098 7.6667H52.9119V11.0121H52.458ZM61.4169 9.13809C61.4169 9.53338 61.3455 9.875 61.2028 10.1629C61.06 10.4509 60.8642 10.6729 60.6153 10.8291C60.3664 10.9852 60.0821 11.0633 59.7625 11.0633C59.4428 11.0633 59.1586 10.9852 58.9097 10.8291C58.6608 10.6729 58.465 10.4509 58.3222 10.1629C58.1795 9.875 58.1081 9.53338 58.1081 9.13809C58.1081 8.74279 58.1795 8.40117 58.3222 8.11324C58.465 7.82531 58.6608 7.60326 58.9097 7.44709C59.1586 7.29093 59.4428 7.21284 59.7625 7.21284C60.0821 7.21284 60.3664 7.29093 60.6153 7.44709C60.8642 7.60326 61.06 7.82531 61.2028 8.11324C61.3455 8.40117 61.4169 8.74279 61.4169 9.13809ZM60.9777 9.13809C60.9777 8.81355 60.9234 8.53965 60.8148 8.31638C60.7074 8.09311 60.5616 7.92413 60.3774 7.80945C60.1944 7.69476 59.9894 7.63742 59.7625 7.63742C59.5356 7.63742 59.33 7.69476 59.1457 7.80945C58.9627 7.92413 58.8169 8.09311 58.7084 8.31638C58.601 8.53965 58.5473 8.81355 58.5473 9.13809C58.5473 9.46262 58.601 9.73652 58.7084 9.95979C58.8169 10.1831 58.9627 10.352 59.1457 10.4667C59.33 10.5814 59.5356 10.6387 59.7625 10.6387C59.9894 10.6387 60.1944 10.5814 60.3774 10.4667C60.5616 10.352 60.7074 10.1831 60.8148 9.95979C60.9234 9.73652 60.9777 9.46262 60.9777 9.13809ZM67.6773 7.26409V11.0121H67.2381L65.1957 8.06932H65.1591V11.0121H64.7052V7.26409H65.1444L67.1941 10.2142H67.2307V7.26409H67.6773ZM71.5645 7.26409V11.0121H71.1107V7.26409H71.5645ZM74.9997 11.0121V7.26409H76.3101C76.5712 7.26409 76.7865 7.30923 76.9561 7.39951C77.1257 7.48858 77.252 7.60875 77.3349 7.76004C77.4179 7.9101 77.4594 8.07664 77.4594 8.25965C77.4594 8.4207 77.4307 8.55368 77.3734 8.65861C77.3172 8.76353 77.2428 8.84649 77.1501 8.9075C77.0586 8.9685 76.9591 9.01364 76.8518 9.04292V9.07952C76.9665 9.08684 77.0818 9.12711 77.1977 9.20031C77.3136 9.27351 77.4106 9.37844 77.4886 9.51508C77.5667 9.65173 77.6058 9.81887 77.6058 10.0165C77.6058 10.2044 77.5631 10.3734 77.4777 10.5235C77.3923 10.6735 77.2574 10.7925 77.0732 10.8803C76.889 10.9682 76.6493 11.0121 76.354 11.0121H74.9997ZM75.4536 10.6095H76.354C76.6505 10.6095 76.8609 10.5521 76.9854 10.4374C77.111 10.3215 77.1739 10.1812 77.1739 10.0165C77.1739 9.88964 77.1415 9.77251 77.0769 9.66515C77.0122 9.55656 76.9201 9.46994 76.8005 9.40528C76.681 9.33939 76.5394 9.30645 76.376 9.30645H75.4536V10.6095ZM75.4536 8.91116H76.2954C76.4321 8.91116 76.5553 8.88432 76.6651 8.83063C76.7761 8.77695 76.864 8.70131 76.9286 8.6037C76.9945 8.5061 77.0275 8.39141 77.0275 8.25965C77.0275 8.09494 76.9701 7.95525 76.8554 7.84056C76.7408 7.72466 76.559 7.6667 76.3101 7.6667H75.4536V8.91116ZM80.8767 11.0121V7.26409H81.3306V10.6095H83.0728V11.0121H80.8767ZM86.3008 11.0121V7.26409H88.5628V7.6667H86.7547V8.93312H88.4457V9.33573H86.7547V10.6095H88.5921V11.0121H86.3008ZM95.8807 11.0121V7.26409H98.1426V7.6667H96.3345V8.93312H98.0255V9.33573H96.3345V10.6095H98.1719V11.0121H95.8807ZM104.458 7.26409V11.0121H104.019L101.976 8.06932H101.94V11.0121H101.486V7.26409H101.925L103.975 10.2142H104.011V7.26409H104.458Z" fill="white"/>
</svg>
