<svg width="119" height="35" viewBox="0 0 119 35" fill="none" xmlns="http://www.w3.org/2000/svg">
<mask id="mask0_3771_11502" style="mask-type:luminance" maskUnits="userSpaceOnUse" x="0" y="0" width="119" height="35">
<path d="M0 3.8147e-05H118.046V34.3567H0V3.8147e-05Z" fill="white"/>
</mask>
<g mask="url(#mask0_3771_11502)">
<path d="M113.674 34.3568H4.37212C1.96746 34.3568 0 32.4244 0 30.0622V4.29474C0 1.93258 1.96746 0.0001297 4.37212 0.0001297H113.674C116.078 0.0001297 118.046 1.93258 118.046 4.29474V30.0622C118.046 32.4244 116.078 34.3568 113.674 34.3568Z" fill="#100F0D"/>
<path d="M113.674 0.000160217H4.37212C1.96746 0.000160217 0 1.93279 0 4.29477V30.0622C0 32.4244 1.96746 34.3568 4.37212 34.3568H113.674C116.078 34.3568 118.046 32.4244 118.046 30.0622V4.29477C118.046 1.93279 116.078 0.000160217 113.674 0.000160217ZM113.674 0.687267C115.699 0.687267 117.346 2.30542 117.346 4.29477V30.0622C117.346 32.0516 115.699 33.6698 113.674 33.6698H4.37212C2.34692 33.6698 0.699528 32.0516 0.699528 30.0622V4.29477C0.699528 2.30542 2.34692 0.687267 4.37212 0.687267H113.674Z" fill="#A2A2A1"/>
<path d="M93.5068 25.7671H95.1385V15.0299H93.5068V25.7671ZM108.203 18.8975L106.333 23.5529H106.277L104.335 18.8975H102.578L105.489 25.4039L103.829 29.0234H105.531L110.018 18.8975H108.203ZM98.9499 24.5475C98.4149 24.5475 97.6699 24.2847 97.6699 23.6355C97.6699 22.8065 98.5976 22.4895 99.3994 22.4895C100.116 22.4895 100.454 22.6416 100.89 22.8485C100.764 23.8433 99.8917 24.5475 98.9499 24.5475ZM99.1467 18.6631C97.9654 18.6631 96.7412 19.1741 96.2349 20.3062L97.6838 20.9007C97.9935 20.3062 98.5696 20.1129 99.1747 20.1129C100.019 20.1129 100.876 20.6102 100.89 21.4941V21.6048C100.595 21.4391 99.9617 21.1909 99.1887 21.1909C97.6278 21.1909 96.0382 22.0335 96.0382 23.6078C96.0382 25.0449 97.3183 25.97 98.7524 25.97C99.8497 25.97 100.454 25.4872 100.834 24.9203H100.89V25.7492H102.465V21.6325C102.465 19.7264 101.017 18.6631 99.1467 18.6631ZM89.0629 20.2049H86.7422V16.5235H89.0629C90.2829 16.5235 90.9752 17.5164 90.9752 18.3642C90.9752 19.1965 90.2829 20.2049 89.0629 20.2049ZM89.0211 15.0299H85.1115V25.7671H86.7422V21.6994H89.0211C90.8292 21.6994 92.6071 20.4126 92.6071 18.3642C92.6071 16.3156 90.8292 15.0299 89.0211 15.0299ZM67.7019 24.5493C66.5748 24.5493 65.6314 23.6225 65.6314 22.3496C65.6314 21.0629 66.5748 20.1215 67.7019 20.1215C68.815 20.1215 69.6877 21.0629 69.6877 22.3496C69.6877 23.6225 68.815 24.5493 67.7019 24.5493ZM69.5749 19.4988H69.519C69.1526 19.0702 68.4488 18.6819 67.5612 18.6819C65.7012 18.6819 63.997 20.2873 63.997 22.3496C63.997 24.3972 65.7012 25.9888 67.5612 25.9888C68.4488 25.9888 69.1526 25.6014 69.519 25.1583H69.5749V25.6838C69.5749 27.0821 68.815 27.8287 67.5892 27.8287C66.5887 27.8287 65.9689 27.1234 65.7152 26.5282L64.2927 27.1098C64.7009 28.0785 65.7861 29.2682 67.5892 29.2682C69.505 29.2682 71.1253 28.1611 71.1253 25.463V18.9036H69.5749V19.4988ZM72.2514 25.7671H73.8858V15.029H72.2514V25.7671ZM76.2948 22.225C76.2528 20.8129 77.408 20.094 78.2387 20.094C78.8874 20.094 79.4365 20.4119 79.6193 20.8689L76.2948 22.225ZM81.3664 21.0071C81.0559 20.1902 80.1125 18.6819 78.1826 18.6819C76.2668 18.6819 74.6754 20.1628 74.6754 22.3359C74.6754 24.3834 76.2528 25.9888 78.3653 25.9888C80.0704 25.9888 81.0559 24.9649 81.4652 24.3698L80.1972 23.5392C79.774 24.1481 79.197 24.5493 78.3653 24.5493C77.5348 24.5493 76.9428 24.1756 76.5623 23.443L81.5352 21.4219L81.3664 21.0071ZM41.7484 19.8038V21.3532H45.5234C45.4104 22.225 45.115 22.8615 44.6647 23.3038C44.1147 23.844 43.2551 24.4385 41.7484 24.4385C39.4233 24.4385 37.6064 22.5987 37.6064 20.3148C37.6064 18.0318 39.4233 16.192 41.7484 16.192C43.0024 16.192 43.9179 16.6755 44.5938 17.2982L45.7068 16.2058C44.7626 15.3201 43.5095 14.6417 41.7484 14.6417C38.5647 14.6417 35.8882 17.1883 35.8882 20.3148C35.8882 23.443 38.5647 25.9888 41.7484 25.9888C43.4667 25.9888 44.7626 25.4347 45.7768 24.3972C46.8191 23.3734 47.1437 21.9348 47.1437 20.7718C47.1437 20.4119 47.1155 20.0804 47.0587 19.8038H41.7484ZM51.4352 24.5493C50.309 24.5493 49.3366 23.6362 49.3366 22.3359C49.3366 21.0207 50.309 20.1215 51.4352 20.1215C52.5623 20.1215 53.5346 21.0207 53.5346 22.3359C53.5346 23.6362 52.5623 24.5493 51.4352 24.5493ZM51.4352 18.6819C49.3785 18.6819 47.7023 20.2186 47.7023 22.3359C47.7023 24.4385 49.3785 25.9888 51.4352 25.9888C53.4918 25.9888 55.169 24.4385 55.169 22.3359C55.169 20.2186 53.4918 18.6819 51.4352 18.6819ZM59.5794 24.5493C58.4523 24.5493 57.48 23.6362 57.48 22.3359C57.48 21.0207 58.4523 20.1215 59.5794 20.1215C60.7067 20.1215 61.6781 21.0207 61.6781 22.3359C61.6781 23.6362 60.7067 24.5493 59.5794 24.5493ZM59.5794 18.6819C57.5229 18.6819 55.8465 20.2186 55.8465 22.3359C55.8465 24.4385 57.5229 25.9888 59.5794 25.9888C61.6361 25.9888 63.3123 24.4385 63.3123 22.3359C63.3123 20.2186 61.6361 18.6819 59.5794 18.6819Z" fill="white"/>
<path d="M18.1155 16.6842L8.80566 26.3901C8.80652 26.3917 8.80652 26.3944 8.80745 26.396C9.09332 27.45 10.0727 28.2256 11.2357 28.2256C11.7008 28.2256 12.1372 28.1019 12.5114 27.8854L12.5411 27.8682L23.0202 21.9289L18.1155 16.6842Z" fill="#EB3131"/>
<path d="M27.5343 15.031L27.5255 15.0249L23.0012 12.449L17.9043 16.9042L23.0195 21.9272L27.5193 19.3772C28.308 18.9579 28.8441 18.1412 28.8441 17.1997C28.8441 16.2635 28.3159 15.4511 27.5343 15.031Z" fill="#F6B60B"/>
<path d="M8.80537 7.96824C8.74942 8.17089 8.71973 8.38396 8.71973 8.60384V25.7548C8.71973 25.9747 8.74942 26.1876 8.80631 26.3895L18.4353 16.9319L8.80537 7.96824Z" fill="#5778C5"/>
<path d="M18.1846 17.179L23.0026 12.4471L12.5359 6.48624C12.1556 6.26205 11.7113 6.13335 11.2365 6.13335C10.0736 6.13335 9.09248 6.91056 8.80652 7.96528C8.80652 7.96618 8.80566 7.96707 8.80566 7.96797L18.1846 17.179Z" fill="#3BAD49"/>
<path d="M37.7704 10.2859H36.5841V6.44179H37.823C38.1959 6.44179 38.515 6.51875 38.7802 6.67266C39.0455 6.82532 39.2489 7.04493 39.3903 7.33149C39.5317 7.61679 39.6024 7.95841 39.6024 8.35633C39.6024 8.75676 39.531 9.1015 39.3884 9.39056C39.2457 9.67837 39.038 9.89985 38.7652 10.055C38.4924 10.2089 38.1608 10.2859 37.7704 10.2859ZM37.0496 9.87295H37.7404C38.0582 9.87295 38.3216 9.81163 38.5306 9.689C38.7396 9.56637 38.8954 9.39181 38.998 9.16532C39.1006 8.93883 39.1519 8.66916 39.1519 8.35633C39.1519 8.046 39.1012 7.77884 38.9999 7.55485C38.8985 7.32961 38.7471 7.15693 38.5456 7.0368C38.3442 6.91542 38.0933 6.85473 37.7929 6.85473H37.0496V9.87295ZM43.4387 6.44179V10.2859H42.9732V6.44179H43.4387ZM49.0642 7.40281C49.0417 7.21261 48.9503 7.06495 48.7902 6.95984C48.63 6.85473 48.4335 6.80217 48.2008 6.80217C48.0306 6.80217 47.8817 6.8297 47.7541 6.88476C47.6277 6.93982 47.5288 7.01553 47.4575 7.11188C47.3874 7.20823 47.3524 7.31772 47.3524 7.44035C47.3524 7.54296 47.3768 7.63118 47.4256 7.70501C47.4756 7.77759 47.5395 7.83828 47.617 7.88708C47.6946 7.93463 47.776 7.97405 47.861 8.00533C47.9461 8.03536 48.0243 8.05976 48.0957 8.07853L48.4861 8.18365C48.5862 8.20992 48.6976 8.24621 48.8202 8.29251C48.9441 8.33881 49.0623 8.402 49.1749 8.48209C49.2888 8.56092 49.3827 8.66228 49.4565 8.78616C49.5303 8.91005 49.5672 9.06208 49.5672 9.24228C49.5672 9.45 49.5128 9.6377 49.4039 9.80538C49.2963 9.97306 49.1387 10.1063 48.9309 10.2052C48.7245 10.304 48.4736 10.3535 48.1783 10.3535C47.903 10.3535 47.6646 10.309 47.4631 10.2202C47.2629 10.1313 47.1052 10.0075 46.9901 9.84855C46.8762 9.68963 46.8118 9.50506 46.7968 9.29483H47.2773C47.2898 9.43999 47.3386 9.56011 47.4237 9.65522C47.51 9.74907 47.6189 9.81914 47.7503 9.86544C47.8829 9.91049 48.0256 9.93301 48.1783 9.93301C48.3559 9.93301 48.5155 9.90423 48.6569 9.84667C48.7983 9.78786 48.9103 9.70652 48.9929 9.60266C49.0755 9.49755 49.1168 9.37492 49.1168 9.23477C49.1168 9.10713 49.0811 9.00327 49.0098 8.92319C48.9384 8.8431 48.8446 8.77803 48.7282 8.72798C48.6118 8.67792 48.4861 8.63413 48.3509 8.59659L47.8779 8.46144C47.5776 8.3751 47.3399 8.25184 47.1647 8.09167C46.9895 7.9315 46.9019 7.7219 46.9019 7.46288C46.9019 7.24765 46.9601 7.05995 47.0765 6.89978C47.1941 6.73835 47.3518 6.61322 47.5495 6.52438C47.7484 6.43428 47.9705 6.38923 48.2158 6.38923C48.4636 6.38923 48.6838 6.43365 48.8765 6.5225C49.0692 6.61009 49.2219 6.73022 49.3345 6.88288C49.4484 7.03555 49.5084 7.20886 49.5147 7.40281H49.0642ZM52.9225 10.2859V6.44179H54.2214C54.523 6.44179 54.7695 6.49622 54.961 6.60509C55.1537 6.7127 55.2963 6.85848 55.3889 7.04243C55.4815 7.22638 55.5278 7.43159 55.5278 7.65809C55.5278 7.88458 55.4815 8.09042 55.3889 8.27562C55.2976 8.46082 55.1562 8.60847 54.9647 8.71859C54.7733 8.82746 54.528 8.88189 54.2289 8.88189H53.2979V8.46895H54.2139C54.4204 8.46895 54.5862 8.43329 54.7113 8.36196C54.8365 8.29064 54.9272 8.19428 54.9835 8.0729C55.0411 7.95027 55.0698 7.812 55.0698 7.65809C55.0698 7.50417 55.0411 7.36652 54.9835 7.24515C54.9272 7.12377 54.8358 7.02866 54.7095 6.95984C54.5831 6.88977 54.4154 6.85473 54.2064 6.85473H53.388V10.2859H52.9225ZM62.1111 8.36384C62.1111 8.76927 62.0379 9.11964 61.8915 9.41496C61.7451 9.71027 61.5443 9.93802 61.289 10.0982C61.0337 10.2584 60.7422 10.3384 60.4143 10.3384C60.0865 10.3384 59.7949 10.2584 59.5396 10.0982C59.2843 9.93802 59.0835 9.71027 58.9371 9.41496C58.7907 9.11964 58.7175 8.76927 58.7175 8.36384C58.7175 7.95841 58.7907 7.60803 58.9371 7.31272C59.0835 7.0174 59.2843 6.78966 59.5396 6.62949C59.7949 6.46932 60.0865 6.38923 60.4143 6.38923C60.7422 6.38923 61.0337 6.46932 61.289 6.62949C61.5443 6.78966 61.7451 7.0174 61.8915 7.31272C62.0379 7.60803 62.1111 7.95841 62.1111 8.36384ZM61.6606 8.36384C61.6606 8.03098 61.6049 7.75006 61.4936 7.52106C61.3835 7.29207 61.2339 7.11876 61.045 7.00114C60.8573 6.88351 60.6471 6.8247 60.4143 6.8247C60.1816 6.8247 59.9707 6.88351 59.7818 7.00114C59.5941 7.11876 59.4445 7.29207 59.3331 7.52106C59.223 7.75006 59.168 8.03098 59.168 8.36384C59.168 8.69669 59.223 8.97762 59.3331 9.20661C59.4445 9.43561 59.5941 9.60892 59.7818 9.72654C59.9707 9.84417 60.1816 9.90298 60.4143 9.90298C60.6471 9.90298 60.8573 9.84417 61.045 9.72654C61.2339 9.60892 61.3835 9.43561 61.4936 9.20661C61.6049 8.97762 61.6606 8.69669 61.6606 8.36384ZM68.532 6.44179V10.2859H68.0816L65.9868 7.26767H65.9493V10.2859H65.4838V6.44179H65.9343L68.0365 9.46752H68.074V6.44179H68.532ZM72.519 6.44179V10.2859H72.0535V6.44179H72.519ZM76.0423 10.2859V6.44179H77.3862C77.654 6.44179 77.8748 6.48809 78.0488 6.58069C78.2227 6.67203 78.3522 6.79529 78.4373 6.95046C78.5224 7.10437 78.5649 7.27518 78.5649 7.46288C78.5649 7.62805 78.5355 7.76445 78.4767 7.87206C78.4192 7.97968 78.3428 8.06477 78.2477 8.12734C78.1539 8.1899 78.0519 8.2362 77.9418 8.26623V8.30377C78.0594 8.31128 78.1777 8.35258 78.2965 8.42766C78.4154 8.50274 78.5149 8.61035 78.595 8.7505C78.6751 8.89065 78.7151 9.06208 78.7151 9.2648C78.7151 9.45751 78.6713 9.63081 78.5837 9.78473C78.4961 9.93864 78.3579 10.0606 78.1689 10.1507C77.9799 10.2408 77.7341 10.2859 77.4312 10.2859H76.0423ZM76.5078 9.87295H77.4312C77.7353 9.87295 77.9512 9.81414 78.0788 9.69651C78.2077 9.57763 78.2721 9.43373 78.2721 9.2648C78.2721 9.13466 78.239 9.01453 78.1727 8.90442C78.1063 8.79305 78.0119 8.7042 77.8892 8.63788C77.7666 8.57031 77.6214 8.53652 77.4538 8.53652H76.5078V9.87295ZM76.5078 8.13109H77.3712C77.5113 8.13109 77.6377 8.10356 77.7503 8.0485C77.8642 7.99344 77.9543 7.91586 78.0206 7.81575C78.0882 7.71565 78.122 7.59802 78.122 7.46288C78.122 7.29395 78.0632 7.15067 77.9455 7.03304C77.8279 6.91417 77.6415 6.85473 77.3862 6.85473H76.5078V8.13109ZM82.0699 10.2859V6.44179H82.5354V9.87295H84.3223V10.2859H82.0699ZM87.6331 10.2859V6.44179H89.9531V6.85473H88.0986V8.15361H89.8329V8.56655H88.0986V9.87295H89.9831V10.2859H87.6331ZM97.4586 10.2859V6.44179H99.7786V6.85473H97.9241V8.15361H99.6584V8.56655H97.9241V9.87295H99.8086V10.2859H97.4586ZM106.256 6.44179V10.2859H105.805L103.711 7.26767H103.673V10.2859H103.208V6.44179H103.658L105.76 9.46752H105.798V6.44179H106.256Z" fill="white"/>
</g>
</svg>
