<svg width="162" height="48" viewBox="0 0 162 48" fill="none" xmlns="http://www.w3.org/2000/svg">
<path d="M155.985 47.9227H5.66567C2.5423 47.9227 0 45.3732 0 42.2523V5.66207C0 2.53991 2.5423 0 5.66567 0H155.985C159.107 0 161.739 2.53991 161.739 5.66207V42.2523C161.739 45.3732 159.107 47.9227 155.985 47.9227Z" fill="#030303"/>
<path d="M160.711 42.2525C160.711 44.7876 158.658 46.8411 156.118 46.8411H5.79763C3.25892 46.8411 1.19824 44.7876 1.19824 42.2525V5.65984C1.19824 3.12593 3.25892 1.06525 5.79763 1.06525H156.117C158.658 1.06525 160.71 3.12593 160.71 5.65984L160.711 42.2525Z" fill="black"/>
<path d="M36.095 23.7018C36.0603 19.8404 39.2567 17.9618 39.4029 17.8744C37.5926 15.235 34.7867 14.8744 33.8007 14.8457C31.4441 14.5977 29.1582 16.2558 27.9577 16.2558C26.7333 16.2558 24.8847 14.8696 22.8923 14.9104C20.3284 14.9499 17.9299 16.4343 16.6144 18.7394C13.8996 23.4394 15.9243 30.3463 18.5254 34.1453C19.8265 36.0059 21.3468 38.0834 23.3368 38.0103C25.2837 37.93 26.0109 36.7691 28.3603 36.7691C30.6881 36.7691 31.371 38.0103 33.4006 37.9636C35.49 37.93 36.8055 36.0946 38.0611 34.2172C39.5646 32.0847 40.1685 29.9845 40.1924 29.8766C40.1433 29.8599 36.1346 28.3299 36.095 23.7018Z" fill="white"/>
<path d="M32.2621 12.3469C33.3092 11.0374 34.0257 9.25588 33.8268 7.448C32.3112 7.51509 30.4159 8.49631 29.3245 9.77704C28.3588 10.9056 27.4962 12.7554 27.719 14.495C29.4215 14.622 31.1695 13.636 32.2621 12.3469Z" fill="white"/>
<path d="M64.2699 37.7434H61.5491L60.0587 33.0602H54.8782L53.4585 37.7434H50.8096L55.9421 21.7995H59.1122L64.2699 37.7434ZM59.6094 31.0953L58.2616 26.932C58.119 26.5067 57.8518 25.5051 57.4577 23.9285H57.4097C57.2528 24.6066 57 25.6082 56.6525 26.932L55.3287 31.0953H59.6094Z" fill="white"/>
<path d="M77.4698 31.8532C77.4698 33.8084 76.9414 35.3539 75.8847 36.4885C74.9383 37.4985 73.763 38.0029 72.36 38.0029C70.8457 38.0029 69.7578 37.4589 69.0953 36.3711H69.0474V42.4273H66.4931V30.0309C66.4931 28.8017 66.4607 27.5401 66.3984 26.2462H68.6448L68.7874 28.0685H68.8353C69.6871 26.6955 70.9798 26.0102 72.7147 26.0102C74.0709 26.0102 75.203 26.5457 76.1088 27.618C77.0169 28.6915 77.4698 30.1028 77.4698 31.8532ZM74.8676 31.9466C74.8676 30.8276 74.616 29.9051 74.1104 29.1791C73.5581 28.4219 72.8165 28.0433 71.8868 28.0433C71.2566 28.0433 70.6839 28.2542 70.1723 28.6699C69.6596 29.0892 69.3241 29.6367 69.1672 30.3149C69.0881 30.6311 69.0486 30.8899 69.0486 31.0936V33.0105C69.0486 33.8468 69.305 34.5524 69.8177 35.1287C70.3305 35.705 70.9966 35.9925 71.8161 35.9925C72.7782 35.9925 73.5269 35.6211 74.0625 34.8807C74.5992 34.1391 74.8676 33.1615 74.8676 31.9466Z" fill="white"/>
<path d="M90.6922 31.8532C90.6922 33.8084 90.1639 35.3539 89.106 36.4885C88.1607 37.4985 86.9854 38.0029 85.5825 38.0029C84.0681 38.0029 82.9803 37.4589 82.3189 36.3711H82.271V42.4273H79.7167V30.0309C79.7167 28.8017 79.6844 27.5401 79.6221 26.2462H81.8684L82.011 28.0685H82.0589C82.9096 26.6955 84.2023 26.0102 85.9383 26.0102C87.2933 26.0102 88.4255 26.5457 89.3336 27.618C90.2382 28.6915 90.6922 30.1028 90.6922 31.8532ZM88.09 31.9466C88.09 30.8276 87.8372 29.9051 87.3316 29.1791C86.7793 28.4219 86.0401 28.0433 85.1092 28.0433C84.4778 28.0433 83.9064 28.2542 83.3936 28.6699C82.8808 29.0892 82.5466 29.6367 82.3896 30.3149C82.3117 30.6311 82.271 30.8899 82.271 31.0936V33.0105C82.271 33.8468 82.5274 34.5524 83.0378 35.1287C83.5505 35.7038 84.2167 35.9925 85.0385 35.9925C86.0006 35.9925 86.7494 35.6211 87.2849 34.8807C87.8217 34.1391 88.09 33.1615 88.09 31.9466Z" fill="white"/>
<path d="M105.477 33.2725C105.477 34.6287 105.006 35.7321 104.061 36.584C103.022 37.5149 101.576 37.9797 99.7181 37.9797C98.0024 37.9797 96.6271 37.649 95.5859 36.9865L96.1778 34.8575C97.2992 35.5356 98.5296 35.8759 99.8702 35.8759C100.832 35.8759 101.581 35.6578 102.119 35.2241C102.655 34.7904 102.922 34.2082 102.922 33.4822C102.922 32.8352 102.701 32.2901 102.259 31.848C101.819 31.4059 101.085 30.995 100.06 30.6152C97.268 29.5741 95.8735 28.0489 95.8735 26.0433C95.8735 24.7327 96.3623 23.658 97.3411 22.8217C98.3163 21.9843 99.6174 21.5662 101.244 21.5662C102.695 21.5662 103.901 21.819 104.863 22.3233L104.224 24.4056C103.325 23.9168 102.309 23.6724 101.173 23.6724C100.274 23.6724 99.5719 23.894 99.0687 24.3349C98.6434 24.7291 98.4302 25.2095 98.4302 25.7786C98.4302 26.4088 98.6734 26.9299 99.1622 27.3397C99.5875 27.7182 100.36 28.128 101.482 28.5701C102.853 29.1224 103.861 29.7681 104.509 30.5085C105.155 31.2466 105.477 32.1703 105.477 33.2725Z" fill="white"/>
<path d="M113.922 28.1638H111.107V33.7456C111.107 35.1653 111.603 35.8746 112.597 35.8746C113.054 35.8746 113.432 35.835 113.732 35.756L113.803 37.6957C113.299 37.8837 112.637 37.9784 111.816 37.9784C110.807 37.9784 110.019 37.6705 109.45 37.0559C108.883 36.4401 108.598 35.4073 108.598 33.9565V28.1614H106.921V26.2445H108.598V24.1395L111.107 23.3823V26.2445H113.922V28.1638Z" fill="white"/>
<path d="M126.626 31.9008C126.626 33.668 126.12 35.1188 125.112 36.2534C124.054 37.4215 122.649 38.0038 120.899 38.0038C119.212 38.0038 117.869 37.4443 116.868 36.3253C115.866 35.2063 115.365 33.7938 115.365 32.0913C115.365 30.3098 115.88 28.8506 116.914 27.716C117.946 26.5802 119.338 26.0123 121.088 26.0123C122.775 26.0123 124.133 26.5718 125.157 27.692C126.137 28.7787 126.626 30.1816 126.626 31.9008ZM123.976 31.9835C123.976 30.9232 123.749 30.0139 123.29 29.2555C122.755 28.3378 121.989 27.8801 120.997 27.8801C119.971 27.8801 119.191 28.339 118.655 29.2555C118.196 30.0151 117.97 30.9388 117.97 32.0314C117.97 33.0917 118.196 34.001 118.655 34.7582C119.207 35.6759 119.979 36.1336 120.975 36.1336C121.95 36.1336 122.715 35.6664 123.268 34.7343C123.739 33.9615 123.976 33.0426 123.976 31.9835Z" fill="white"/>
<path d="M134.927 28.4926C134.674 28.4459 134.405 28.4219 134.122 28.4219C133.224 28.4219 132.529 28.761 132.04 29.4403C131.615 30.0393 131.401 30.7965 131.401 31.7106V37.7429H128.848L128.872 29.8668C128.872 28.5417 128.84 27.3353 128.776 26.2474H131.001L131.095 28.4471H131.165C131.435 27.6911 131.86 27.0825 132.442 26.626C133.012 26.2151 133.626 26.0102 134.289 26.0102C134.525 26.0102 134.738 26.027 134.927 26.0569V28.4926Z" fill="white"/>
<path d="M146.352 31.4514C146.352 31.909 146.322 32.2948 146.258 32.6099H138.596C138.626 33.7457 138.996 34.6143 139.707 35.2133C140.353 35.7488 141.188 36.0172 142.214 36.0172C143.348 36.0172 144.383 35.8363 145.314 35.4733L145.715 37.2464C144.627 37.7209 143.342 37.9569 141.86 37.9569C140.078 37.9569 138.678 37.4321 137.66 36.3838C136.644 35.3355 136.135 33.9278 136.135 32.1618C136.135 30.4282 136.608 28.9846 137.556 27.8332C138.548 26.604 139.888 25.9894 141.575 25.9894C143.232 25.9894 144.486 26.604 145.338 27.8332C146.013 28.8096 146.352 30.0173 146.352 31.4514ZM143.916 30.7888C143.933 30.0317 143.766 29.3775 143.42 28.8252C142.978 28.1148 142.299 27.7601 141.385 27.7601C140.55 27.7601 139.87 28.1064 139.352 28.8012C138.926 29.3536 138.673 30.0161 138.596 30.7876L143.916 30.7888Z" fill="white"/>
<path d="M52.5657 15.386H50.9524V10.158H52.6372C53.1443 10.158 53.5783 10.2627 53.9391 10.472C54.2999 10.6797 54.5764 10.9783 54.7687 11.368C54.961 11.756 55.0572 12.2206 55.0572 12.7618C55.0572 13.3064 54.9602 13.7752 54.7661 14.1683C54.5721 14.5598 54.2896 14.861 53.9186 15.072C53.5477 15.2813 53.0967 15.386 52.5657 15.386ZM51.5855 14.8244H52.5249C52.9571 14.8244 53.3154 14.741 53.5996 14.5742C53.8838 14.4074 54.0956 14.17 54.2352 13.862C54.3747 13.554 54.4445 13.1873 54.4445 12.7618C54.4445 12.3398 54.3756 11.9764 54.2377 11.6718C54.0999 11.3655 53.894 11.1306 53.62 10.9673C53.346 10.8022 53.0048 10.7196 52.5963 10.7196H51.5855V14.8244ZM59.6414 15.386V10.158H62.7965V10.7196H60.2745V12.4861H62.6332V13.0477H60.2745V14.8244H62.8374V15.386H59.6414ZM70.319 11.465C70.2883 11.2064 70.1641 11.0055 69.9463 10.8626C69.7284 10.7196 69.4612 10.6482 69.1447 10.6482C68.9133 10.6482 68.7107 10.6856 68.5372 10.7605C68.3653 10.8354 68.2308 10.9383 68.1338 11.0694C68.0385 11.2004 67.9909 11.3493 67.9909 11.5161C67.9909 11.6556 68.0241 11.7756 68.0904 11.876C68.1585 11.9747 68.2453 12.0573 68.3508 12.1236C68.4563 12.1883 68.5669 12.2419 68.6827 12.2845C68.7984 12.3253 68.9048 12.3585 69.0018 12.384L69.5327 12.527C69.6689 12.5627 69.8203 12.612 69.9871 12.675C70.1556 12.738 70.3164 12.8239 70.4696 12.9328C70.6244 13.0401 70.7521 13.1779 70.8525 13.3464C70.9529 13.5149 71.0031 13.7216 71.0031 13.9667C71.0031 14.2492 70.929 14.5045 70.781 14.7325C70.6346 14.9605 70.4202 15.1418 70.1377 15.2762C69.8569 15.4107 69.5157 15.4779 69.1141 15.4779C68.7397 15.4779 68.4155 15.4175 68.1415 15.2966C67.8692 15.1758 67.6548 15.0073 67.4982 14.7912C67.3433 14.5751 67.2557 14.3241 67.2353 14.0382H67.8888C67.9058 14.2356 67.9722 14.3989 68.0879 14.5283C68.2053 14.6559 68.3534 14.7512 68.5321 14.8142C68.7124 14.8754 68.9065 14.9061 69.1141 14.9061C69.3557 14.9061 69.5727 14.8669 69.765 14.7887C69.9573 14.7087 70.1096 14.5981 70.2219 14.4568C70.3343 14.3139 70.3904 14.1471 70.3904 13.9565C70.3904 13.7829 70.3419 13.6416 70.2449 13.5327C70.1479 13.4238 70.0203 13.3353 69.862 13.2672C69.7037 13.1992 69.5327 13.1396 69.3489 13.0886L68.7056 12.9048C68.2972 12.7873 67.9739 12.6197 67.7356 12.4019C67.4974 12.184 67.3782 11.899 67.3782 11.5467C67.3782 11.254 67.4574 10.9987 67.6156 10.7809C67.7756 10.5614 67.99 10.3912 68.2589 10.2704C68.5295 10.1478 68.8316 10.0866 69.1651 10.0866C69.5021 10.0866 69.8016 10.147 70.0637 10.2678C70.3258 10.3869 70.5334 10.5503 70.6865 10.7579C70.8414 10.9656 70.9231 11.2013 70.9316 11.465H70.319ZM79.7731 11.7918H79.14C79.1026 11.6097 79.0371 11.4497 78.9435 11.3119C78.8516 11.174 78.7393 11.0583 78.6065 10.9647C78.4755 10.8694 78.33 10.7979 78.17 10.7503C78.0101 10.7026 77.8433 10.6788 77.6697 10.6788C77.3532 10.6788 77.0664 10.7588 76.8094 10.9188C76.5542 11.0787 76.3508 11.3144 76.1993 11.6259C76.0496 11.9373 75.9747 12.3193 75.9747 12.772C75.9747 13.2247 76.0496 13.6068 76.1993 13.9182C76.3508 14.2296 76.5542 14.4653 76.8094 14.6253C77.0664 14.7853 77.3532 14.8652 77.6697 14.8652C77.8433 14.8652 78.0101 14.8414 78.17 14.7938C78.33 14.7461 78.4755 14.6755 78.6065 14.5819C78.7393 14.4866 78.8516 14.37 78.9435 14.2322C79.0371 14.0926 79.1026 13.9326 79.14 13.7523H79.7731C79.7255 14.0194 79.6387 14.2585 79.5127 14.4696C79.3868 14.6806 79.2302 14.8601 79.043 15.0082C78.8558 15.1545 78.6457 15.266 78.4125 15.3426C78.1811 15.4192 77.9335 15.4575 77.6697 15.4575C77.2238 15.4575 76.8273 15.3485 76.4801 15.1307C76.133 14.9129 75.8598 14.6032 75.6607 14.2015C75.4616 13.7999 75.362 13.3234 75.362 12.772C75.362 12.2206 75.4616 11.7441 75.6607 11.3425C75.8598 10.9409 76.133 10.6312 76.4801 10.4133C76.8273 10.1955 77.2238 10.0866 77.6697 10.0866C77.9335 10.0866 78.1811 10.1249 78.4125 10.2014C78.6457 10.278 78.8558 10.3903 79.043 10.5384C79.2302 10.6848 79.3868 10.8634 79.5127 11.0745C79.6387 11.2838 79.7255 11.5229 79.7731 11.7918ZM84.5329 15.386H83.8692L85.7888 10.158H86.4423L88.3619 15.386H87.6982L86.136 10.9851H86.0951L84.5329 15.386ZM84.7779 13.3438H87.4532V13.9054H84.7779V13.3438ZM92.6986 15.386V10.158H94.465C94.8735 10.158 95.2087 10.2278 95.4708 10.3674C95.7329 10.5052 95.9269 10.695 96.0528 10.9366C96.1787 11.1783 96.2417 11.4531 96.2417 11.7611C96.2417 12.0692 96.1787 12.3423 96.0528 12.5806C95.9269 12.8188 95.7337 13.006 95.4733 13.1422C95.213 13.2766 94.8803 13.3438 94.4752 13.3438H93.0457V12.772H94.4548C94.7339 12.772 94.9585 12.7312 95.1287 12.6495C95.3006 12.5678 95.4248 12.4521 95.5014 12.3023C95.5797 12.1509 95.6188 11.9705 95.6188 11.7611C95.6188 11.5518 95.5797 11.3689 95.5014 11.2123C95.4231 11.0558 95.2981 10.9349 95.1262 10.8498C94.9543 10.763 94.7271 10.7196 94.4446 10.7196H93.3316V15.386H92.6986ZM95.1594 13.0375L96.4459 15.386H95.7107L94.4446 13.0375H95.1594ZM104.393 11.7918C104.337 11.6199 104.263 11.4659 104.171 11.3297C104.08 11.1919 103.972 11.0745 103.846 10.9775C103.722 10.8805 103.581 10.8064 103.423 10.7554C103.264 10.7043 103.091 10.6788 102.902 10.6788C102.592 10.6788 102.311 10.7588 102.057 10.9188C101.803 11.0787 101.602 11.3144 101.452 11.6259C101.302 11.9373 101.227 12.3193 101.227 12.772C101.227 13.2247 101.303 13.6068 101.455 13.9182C101.606 14.2296 101.811 14.4653 102.07 14.6253C102.328 14.7853 102.619 14.8652 102.943 14.8652C103.242 14.8652 103.506 14.8014 103.734 14.6738C103.964 14.5444 104.143 14.3624 104.27 14.1275C104.4 13.891 104.464 13.6127 104.464 13.2928L104.658 13.3336H103.086V12.772H105.077V13.3336C105.077 13.7642 104.985 14.1386 104.801 14.4568C104.619 14.775 104.367 15.0218 104.046 15.1971C103.726 15.3707 103.358 15.4575 102.943 15.4575C102.48 15.4575 102.073 15.3485 101.723 15.1307C101.374 14.9129 101.101 14.6032 100.906 14.2015C100.712 13.7999 100.615 13.3234 100.615 12.772C100.615 12.3585 100.67 11.9866 100.781 11.6565C100.893 11.3246 101.051 11.0421 101.255 10.809C101.46 10.5758 101.701 10.3972 101.98 10.2729C102.26 10.1487 102.567 10.0866 102.902 10.0866C103.178 10.0866 103.435 10.1283 103.673 10.2117C103.913 10.2933 104.126 10.4099 104.314 10.5614C104.502 10.7111 104.66 10.8907 104.786 11.1C104.912 11.3076 104.999 11.5382 105.046 11.7918H104.393ZM109.736 15.386H109.073L110.992 10.158H111.646L113.565 15.386H112.902L111.339 10.9851H111.299L109.736 15.386ZM109.981 13.3438H112.657V13.9054H109.981V13.3438ZM117.902 15.386V10.158H119.669C120.077 10.158 120.412 10.2278 120.674 10.3674C120.936 10.5052 121.13 10.695 121.256 10.9366C121.382 11.1783 121.445 11.4531 121.445 11.7611C121.445 12.0692 121.382 12.3423 121.256 12.5806C121.13 12.8188 120.937 13.006 120.677 13.1422C120.416 13.2766 120.084 13.3438 119.679 13.3438H118.249V12.772H119.658C119.937 12.772 120.162 12.7312 120.332 12.6495C120.504 12.5678 120.628 12.4521 120.705 12.3023C120.783 12.1509 120.822 11.9705 120.822 11.7611C120.822 11.5518 120.783 11.3689 120.705 11.2123C120.627 11.0558 120.502 10.9349 120.33 10.8498C120.158 10.763 119.931 10.7196 119.648 10.7196H118.535V15.386H117.902ZM120.363 13.0375L121.649 15.386H120.914L119.648 13.0375H120.363ZM131.567 15.386V10.158H134.722V10.7196H132.2V12.4861H134.558V13.0477H132.2V14.8244H134.763V15.386H131.567ZM143.531 10.158V15.386H142.918L140.069 11.2812H140.018V15.386H139.385V10.158H139.998L142.857 14.273H142.908V10.158H143.531Z" fill="white"/>
</svg>
