<svg width="140" height="47" viewBox="0 0 140 47" fill="none" xmlns="http://www.w3.org/2000/svg">
<path d="M133.99 46.6696H5.15354C2.31909 46.6696 0 44.0446 0 40.8358V5.83387C0 2.62517 2.31909 0.000175476 5.15354 0.000175476H133.99C136.825 0.000175476 139.144 2.62517 139.144 5.83387V40.8358C139.144 44.0446 136.825 46.6696 133.99 46.6696Z" fill="#100F0D"/>
<path d="M42.4133 26.1786H39.7395V18.6361H42.4354C43.1941 18.6361 43.8472 18.7871 44.3947 19.0891C44.9422 19.3886 45.3633 19.8195 45.6579 20.3817C45.955 20.944 46.1035 21.6167 46.1035 22.4C46.1035 23.1856 45.955 23.8608 45.6579 24.4255C45.3633 24.9902 44.9398 25.4236 44.3873 25.7256C43.8373 26.0276 43.1793 26.1786 42.4133 26.1786ZM41.3342 24.8122H42.347C42.8184 24.8122 43.2149 24.7288 43.5366 24.5618C43.8607 24.3924 44.1037 24.1309 44.2658 23.7774C44.4303 23.4213 44.5125 22.9622 44.5125 22.4C44.5125 21.8426 44.4303 21.3872 44.2658 21.0336C44.1037 20.6801 43.8619 20.4198 43.5403 20.2528C43.2186 20.0859 42.8221 20.0024 42.3507 20.0024H41.3342V24.8122ZM47.2848 26.1786V18.6361H52.3672V19.9508H48.8795V21.7481H52.1057V23.0629H48.8795V24.8638H52.3819V26.1786H47.2848ZM57.7267 20.8053C57.6972 20.5082 57.5708 20.2774 57.3474 20.1129C57.1239 19.9484 56.8207 19.8661 56.4377 19.8661C56.1774 19.8661 55.9577 19.903 55.7785 19.9766C55.5992 20.0478 55.4617 20.1473 55.366 20.2749C55.2727 20.4026 55.226 20.5475 55.226 20.7095C55.2211 20.8446 55.2493 20.9624 55.3107 21.0631C55.3746 21.1637 55.4617 21.2509 55.5722 21.3246C55.6827 21.3958 55.8104 21.4584 55.9552 21.5124C56.1001 21.5639 56.2548 21.6081 56.4193 21.645L57.0969 21.807C57.4259 21.8807 57.7279 21.9789 58.0029 22.1016C58.2779 22.2244 58.5161 22.3754 58.7174 22.5546C58.9187 22.7339 59.0746 22.945 59.1851 23.1881C59.2981 23.4312 59.3558 23.7098 59.3582 24.0241C59.3558 24.4857 59.2379 24.8859 59.0047 25.2247C58.7739 25.5611 58.4399 25.8226 58.0029 26.0092C57.5683 26.1933 57.0441 26.2854 56.4303 26.2854C55.8214 26.2854 55.2911 26.1921 54.8393 26.0055C54.39 25.8189 54.0389 25.5427 53.786 25.1768C53.5356 24.8086 53.4042 24.3531 53.392 23.8105H54.9351C54.9523 24.0634 55.0247 24.2745 55.1524 24.444C55.2825 24.6109 55.4556 24.7374 55.6717 24.8233C55.8902 24.9068 56.1369 24.9485 56.4119 24.9485C56.682 24.9485 56.9165 24.9092 57.1153 24.8307C57.3167 24.7521 57.4726 24.6428 57.5831 24.5029C57.6935 24.3629 57.7488 24.2021 57.7488 24.0204C57.7488 23.851 57.6985 23.7086 57.5978 23.5932C57.4996 23.4778 57.3547 23.3796 57.1632 23.2986C56.9742 23.2176 56.7421 23.1439 56.4672 23.0776L55.6459 22.8714C55.01 22.7167 54.5079 22.4748 54.1396 22.1458C53.7713 21.8168 53.5884 21.3737 53.5908 20.8163C53.5884 20.3596 53.7099 19.9607 53.9554 19.6194C54.2034 19.2781 54.5435 19.0117 54.9756 18.8202C55.4077 18.6287 55.8988 18.5329 56.4487 18.5329C57.0085 18.5329 57.4971 18.6287 57.9145 18.8202C58.3344 19.0117 58.6609 19.2781 58.8942 19.6194C59.1274 19.9607 59.2477 20.356 59.2551 20.8053H57.7267ZM67.0858 21.2767H65.4727C65.4432 21.068 65.3831 20.8826 65.2922 20.7206C65.2014 20.5561 65.0848 20.4161 64.9424 20.3007C64.8 20.1853 64.6355 20.0969 64.4489 20.0356C64.2647 19.9742 64.0646 19.9435 63.8486 19.9435C63.4582 19.9435 63.1181 20.0405 62.8284 20.2344C62.5387 20.4259 62.314 20.7058 62.1544 21.0741C61.9948 21.44 61.915 21.8844 61.915 22.4073C61.915 22.945 61.9948 23.3968 62.1544 23.7626C62.3165 24.1285 62.5424 24.4047 62.8321 24.5913C63.1218 24.7779 63.4569 24.8712 63.8375 24.8712C64.0511 24.8712 64.2488 24.8429 64.4304 24.7865C64.6146 24.73 64.7779 24.6477 64.9203 24.5397C65.0627 24.4292 65.1805 24.2954 65.2738 24.1383C65.3696 23.9811 65.4359 23.8019 65.4727 23.6006L67.0858 23.6079C67.0441 23.9541 66.9397 24.288 66.7728 24.6097C66.6083 24.9289 66.3861 25.2149 66.1062 25.4678C65.8287 25.7182 65.4973 25.9171 65.1118 26.0644C64.7288 26.2093 64.2954 26.2817 63.8117 26.2817C63.139 26.2817 62.5374 26.1295 62.0071 25.825C61.4792 25.5206 61.0618 25.0799 60.7549 24.5029C60.4505 23.9259 60.2983 23.2274 60.2983 22.4073C60.2983 21.5848 60.4529 20.8851 60.7623 20.3081C61.0717 19.7311 61.4915 19.2916 62.0218 18.9896C62.5522 18.6852 63.1488 18.5329 63.8117 18.5329C64.2488 18.5329 64.6539 18.5943 65.0271 18.7171C65.4027 18.8398 65.7354 19.0191 66.0251 19.2548C66.3148 19.488 66.5506 19.7741 66.7322 20.1129C66.9164 20.4517 67.0342 20.8396 67.0858 21.2767ZM69.3876 26.1786H67.6787L70.2825 18.6361H72.3376L74.9377 26.1786H73.2288L71.3395 20.3596H71.2806L69.3876 26.1786ZM69.2808 23.2139H73.3172V24.4587H69.2808V23.2139ZM75.8455 26.1786V18.6361H78.8213C79.3909 18.6361 79.877 18.738 80.2797 18.9417C80.6848 19.1431 80.9929 19.4291 81.2041 19.7999C81.4177 20.1681 81.5245 20.6015 81.5245 21.0999C81.5245 21.6008 81.4165 22.0317 81.2004 22.3926C80.9843 22.7511 80.6713 23.026 80.2613 23.2176C79.8537 23.4091 79.3602 23.5048 78.7808 23.5048H76.7883V22.2232H78.523C78.8274 22.2232 79.0803 22.1814 79.2816 22.098C79.483 22.0145 79.6327 21.8893 79.7309 21.7223C79.8316 21.5554 79.8819 21.3479 79.8819 21.0999C79.8819 20.8495 79.8316 20.6383 79.7309 20.4665C79.6327 20.2946 79.4817 20.1645 79.278 20.0761C79.0766 19.9852 78.8225 19.9398 78.5156 19.9398H77.4402V26.1786H75.8455ZM79.9188 22.7462L81.7934 26.1786H80.0329L78.1989 22.7462H79.9188ZM87.6528 21.0741C87.6012 20.8949 87.5288 20.7365 87.4355 20.599C87.3422 20.4591 87.2281 20.3412 87.093 20.2455C86.9604 20.1473 86.8082 20.0724 86.6363 20.0208C86.4669 19.9693 86.2791 19.9435 86.0729 19.9435C85.6874 19.9435 85.3486 20.0392 85.0564 20.2307C84.7667 20.4223 84.5408 20.7009 84.3787 21.0668C84.2167 21.4301 84.1357 21.8745 84.1357 22.4C84.1357 22.9254 84.2155 23.3722 84.3751 23.7405C84.5346 24.1088 84.7605 24.3899 85.0527 24.5839C85.3449 24.7754 85.6898 24.8712 86.0876 24.8712C86.4485 24.8712 86.7566 24.8073 87.012 24.6797C87.2698 24.5495 87.4662 24.3666 87.6012 24.1309C87.7387 23.8952 87.8075 23.6165 87.8075 23.2949L88.1316 23.3428H86.187V22.1422H89.3432V23.0923C89.3432 23.7553 89.2033 24.3249 88.9234 24.8012C88.6435 25.2751 88.258 25.6409 87.767 25.8987C87.2759 26.154 86.7137 26.2817 86.0802 26.2817C85.3731 26.2817 84.7519 26.1258 84.2167 25.814C83.6814 25.4997 83.2641 25.0541 82.9645 24.4771C82.6674 23.8977 82.5189 23.2102 82.5189 22.4147C82.5189 21.8033 82.6073 21.2583 82.784 20.7795C82.9633 20.2983 83.2137 19.8907 83.5354 19.5568C83.857 19.2229 84.2314 18.9687 84.6586 18.7944C85.0858 18.6201 85.5487 18.5329 86.0471 18.5329C86.4743 18.5329 86.872 18.5956 87.2403 18.7208C87.6086 18.8435 87.9352 19.0179 88.22 19.2437C88.5072 19.4696 88.7417 19.7385 88.9234 20.0503C89.1051 20.3596 89.2217 20.7009 89.2733 21.0741H87.6528ZM91.6082 26.1786H89.8994L92.5032 18.6361H94.5582L97.1583 26.1786H95.4495L93.5601 20.3596H93.5012L91.6082 26.1786ZM91.5014 23.2139H95.5378V24.4587H91.5014V23.2139ZM98.0661 26.1786V18.6361H101.042C101.612 18.6361 102.098 18.738 102.5 18.9417C102.905 19.1431 103.214 19.4291 103.425 19.7999C103.638 20.1681 103.745 20.6015 103.745 21.0999C103.745 21.6008 103.637 22.0317 103.421 22.3926C103.205 22.7511 102.892 23.026 102.482 23.2176C102.074 23.4091 101.581 23.5048 101.001 23.5048H99.009V22.2232H100.744C101.048 22.2232 101.301 22.1814 101.502 22.098C101.704 22.0145 101.853 21.8893 101.952 21.7223C102.052 21.5554 102.103 21.3479 102.103 21.0999C102.103 20.8495 102.052 20.6383 101.952 20.4665C101.853 20.2946 101.702 20.1645 101.499 20.0761C101.297 19.9852 101.043 19.9398 100.736 19.9398H99.6608V26.1786H98.0661ZM102.139 22.7462L104.014 26.1786H102.254L100.419 22.7462H102.139ZM108.572 26.1786H106.864L109.467 18.6361H111.522L114.123 26.1786H112.414L110.524 20.3596H110.465L108.572 26.1786ZM108.466 23.2139H112.502V24.4587H108.466V23.2139ZM115.03 26.1786V18.6361H118.006C118.578 18.6361 119.066 18.7453 119.468 18.9638C119.871 19.1799 120.178 19.4807 120.389 19.8661C120.603 20.2492 120.709 20.6911 120.709 21.192C120.709 21.6928 120.601 22.1348 120.385 22.5178C120.169 22.9008 119.856 23.1991 119.446 23.4128C119.039 23.6264 118.545 23.7332 117.966 23.7332H116.069V22.4552H117.708C118.015 22.4552 118.268 22.4024 118.466 22.2968C118.668 22.1888 118.818 22.0403 118.916 21.8512C119.016 21.6597 119.067 21.44 119.067 21.192C119.067 20.9415 119.016 20.723 118.916 20.5364C118.818 20.3474 118.668 20.2013 118.466 20.0982C118.265 19.9926 118.01 19.9398 117.7 19.9398H116.625V26.1786H115.03ZM121.745 26.1786V18.6361H123.34V21.9617H123.439L126.154 18.6361H128.065L125.266 22.0133L128.098 26.1786H126.19L124.124 23.0776L123.34 24.0352V26.1786H121.745Z" fill="white"/>
<mask id="mask0_4796_543" style="mask-type:alpha" maskUnits="userSpaceOnUse" x="13" y="14" width="18" height="18">
<rect x="13.5723" y="14.3118" width="17.4226" height="17.4226" fill="#D9D9D9"/>
</mask>
<g mask="url(#mask0_4796_543)">
<path d="M16.4763 30.2828C16.077 30.2828 15.7352 30.1407 15.4509 29.8563C15.1666 29.572 15.0244 29.2302 15.0244 28.8309V17.2159C15.0244 16.8166 15.1666 16.4748 15.4509 16.1905C15.7352 15.9061 16.077 15.764 16.4763 15.764H22.2838L26.6395 20.1196V23.2049H25.1876V20.8456H21.5579V17.2159H16.4763V28.8309H24.4617V30.2828H16.4763ZM17.2022 28.105C17.2506 27.5121 17.4321 26.9677 17.7467 26.4716C18.0613 25.9756 18.4726 25.5823 18.9808 25.292L18.2912 24.0579C18.2912 24.0458 18.3154 23.955 18.3637 23.7856C18.4242 23.7614 18.4817 23.7493 18.5362 23.7493C18.5906 23.7493 18.6299 23.7796 18.6541 23.8401L19.3619 25.1105C19.6039 25.0137 19.8459 24.9381 20.0879 24.8836C20.3298 24.8292 20.5779 24.802 20.832 24.802C21.086 24.802 21.3341 24.8292 21.576 24.8836C21.818 24.9381 22.06 25.0137 22.302 25.1105L23.0098 23.8401L23.282 23.7675C23.3425 23.7917 23.3788 23.834 23.3909 23.8945C23.403 23.955 23.3969 24.0095 23.3728 24.0579L22.6831 25.292C23.1913 25.5823 23.6026 25.9756 23.9172 26.4716C24.2318 26.9677 24.4133 27.5121 24.4617 28.105H17.2022ZM19.1986 27.0161C19.2954 27.0161 19.3801 26.9798 19.4527 26.9072C19.5253 26.8346 19.5616 26.7499 19.5616 26.6531C19.5616 26.5563 19.5253 26.4716 19.4527 26.399C19.3801 26.3264 19.2954 26.2901 19.1986 26.2901C19.1018 26.2901 19.0171 26.3264 18.9445 26.399C18.8719 26.4716 18.8356 26.5563 18.8356 26.6531C18.8356 26.7499 18.8719 26.8346 18.9445 26.9072C19.0171 26.9798 19.1018 27.0161 19.1986 27.0161ZM22.4653 27.0161C22.5621 27.0161 22.6468 26.9798 22.7194 26.9072C22.792 26.8346 22.8283 26.7499 22.8283 26.6531C22.8283 26.5563 22.792 26.4716 22.7194 26.399C22.6468 26.3264 22.5621 26.2901 22.4653 26.2901C22.3685 26.2901 22.2838 26.3264 22.2112 26.399C22.1386 26.4716 22.1024 26.5563 22.1024 26.6531C22.1024 26.7499 22.1386 26.8346 22.2112 26.9072C22.2838 26.9798 22.3685 27.0161 22.4653 27.0161ZM28.0914 30.2828L25.1876 27.3791L26.2039 26.3446L27.3654 27.4879V24.4753H28.8173V27.4879L29.9788 26.3446L30.9951 27.3791L28.0914 30.2828Z" fill="#6CFF69"/>
</g>
<path d="M133.99 0.000175476H5.15354C2.31909 0.000175476 0 2.62542 0 5.83388V40.8359C0 44.0446 2.31909 46.6696 5.15354 46.6696H133.99C136.825 46.6696 139.144 44.0446 139.144 40.8359V5.83388C139.144 2.62542 136.825 0.000175476 133.99 0.000175476ZM133.99 0.933529C136.378 0.933529 138.319 3.13159 138.319 5.83388V40.8359C138.319 43.5381 136.378 45.7363 133.99 45.7363H5.15354C2.76638 45.7363 0.824552 43.5381 0.824552 40.8359V5.83388C0.824552 3.13159 2.76638 0.933529 5.15354 0.933529H133.99Z" fill="#11110F"/>
</svg>
