<svg width="161" height="47" viewBox="0 0 161 47" fill="none" xmlns="http://www.w3.org/2000/svg">
<mask id="mask0_4796_532" style="mask-type:luminance" maskUnits="userSpaceOnUse" x="0" y="0" width="161" height="47">
<path d="M0 -1.14441e-05H160.541V46.7247H0V-1.14441e-05Z" fill="white"/>
</mask>
<g mask="url(#mask0_4796_532)">
<path d="M154.595 46.7247H5.94604C2.67572 46.7247 0 44.0966 0 40.8841V5.84063C0 2.62812 2.67572 1.14441e-05 5.94604 1.14441e-05H154.595C157.865 1.14441e-05 160.541 2.62812 160.541 5.84063V40.8841C160.541 44.0966 157.865 46.7247 154.595 46.7247Z" fill="#100F0D"/>
<path d="M154.595 4.95911e-05H5.94604C2.67572 4.95911e-05 0 2.6284 0 5.84067V40.8842C0 44.0966 2.67572 46.7247 5.94604 46.7247H154.595C157.865 46.7247 160.541 44.0966 160.541 40.8842V5.84067C160.541 2.6284 157.865 4.95911e-05 154.595 4.95911e-05ZM154.595 0.934509C157.35 0.934509 159.59 3.13518 159.59 5.84067V40.8842C159.59 43.5896 157.35 45.7903 154.595 45.7903H5.94604C3.19179 45.7903 0.951351 43.5896 0.951351 40.8842V5.84067C0.951351 3.13518 3.19179 0.934509 5.94604 0.934509H154.595Z" fill="#121211"/>
<path d="M127.167 35.0436H129.386V20.4411H127.167V35.0436ZM147.154 25.7009L144.61 32.0322H144.534L141.894 25.7009H139.504L143.463 34.5495L141.206 39.472H143.52L149.622 25.7009H147.154ZM134.57 33.3849C133.842 33.3849 132.829 33.0275 132.829 32.1446C132.829 31.0172 134.091 30.5861 135.181 30.5861C136.156 30.5861 136.615 30.7929 137.209 31.0743C137.036 32.4272 135.851 33.3849 134.57 33.3849ZM134.838 25.3821C133.231 25.3821 131.566 26.0771 130.877 27.6167L132.848 28.4252C133.269 27.6167 134.053 27.3538 134.876 27.3538C136.023 27.3538 137.19 28.0303 137.209 29.2323V29.3829C136.807 29.1576 135.946 28.82 134.895 28.82C132.772 28.82 130.61 29.9659 130.61 32.1069C130.61 34.0613 132.351 35.3194 134.301 35.3194C135.794 35.3194 136.615 34.6628 137.133 33.8919H137.209V35.0192H139.351V29.4205C139.351 26.8283 137.381 25.3821 134.838 25.3821ZM121.124 27.4791H117.968V22.4723H121.124C122.783 22.4723 123.724 23.8228 123.724 24.9757C123.724 26.1076 122.783 27.4791 121.124 27.4791ZM121.067 20.4411H115.75V35.0436H117.968V29.5115H121.067C123.526 29.5115 125.944 27.7615 125.944 24.9757C125.944 22.1896 123.526 20.4411 121.067 20.4411ZM92.073 33.3873C90.5401 33.3873 89.2571 32.1269 89.2571 30.3957C89.2571 28.6459 90.5401 27.3655 92.073 27.3655C93.5867 27.3655 94.7736 28.6459 94.7736 30.3957C94.7736 32.1269 93.5867 33.3873 92.073 33.3873ZM94.6203 26.5187H94.5442C94.046 25.9358 93.0887 25.4078 91.8816 25.4078C89.352 25.4078 87.0343 27.5911 87.0343 30.3957C87.0343 33.1805 89.352 35.3451 91.8816 35.3451C93.0887 35.3451 94.046 34.8183 94.5442 34.2156H94.6203V34.9303C94.6203 36.832 93.5867 37.8472 91.9197 37.8472C90.559 37.8472 89.7161 36.8881 89.3711 36.0786L87.4364 36.8695C87.9916 38.187 89.4675 39.805 91.9197 39.805C94.5251 39.805 96.7287 38.2993 96.7287 34.63V25.7092H94.6203V26.5187ZM98.2603 35.0436H100.483V20.4399H98.2603V35.0436ZM103.759 30.2263C103.702 28.3059 105.273 27.3282 106.403 27.3282C107.285 27.3282 108.032 27.7605 108.28 28.382L103.759 30.2263ZM110.656 28.57C110.234 27.459 108.951 25.4078 106.327 25.4078C103.721 25.4078 101.557 27.4217 101.557 30.3771C101.557 33.1617 103.702 35.3451 106.575 35.3451C108.894 35.3451 110.234 33.9526 110.791 33.1432L109.066 32.0136C108.491 32.8417 107.706 33.3873 106.575 33.3873C105.446 33.3873 104.64 32.8791 104.123 31.8828L110.886 29.1341L110.656 28.57ZM56.7765 26.9335V29.0406H61.9104C61.7568 30.2263 61.3549 31.0919 60.7426 31.6934C59.9946 32.4282 58.8256 33.2367 56.7765 33.2367C53.6144 33.2367 51.1434 30.7345 51.1434 27.6285C51.1434 24.5236 53.6144 22.0215 56.7765 22.0215C58.4819 22.0215 59.7269 22.6791 60.6462 23.5259L62.1599 22.0402C60.8758 20.8358 59.1715 19.9131 56.7765 19.9131C52.4466 19.9131 48.8066 23.3765 48.8066 27.6285C48.8066 31.8828 52.4466 35.3451 56.7765 35.3451C59.1133 35.3451 60.8758 34.5915 62.2551 33.1805C63.6726 31.7881 64.114 29.8316 64.114 28.25C64.114 27.7605 64.0757 27.3096 63.9984 26.9335H56.7765ZM69.9504 33.3873C68.4188 33.3873 67.0964 32.1455 67.0964 30.3771C67.0964 28.5885 68.4188 27.3655 69.9504 27.3655C71.4832 27.3655 72.8056 28.5885 72.8056 30.3771C72.8056 32.1455 71.4832 33.3873 69.9504 33.3873ZM69.9504 25.4078C67.1533 25.4078 64.8737 27.4976 64.8737 30.3771C64.8737 33.2367 67.1533 35.3451 69.9504 35.3451C72.7474 35.3451 75.0283 33.2367 75.0283 30.3771C75.0283 27.4976 72.7474 25.4078 69.9504 25.4078ZM81.0265 33.3873C79.4936 33.3873 78.1713 32.1455 78.1713 30.3771C78.1713 28.5885 79.4936 27.3655 81.0265 27.3655C82.5596 27.3655 83.8807 28.5885 83.8807 30.3771C83.8807 32.1455 82.5596 33.3873 81.0265 33.3873ZM81.0265 25.4078C78.2297 25.4078 75.9498 27.4976 75.9498 30.3771C75.9498 33.2367 78.2297 35.3451 81.0265 35.3451C83.8235 35.3451 86.1031 33.2367 86.1031 30.3771C86.1031 27.4976 83.8235 25.4078 81.0265 25.4078Z" fill="white"/>
<path d="M24.6369 22.6901L11.9756 35.8901C11.9768 35.8923 11.9768 35.8959 11.978 35.8981C12.3668 37.3315 13.6987 38.3863 15.2803 38.3863C15.913 38.3863 16.5064 38.2181 17.0154 37.9237L17.0558 37.9003L31.3072 29.8228L24.6369 22.6901Z" fill="#EB3131"/>
<path d="M37.4444 20.4416L37.4324 20.4333L31.2794 16.9301L24.3477 22.9892L31.3043 29.8204L37.424 26.3523C38.4966 25.782 39.2257 24.6713 39.2257 23.391C39.2257 22.1177 38.5073 21.0128 37.4444 20.4416Z" fill="#F6B60B"/>
<path d="M11.9739 10.8363C11.8978 11.112 11.8574 11.4017 11.8574 11.7008V35.0258C11.8574 35.3249 11.8978 35.6145 11.9752 35.8891L25.0705 23.0268L11.9739 10.8363Z" fill="#5778C5"/>
<path d="M24.7309 23.3633L31.2833 16.928L17.0487 8.82129C16.5314 8.5164 15.9273 8.34137 15.2815 8.34137C13.7 8.34137 12.3657 9.39838 11.9768 10.8328C11.9768 10.834 11.9756 10.8352 11.9756 10.8364L24.7309 23.3633Z" fill="#3BAD49"/>
<path d="M51.3665 14.1886H49.7532V8.96066H51.438C51.9451 8.96066 52.3791 9.06532 52.7399 9.27464C53.1006 9.48226 53.3772 9.78093 53.5695 10.1706C53.7618 10.5587 53.8579 11.0232 53.8579 11.5644C53.8579 12.109 53.7609 12.5778 53.5669 12.971C53.3729 13.3624 53.0904 13.6636 52.7194 13.8746C52.3484 14.0839 51.8975 14.1886 51.3665 14.1886ZM50.3863 13.627H51.3257C51.7579 13.627 52.1161 13.5436 52.4003 13.3768C52.6845 13.2101 52.8964 12.9727 53.036 12.6646C53.1755 12.3566 53.2453 11.9899 53.2453 11.5644C53.2453 11.1424 53.1764 10.779 53.0385 10.4744C52.9007 10.1681 52.6948 9.93324 52.4208 9.76987C52.1468 9.60479 51.8056 9.52226 51.3971 9.52226H50.3863V13.627ZM58.4422 14.1886V8.96066H61.5973V9.52226H59.0753V11.2887H61.434V11.8503H59.0753V13.627H61.6382V14.1886H58.4422ZM69.1197 10.2676C69.0891 10.009 68.9649 9.80816 68.747 9.66521C68.5292 9.52226 68.262 9.45078 67.9455 9.45078C67.714 9.45078 67.5115 9.48822 67.3379 9.5631C67.1661 9.63798 67.0316 9.74094 66.9346 9.87198C66.8393 10.003 66.7917 10.1519 66.7917 10.3187C66.7917 10.4582 66.8249 10.5782 66.8912 10.6786C66.9593 10.7773 67.0461 10.8599 67.1516 10.9262C67.2571 10.9909 67.3677 11.0445 67.4834 11.0871C67.5992 11.1279 67.7055 11.1611 67.8025 11.1866L68.3335 11.3296C68.4696 11.3653 68.6211 11.4147 68.7879 11.4776C68.9564 11.5406 69.1172 11.6265 69.2703 11.7355C69.4252 11.8427 69.5528 11.9805 69.6532 12.149C69.7537 12.3175 69.8039 12.5242 69.8039 12.7693C69.8039 13.0518 69.7298 13.3071 69.5818 13.5351C69.4354 13.7631 69.221 13.9444 68.9385 14.0788C68.6577 14.2133 68.3165 14.2805 67.9149 14.2805C67.5405 14.2805 67.2163 14.2201 66.9423 14.0993C66.67 13.9784 66.4556 13.8099 66.299 13.5938C66.1441 13.3777 66.0565 13.1267 66.0361 12.8408H66.6896C66.7066 13.0382 66.7729 13.2016 66.8887 13.3309C67.0061 13.4585 67.1542 13.5538 67.3328 13.6168C67.5132 13.6781 67.7072 13.7087 67.9149 13.7087C68.1565 13.7087 68.3735 13.6695 68.5658 13.5913C68.7581 13.5113 68.9104 13.4007 69.0227 13.2594C69.135 13.1165 69.1912 12.9497 69.1912 12.7591C69.1912 12.5855 69.1427 12.4443 69.0457 12.3353C68.9487 12.2264 68.8211 12.1379 68.6628 12.0699C68.5045 12.0018 68.3335 11.9422 68.1497 11.8912L67.5064 11.7074C67.098 11.5899 66.7746 11.4223 66.5364 11.2045C66.2981 10.9867 66.179 10.7016 66.179 10.3493C66.179 10.0566 66.2582 9.80135 66.4164 9.58352C66.5764 9.36399 66.7908 9.19381 67.0597 9.07298C67.3303 8.95045 67.6324 8.88919 67.9659 8.88919C68.3029 8.88919 68.6024 8.9496 68.8645 9.07043C69.1265 9.18955 69.3342 9.35293 69.4873 9.56055C69.6422 9.76817 69.7239 10.0039 69.7324 10.2676H69.1197ZM78.5739 10.5944H77.9408C77.9034 10.4123 77.8379 10.2523 77.7443 10.1145C77.6524 9.97664 77.5401 9.86092 77.4073 9.76732C77.2763 9.67202 77.1308 9.60054 76.9708 9.55289C76.8108 9.50524 76.6441 9.48141 76.4705 9.48141C76.1539 9.48141 75.8672 9.5614 75.6102 9.72137C75.3549 9.88134 75.1516 10.117 75.0001 10.4285C74.8504 10.7399 74.7755 11.122 74.7755 11.5746C74.7755 12.0273 74.8504 12.4094 75.0001 12.7208C75.1516 13.0322 75.3549 13.2679 75.6102 13.4279C75.8672 13.5879 76.1539 13.6678 76.4705 13.6678C76.6441 13.6678 76.8108 13.644 76.9708 13.5964C77.1308 13.5487 77.2763 13.4781 77.4073 13.3845C77.5401 13.2892 77.6524 13.1726 77.7443 13.0348C77.8379 12.8952 77.9034 12.7353 77.9408 12.5549H78.5739C78.5263 12.8221 78.4395 13.0612 78.3135 13.2722C78.1876 13.4832 78.031 13.6627 77.8438 13.8108C77.6566 13.9572 77.4465 14.0686 77.2133 14.1452C76.9819 14.2218 76.7343 14.2601 76.4705 14.2601C76.0246 14.2601 75.6281 14.1512 75.2809 13.9333C74.9337 13.7155 74.6606 13.4058 74.4615 13.0041C74.2624 12.6025 74.1628 12.126 74.1628 11.5746C74.1628 11.0232 74.2624 10.5467 74.4615 10.1451C74.6606 9.74349 74.9337 9.43376 75.2809 9.21593C75.6281 8.9981 76.0246 8.88919 76.4705 8.88919C76.7343 8.88919 76.9819 8.92748 77.2133 9.00406C77.4465 9.08064 77.6566 9.19296 77.8438 9.34101C78.031 9.48737 78.1876 9.66606 78.3135 9.87708C78.4395 10.0864 78.5263 10.3255 78.5739 10.5944ZM83.3336 14.1886H82.6699L84.5896 8.96066H85.2431L87.1627 14.1886H86.499L84.9367 9.78774H84.8959L83.3336 14.1886ZM83.5787 12.1464H86.2539V12.708H83.5787V12.1464ZM91.4993 14.1886V8.96066H93.2658C93.6742 8.96066 94.0095 9.03044 94.2716 9.16998C94.5336 9.30783 94.7277 9.49758 94.8536 9.73924C94.9795 9.98089 95.0425 10.2557 95.0425 10.5638C95.0425 10.8718 94.9795 11.1449 94.8536 11.3832C94.7277 11.6214 94.5345 11.8086 94.2741 11.9448C94.0137 12.0792 93.681 12.1464 93.276 12.1464H91.8465V11.5746H93.2556C93.5347 11.5746 93.7593 11.5338 93.9295 11.4521C94.1014 11.3704 94.2256 11.2547 94.3022 11.1049C94.3805 10.9535 94.4196 10.7731 94.4196 10.5638C94.4196 10.3544 94.3805 10.1715 94.3022 10.0149C94.2239 9.85836 94.0988 9.73753 93.927 9.65244C93.7551 9.56565 93.5279 9.52226 93.2454 9.52226H92.1324V14.1886H91.4993ZM93.9601 11.8401L95.2467 14.1886H94.5115L93.2454 11.8401H93.9601ZM103.194 10.5944C103.137 10.4225 103.063 10.2685 102.971 10.1324C102.881 9.99451 102.773 9.87708 102.647 9.78008C102.523 9.68308 102.382 9.60905 102.223 9.55799C102.065 9.50694 101.892 9.48141 101.703 9.48141C101.393 9.48141 101.111 9.5614 100.858 9.72137C100.604 9.88134 100.403 10.117 100.253 10.4285C100.103 10.7399 100.028 11.122 100.028 11.5746C100.028 12.0273 100.104 12.4094 100.255 12.7208C100.407 13.0322 100.612 13.2679 100.871 13.4279C101.129 13.5879 101.42 13.6678 101.744 13.6678C102.043 13.6678 102.307 13.604 102.535 13.4764C102.765 13.3471 102.943 13.165 103.071 12.9301C103.2 12.6936 103.265 12.4153 103.265 12.0954L103.459 12.1362H101.887V11.5746H103.878V12.1362C103.878 12.5668 103.786 12.9412 103.602 13.2594C103.42 13.5777 103.168 13.8244 102.846 13.9997C102.526 14.1733 102.159 14.2601 101.744 14.2601C101.281 14.2601 100.874 14.1512 100.523 13.9333C100.175 13.7155 99.9022 13.4058 99.7065 13.0041C99.5125 12.6025 99.4155 12.126 99.4155 11.5746C99.4155 11.1611 99.4708 10.7892 99.5814 10.4591C99.6937 10.1272 99.852 9.84475 100.056 9.6116C100.26 9.37845 100.502 9.19977 100.781 9.07553C101.06 8.9513 101.367 8.88919 101.703 8.88919C101.978 8.88919 102.235 8.93088 102.474 9.01427C102.714 9.09595 102.927 9.21253 103.114 9.36399C103.303 9.51375 103.461 9.69329 103.587 9.90261C103.713 10.1102 103.799 10.3408 103.847 10.5944H103.194ZM108.537 14.1886H107.873L109.793 8.96066H110.447L112.366 14.1886H111.703L110.14 9.78774H110.099L108.537 14.1886ZM108.782 12.1464H111.457V12.708H108.782V12.1464ZM116.703 14.1886V8.96066H118.469C118.878 8.96066 119.213 9.03044 119.475 9.16998C119.737 9.30783 119.931 9.49758 120.057 9.73924C120.183 9.98089 120.246 10.2557 120.246 10.5638C120.246 10.8718 120.183 11.1449 120.057 11.3832C119.931 11.6214 119.738 11.8086 119.478 11.9448C119.217 12.0792 118.885 12.1464 118.48 12.1464H117.05V11.5746H118.459C118.738 11.5746 118.963 11.5338 119.133 11.4521C119.305 11.3704 119.429 11.2547 119.506 11.1049C119.584 10.9535 119.623 10.7731 119.623 10.5638C119.623 10.3544 119.584 10.1715 119.506 10.0149C119.427 9.85836 119.302 9.73753 119.13 9.65244C118.959 9.56565 118.731 9.52226 118.449 9.52226H117.336V14.1886H116.703ZM119.164 11.8401L120.45 14.1886H119.715L118.449 11.8401H119.164ZM130.367 14.1886V8.96066H133.522V9.52226H131V11.2887H133.359V11.8503H131V13.627H133.563V14.1886H130.367ZM142.331 8.96066V14.1886H141.719L138.87 10.0839H138.819V14.1886H138.186V8.96066H138.798L141.658 13.0756H141.709V8.96066H142.331Z" fill="white"/>
</g>
</svg>
