<svg width="144" height="34" viewBox="0 0 144 34" fill="none" xmlns="http://www.w3.org/2000/svg">
<rect width="34" height="34" rx="8" fill="url(#paint0_linear_9099_1710)"/>
<path d="M17.9744 27.2571C15.6257 27.4496 13.2833 26.8184 11.3493 25.4719C9.41526 24.1255 8.01031 22.1477 7.37561 19.8783C6.74091 17.6088 6.91607 15.1892 7.87099 13.0348C8.82592 10.8804 10.5011 9.12564 12.6088 8.07176C14.7166 7.01788 17.1255 6.73063 19.4219 7.25932C21.7184 7.78802 23.7592 9.09968 25.194 10.9691C26.6287 12.8385 27.3679 15.1491 27.2847 17.5042" stroke="url(#paint1_linear_9099_1710)" stroke-width="1.4795" stroke-linecap="round"/>
<path d="M18.4121 23.8731L21.3991 26.8692L27.2891 20.9512" stroke="url(#paint2_linear_9099_1710)" stroke-width="1.4795" stroke-linecap="round" stroke-linejoin="round"/>
<path d="M13.5537 12.2754H15.1426C15.7334 12.2755 16.2129 12.7548 16.2129 13.3457V14.9346C16.2128 15.5254 15.7334 16.0048 15.1426 16.0049H13.5537C12.9628 16.0049 12.4835 15.5254 12.4834 14.9346V13.3457C12.4834 12.7548 12.9628 12.2754 13.5537 12.2754Z" stroke="white" stroke-width="1.03757"/>
<path d="M19.165 12.2754H20.7539C21.3448 12.2755 21.8242 12.7548 21.8242 13.3457V14.9346C21.8241 15.5254 21.3447 16.0048 20.7539 16.0049H19.165C18.5742 16.0049 18.0948 15.5254 18.0947 14.9346V13.3457C18.0947 12.7548 18.5741 12.2754 19.165 12.2754Z" stroke="white" stroke-width="1.03757"/>
<path d="M13.5537 17.8877H15.1426C15.7334 17.8878 16.2129 18.3671 16.2129 18.958V20.5469C16.2128 21.1377 15.7334 21.6171 15.1426 21.6172H13.5537C12.9628 21.6172 12.4835 21.1377 12.4834 20.5469V18.958C12.4834 18.3671 12.9628 17.8877 13.5537 17.8877Z" stroke="white" stroke-width="1.03757"/>
<path d="M19.165 17.8877H20.7539C21.3448 17.8878 21.8242 18.3671 21.8242 18.958V20.5469C21.8241 21.1377 21.3447 21.6171 20.7539 21.6172H19.165C18.5742 21.6172 18.0948 21.1377 18.0947 20.5469V18.958C18.0947 18.3671 18.5741 17.8877 19.165 17.8877Z" stroke="white" stroke-width="1.03757"/>
<path d="M44.642 22.5H42.392L46.4886 10.8636H49.0909L53.1932 22.5H50.9432L47.8352 13.25H47.7443L44.642 22.5ZM44.7159 17.9375H50.8523V19.6307H44.7159V17.9375ZM58.3361 22.6705C57.4649 22.6705 56.7168 22.4792 56.0918 22.0966C55.4706 21.714 54.9914 21.1856 54.6543 20.5114C54.321 19.8333 54.1543 19.053 54.1543 18.1705C54.1543 17.2841 54.3248 16.5019 54.6657 15.8239C55.0066 15.142 55.4877 14.6117 56.1089 14.233C56.7339 13.8504 57.4725 13.6591 58.3248 13.6591C59.0331 13.6591 59.66 13.7898 60.2055 14.0511C60.7547 14.3087 61.1922 14.6742 61.518 15.1477C61.8437 15.6174 62.0293 16.1667 62.0748 16.7955H60.1089C60.0293 16.375 59.8399 16.0246 59.5407 15.7443C59.2452 15.4602 58.8494 15.3182 58.3532 15.3182C57.9327 15.3182 57.5634 15.4318 57.2452 15.6591C56.927 15.8826 56.6789 16.2045 56.5009 16.625C56.3267 17.0455 56.2395 17.5492 56.2395 18.1364C56.2395 18.7311 56.3267 19.2424 56.5009 19.6705C56.6752 20.0947 56.9195 20.4223 57.2339 20.6534C57.552 20.8807 57.9252 20.9943 58.3532 20.9943C58.6562 20.9943 58.927 20.9375 59.1657 20.8239C59.4081 20.7064 59.6108 20.5379 59.7736 20.3182C59.9365 20.0985 60.0483 19.8314 60.1089 19.517H62.0748C62.0255 20.1345 61.8437 20.6818 61.5293 21.1591C61.2149 21.6326 60.7869 22.0038 60.2452 22.2727C59.7036 22.5379 59.0672 22.6705 58.3361 22.6705ZM68.2816 13.7727V15.3636H63.2646V13.7727H68.2816ZM64.5032 11.6818H66.5601V19.875C66.5601 20.1515 66.6017 20.3636 66.6851 20.5114C66.7722 20.6553 66.8858 20.7538 67.026 20.8068C67.1661 20.8598 67.3214 20.8864 67.4919 20.8864C67.6207 20.8864 67.7381 20.8769 67.8441 20.858C67.954 20.839 68.0373 20.822 68.0941 20.8068L68.4407 22.4148C68.3309 22.4527 68.1737 22.4943 67.9691 22.5398C67.7684 22.5852 67.5222 22.6117 67.2305 22.6193C66.7154 22.6345 66.2513 22.5568 65.8385 22.3864C65.4256 22.2121 65.0979 21.9432 64.8555 21.5795C64.6169 21.2159 64.4995 20.7614 64.5032 20.2159V11.6818ZM70.1618 22.5V13.7727H72.2186V22.5H70.1618ZM71.1959 12.5341C70.8702 12.5341 70.5898 12.4261 70.355 12.2102C70.1202 11.9905 70.0027 11.7273 70.0027 11.4205C70.0027 11.1098 70.1202 10.8466 70.355 10.6307C70.5898 10.411 70.8702 10.3011 71.1959 10.3011C71.5255 10.3011 71.8058 10.411 72.0368 10.6307C72.2717 10.8466 72.3891 11.1098 72.3891 11.4205C72.3891 11.7273 72.2717 11.9905 72.0368 12.2102C71.8058 12.4261 71.5255 12.5341 71.1959 12.5341ZM82.2891 13.7727L79.1812 22.5H76.9085L73.8005 13.7727H75.9937L77.9994 20.2557H78.0903L80.1016 13.7727H82.2891ZM86.1338 22.6761C85.5808 22.6761 85.0827 22.5777 84.6395 22.3807C84.2001 22.1799 83.8516 21.8845 83.594 21.4943C83.3402 21.1042 83.2134 20.6231 83.2134 20.0511C83.2134 19.5587 83.3043 19.1515 83.4861 18.8295C83.6679 18.5076 83.916 18.25 84.2304 18.0568C84.5448 17.8636 84.899 17.7178 85.2929 17.6193C85.6906 17.517 86.1016 17.4432 86.5259 17.3977C87.0372 17.3447 87.452 17.2973 87.7702 17.2557C88.0884 17.2102 88.3194 17.142 88.4634 17.0511C88.6111 16.9564 88.6849 16.8106 88.6849 16.6136V16.5795C88.6849 16.1515 88.558 15.8201 88.3043 15.5852C88.0505 15.3504 87.6849 15.233 87.2077 15.233C86.7039 15.233 86.3043 15.3428 86.0088 15.5625C85.7171 15.7822 85.5202 16.0417 85.4179 16.3409L83.4974 16.0682C83.649 15.5379 83.899 15.0947 84.2474 14.7386C84.5959 14.3788 85.0221 14.1098 85.5259 13.9318C86.0296 13.75 86.5865 13.6591 87.1963 13.6591C87.6168 13.6591 88.0353 13.7083 88.452 13.8068C88.8687 13.9053 89.2493 14.0682 89.594 14.2955C89.9387 14.5189 90.2152 14.8239 90.4236 15.2102C90.6357 15.5966 90.7418 16.0795 90.7418 16.6591V22.5H88.7645V21.3011H88.6963C88.5713 21.5436 88.3952 21.7708 88.1679 21.983C87.9444 22.1913 87.6622 22.3598 87.3213 22.4886C86.9842 22.6136 86.5884 22.6761 86.1338 22.6761ZM86.6679 21.1648C87.0808 21.1648 87.4387 21.0833 87.7418 20.9205C88.0448 20.7538 88.2777 20.5341 88.4406 20.2614C88.6073 19.9886 88.6906 19.6913 88.6906 19.3693V18.3409C88.6262 18.3939 88.5164 18.4432 88.3611 18.4886C88.2096 18.5341 88.0391 18.5739 87.8497 18.608C87.6603 18.642 87.4728 18.6723 87.2872 18.6989C87.1016 18.7254 86.9406 18.7481 86.8043 18.767C86.4974 18.8087 86.2228 18.8769 85.9804 18.9716C85.738 19.0663 85.5467 19.1989 85.4065 19.3693C85.2664 19.536 85.1963 19.7519 85.1963 20.017C85.1963 20.3958 85.3346 20.6818 85.6111 20.875C85.8876 21.0682 86.2399 21.1648 86.6679 21.1648ZM92.9699 22.5V13.7727H94.9643V15.2273H95.0552C95.2143 14.7235 95.487 14.3352 95.8734 14.0625C96.2635 13.786 96.7086 13.6477 97.2086 13.6477C97.3222 13.6477 97.4491 13.6534 97.5893 13.6648C97.7332 13.6723 97.8525 13.6856 97.9472 13.7045V15.5966C97.8601 15.5663 97.7218 15.5398 97.5324 15.517C97.3468 15.4905 97.1669 15.4773 96.9927 15.4773C96.6177 15.4773 96.2805 15.5587 95.9813 15.7216C95.6859 15.8807 95.4529 16.1023 95.2824 16.3864C95.112 16.6705 95.0268 16.9981 95.0268 17.3693V22.5H92.9699ZM105.188 22.5H102.938L107.034 10.8636H109.637L113.739 22.5H111.489L108.381 13.25H108.29L105.188 22.5ZM105.262 17.9375H111.398V19.6307H105.262V17.9375ZM115.341 25.7727V13.7727H117.363V15.2159H117.483C117.589 15.0038 117.738 14.7784 117.931 14.5398C118.125 14.2973 118.386 14.0909 118.716 13.9205C119.045 13.7462 119.466 13.6591 119.977 13.6591C120.651 13.6591 121.259 13.8314 121.801 14.1761C122.346 14.517 122.778 15.0227 123.096 15.6932C123.418 16.3598 123.579 17.178 123.579 18.1477C123.579 19.1061 123.422 19.9205 123.108 20.5909C122.793 21.2614 122.365 21.7727 121.824 22.125C121.282 22.4773 120.668 22.6534 119.983 22.6534C119.483 22.6534 119.068 22.5701 118.738 22.4034C118.409 22.2367 118.144 22.036 117.943 21.8011C117.746 21.5625 117.592 21.3371 117.483 21.125H117.397V25.7727H115.341ZM117.358 18.1364C117.358 18.7008 117.437 19.1951 117.596 19.6193C117.759 20.0436 117.992 20.375 118.295 20.6136C118.602 20.8485 118.973 20.9659 119.409 20.9659C119.863 20.9659 120.244 20.8447 120.551 20.6023C120.858 20.3561 121.089 20.0208 121.244 19.5966C121.403 19.1686 121.483 18.6818 121.483 18.1364C121.483 17.5947 121.405 17.1136 121.25 16.6932C121.094 16.2727 120.863 15.9432 120.556 15.7045C120.25 15.4659 119.867 15.3466 119.409 15.3466C118.969 15.3466 118.596 15.4621 118.289 15.6932C117.983 15.9242 117.75 16.2481 117.591 16.6648C117.435 17.0814 117.358 17.572 117.358 18.1364ZM125.501 25.7727V13.7727H127.523V15.2159H127.643C127.749 15.0038 127.898 14.7784 128.091 14.5398C128.285 14.2973 128.546 14.0909 128.876 13.9205C129.205 13.7462 129.626 13.6591 130.137 13.6591C130.811 13.6591 131.419 13.8314 131.961 14.1761C132.506 14.517 132.938 15.0227 133.256 15.6932C133.578 16.3598 133.739 17.178 133.739 18.1477C133.739 19.1061 133.582 19.9205 133.268 20.5909C132.953 21.2614 132.525 21.7727 131.984 22.125C131.442 22.4773 130.828 22.6534 130.143 22.6534C129.643 22.6534 129.228 22.5701 128.898 22.4034C128.569 22.2367 128.304 22.036 128.103 21.8011C127.906 21.5625 127.752 21.3371 127.643 21.125H127.557V25.7727H125.501ZM127.518 18.1364C127.518 18.7008 127.597 19.1951 127.756 19.6193C127.919 20.0436 128.152 20.375 128.455 20.6136C128.762 20.8485 129.133 20.9659 129.569 20.9659C130.023 20.9659 130.404 20.8447 130.711 20.6023C131.018 20.3561 131.249 20.0208 131.404 19.5966C131.563 19.1686 131.643 18.6818 131.643 18.1364C131.643 17.5947 131.565 17.1136 131.41 16.6932C131.254 16.2727 131.023 15.9432 130.716 15.7045C130.41 15.4659 130.027 15.3466 129.569 15.3466C129.129 15.3466 128.756 15.4621 128.449 15.6932C128.143 15.9242 127.91 16.2481 127.751 16.6648C127.595 17.0814 127.518 17.572 127.518 18.1364ZM142.558 16.0795L140.683 16.2841C140.63 16.0947 140.537 15.9167 140.405 15.75C140.276 15.5833 140.102 15.4489 139.882 15.3466C139.662 15.2443 139.394 15.1932 139.075 15.1932C138.647 15.1932 138.287 15.286 137.996 15.4716C137.708 15.6572 137.566 15.8977 137.57 16.1932C137.566 16.447 137.659 16.6534 137.848 16.8125C138.041 16.9716 138.359 17.1023 138.803 17.2045L140.291 17.5227C141.117 17.7008 141.731 17.983 142.132 18.3693C142.537 18.7557 142.742 19.2614 142.746 19.8864C142.742 20.4356 142.581 20.9205 142.263 21.3409C141.948 21.7576 141.511 22.0833 140.95 22.3182C140.39 22.553 139.746 22.6705 139.019 22.6705C137.95 22.6705 137.09 22.447 136.439 22C135.787 21.5492 135.399 20.9223 135.274 20.1193L137.28 19.9261C137.371 20.3201 137.564 20.6174 137.859 20.8182C138.155 21.0189 138.539 21.1193 139.013 21.1193C139.501 21.1193 139.894 21.0189 140.189 20.8182C140.488 20.6174 140.638 20.3693 140.638 20.0739C140.638 19.8239 140.541 19.6174 140.348 19.4545C140.159 19.2917 139.863 19.1667 139.462 19.0795L137.973 18.767C137.136 18.5928 136.517 18.2992 136.115 17.8864C135.714 17.4697 135.515 16.9432 135.519 16.3068C135.515 15.7689 135.661 15.303 135.956 14.9091C136.255 14.5114 136.67 14.2045 137.2 13.9886C137.734 13.7689 138.35 13.6591 139.047 13.6591C140.07 13.6591 140.875 13.8769 141.462 14.3125C142.053 14.7481 142.418 15.3371 142.558 16.0795Z" fill="white"/>
<defs>
<linearGradient id="paint0_linear_9099_1710" x1="17" y1="34" x2="17" y2="0" gradientUnits="userSpaceOnUse">
<stop offset="0.35" stop-color="#085D77"/>
<stop offset="1" stop-color="#0092BE"/>
</linearGradient>
<linearGradient id="paint1_linear_9099_1710" x1="27.291" y1="27.291" x2="-5167.03" y2="-5167.03" gradientUnits="userSpaceOnUse">
<stop stop-color="#22D3EE"/>
<stop offset="1" stop-color="#2563EB"/>
</linearGradient>
<linearGradient id="paint2_linear_9099_1710" x1="18.4119" y1="19.8786" x2="1701.69" y2="2417.29" gradientUnits="userSpaceOnUse">
<stop stop-color="#22D3EE"/>
<stop offset="1" stop-color="#2563EB"/>
</linearGradient>
</defs>
</svg>
