<svg xmlns="http://www.w3.org/2000/svg" xmlns:xlink="http://www.w3.org/1999/xlink" width="500" zoomAndPan="magnify" viewBox="0 0 375 112.499997" height="150" preserveAspectRatio="xMidYMid meet" version="1.0"><defs><g/><clipPath id="27c23720a8"><path d="M 14.097656 13.367188 L 99.21875 13.367188 L 99.21875 98.488281 L 14.097656 98.488281 Z M 14.097656 13.367188 " clip-rule="nonzero"/></clipPath><clipPath id="5f887ee0be"><path d="M 14.097656 28.644531 C 14.097656 20.207031 20.9375 13.367188 29.375 13.367188 C 47.5625 13.367188 65.753906 13.367188 83.941406 13.367188 C 92.378906 13.367188 99.21875 20.207031 99.21875 28.644531 C 99.21875 46.835938 99.21875 65.023438 99.21875 83.210938 C 99.21875 91.648438 92.378906 98.488281 83.941406 98.488281 C 65.753906 98.488281 47.5625 98.488281 29.375 98.488281 C 20.9375 98.488281 14.097656 91.648438 14.097656 83.210938 C 14.097656 65.023438 14.097656 46.835938 14.097656 28.644531 Z M 14.097656 28.644531 " clip-rule="evenodd"/></clipPath><linearGradient x1="39" gradientTransform="matrix(1.091303, 0, 0, 1.091303, 14.097438, 13.368061)" y1="77.999998" x2="39" gradientUnits="userSpaceOnUse" y2="-0.0000025904" id="eeea64dca7"><stop stop-opacity="1" stop-color="rgb(3.138733%, 36.468506%, 46.669006%)" offset="0"/><stop stop-opacity="1" stop-color="rgb(3.138733%, 36.468506%, 46.669006%)" offset="0.25"/><stop stop-opacity="1" stop-color="rgb(3.138733%, 36.468506%, 46.669006%)" offset="0.3125"/><stop stop-opacity="1" stop-color="rgb(3.138733%, 36.468506%, 46.669006%)" offset="0.34375"/><stop stop-opacity="1" stop-color="rgb(3.134155%, 36.49292%, 46.702576%)" offset="0.351562"/><stop stop-opacity="1" stop-color="rgb(3.112793%, 36.643982%, 46.902466%)" offset="0.359375"/><stop stop-opacity="1" stop-color="rgb(3.074646%, 36.894226%, 47.238159%)" offset="0.367187"/><stop stop-opacity="1" stop-color="rgb(3.036499%, 37.142944%, 47.572327%)" offset="0.375"/><stop stop-opacity="1" stop-color="rgb(2.998352%, 37.393188%, 47.906494%)" offset="0.382812"/><stop stop-opacity="1" stop-color="rgb(2.961731%, 37.643433%, 48.240662%)" offset="0.390625"/><stop stop-opacity="1" stop-color="rgb(2.923584%, 37.892151%, 48.576355%)" offset="0.398437"/><stop stop-opacity="1" stop-color="rgb(2.885437%, 38.142395%, 48.910522%)" offset="0.40625"/><stop stop-opacity="1" stop-color="rgb(2.848816%, 38.392639%, 49.24469%)" offset="0.414062"/><stop stop-opacity="1" stop-color="rgb(2.810669%, 38.641357%, 49.580383%)" offset="0.421875"/><stop stop-opacity="1" stop-color="rgb(2.772522%, 38.891602%, 49.914551%)" offset="0.429687"/><stop stop-opacity="1" stop-color="rgb(2.734375%, 39.141846%, 50.248718%)" offset="0.4375"/><stop stop-opacity="1" stop-color="rgb(2.697754%, 39.390564%, 50.584412%)" offset="0.445312"/><stop stop-opacity="1" stop-color="rgb(2.659607%, 39.640808%, 50.918579%)" offset="0.453125"/><stop stop-opacity="1" stop-color="rgb(2.62146%, 39.891052%, 51.252747%)" offset="0.460937"/><stop stop-opacity="1" stop-color="rgb(2.583313%, 40.139771%, 51.586914%)" offset="0.46875"/><stop stop-opacity="1" stop-color="rgb(2.546692%, 40.390015%, 51.922607%)" offset="0.476562"/><stop stop-opacity="1" stop-color="rgb(2.508545%, 40.640259%, 52.256775%)" offset="0.484375"/><stop stop-opacity="1" stop-color="rgb(2.470398%, 40.890503%, 52.590942%)" offset="0.492187"/><stop stop-opacity="1" stop-color="rgb(2.432251%, 41.139221%, 52.926636%)" offset="0.5"/><stop stop-opacity="1" stop-color="rgb(2.39563%, 41.389465%, 53.260803%)" offset="0.507812"/><stop stop-opacity="1" stop-color="rgb(2.357483%, 41.639709%, 53.594971%)" offset="0.515625"/><stop stop-opacity="1" stop-color="rgb(2.319336%, 41.888428%, 53.929138%)" offset="0.523437"/><stop stop-opacity="1" stop-color="rgb(2.282715%, 42.138672%, 54.264832%)" offset="0.53125"/><stop stop-opacity="1" stop-color="rgb(2.244568%, 42.388916%, 54.598999%)" offset="0.539062"/><stop stop-opacity="1" stop-color="rgb(2.206421%, 42.637634%, 54.933167%)" offset="0.546875"/><stop stop-opacity="1" stop-color="rgb(2.168274%, 42.887878%, 55.26886%)" offset="0.554687"/><stop stop-opacity="1" stop-color="rgb(2.131653%, 43.138123%, 55.603027%)" offset="0.5625"/><stop stop-opacity="1" stop-color="rgb(2.093506%, 43.386841%, 55.937195%)" offset="0.570312"/><stop stop-opacity="1" stop-color="rgb(2.055359%, 43.637085%, 56.272888%)" offset="0.578125"/><stop stop-opacity="1" stop-color="rgb(2.017212%, 43.887329%, 56.607056%)" offset="0.585937"/><stop stop-opacity="1" stop-color="rgb(1.980591%, 44.136047%, 56.941223%)" offset="0.59375"/><stop stop-opacity="1" stop-color="rgb(1.942444%, 44.386292%, 57.275391%)" offset="0.601562"/><stop stop-opacity="1" stop-color="rgb(1.904297%, 44.636536%, 57.611084%)" offset="0.609375"/><stop stop-opacity="1" stop-color="rgb(1.86615%, 44.885254%, 57.945251%)" offset="0.617187"/><stop stop-opacity="1" stop-color="rgb(1.829529%, 45.135498%, 58.279419%)" offset="0.625"/><stop stop-opacity="1" stop-color="rgb(1.791382%, 45.385742%, 58.615112%)" offset="0.632812"/><stop stop-opacity="1" stop-color="rgb(1.753235%, 45.63446%, 58.94928%)" offset="0.640625"/><stop stop-opacity="1" stop-color="rgb(1.716614%, 45.884705%, 59.283447%)" offset="0.648438"/><stop stop-opacity="1" stop-color="rgb(1.678467%, 46.134949%, 59.617615%)" offset="0.65625"/><stop stop-opacity="1" stop-color="rgb(1.64032%, 46.385193%, 59.953308%)" offset="0.664062"/><stop stop-opacity="1" stop-color="rgb(1.602173%, 46.633911%, 60.287476%)" offset="0.671875"/><stop stop-opacity="1" stop-color="rgb(1.565552%, 46.884155%, 60.621643%)" offset="0.679688"/><stop stop-opacity="1" stop-color="rgb(1.527405%, 47.134399%, 60.957336%)" offset="0.6875"/><stop stop-opacity="1" stop-color="rgb(1.489258%, 47.383118%, 61.291504%)" offset="0.695312"/><stop stop-opacity="1" stop-color="rgb(1.451111%, 47.633362%, 61.625671%)" offset="0.703125"/><stop stop-opacity="1" stop-color="rgb(1.41449%, 47.883606%, 61.961365%)" offset="0.710937"/><stop stop-opacity="1" stop-color="rgb(1.376343%, 48.132324%, 62.295532%)" offset="0.71875"/><stop stop-opacity="1" stop-color="rgb(1.338196%, 48.382568%, 62.6297%)" offset="0.726562"/><stop stop-opacity="1" stop-color="rgb(1.300049%, 48.632812%, 62.963867%)" offset="0.734375"/><stop stop-opacity="1" stop-color="rgb(1.263428%, 48.881531%, 63.299561%)" offset="0.742187"/><stop stop-opacity="1" stop-color="rgb(1.225281%, 49.131775%, 63.633728%)" offset="0.75"/><stop stop-opacity="1" stop-color="rgb(1.187134%, 49.382019%, 63.967896%)" offset="0.757812"/><stop stop-opacity="1" stop-color="rgb(1.150513%, 49.630737%, 64.303589%)" offset="0.765625"/><stop stop-opacity="1" stop-color="rgb(1.112366%, 49.880981%, 64.637756%)" offset="0.773437"/><stop stop-opacity="1" stop-color="rgb(1.074219%, 50.131226%, 64.971924%)" offset="0.78125"/><stop stop-opacity="1" stop-color="rgb(1.036072%, 50.379944%, 65.306091%)" offset="0.789062"/><stop stop-opacity="1" stop-color="rgb(0.999451%, 50.630188%, 65.641785%)" offset="0.796875"/><stop stop-opacity="1" stop-color="rgb(0.961304%, 50.880432%, 65.975952%)" offset="0.804687"/><stop stop-opacity="1" stop-color="rgb(0.923157%, 51.12915%, 66.31012%)" offset="0.8125"/><stop stop-opacity="1" stop-color="rgb(0.88501%, 51.379395%, 66.645813%)" offset="0.820312"/><stop stop-opacity="1" stop-color="rgb(0.848389%, 51.629639%, 66.97998%)" offset="0.828125"/><stop stop-opacity="1" stop-color="rgb(0.810242%, 51.879883%, 67.314148%)" offset="0.835937"/><stop stop-opacity="1" stop-color="rgb(0.772095%, 52.128601%, 67.649841%)" offset="0.84375"/><stop stop-opacity="1" stop-color="rgb(0.733948%, 52.378845%, 67.984009%)" offset="0.851562"/><stop stop-opacity="1" stop-color="rgb(0.697327%, 52.629089%, 68.318176%)" offset="0.859375"/><stop stop-opacity="1" stop-color="rgb(0.65918%, 52.877808%, 68.652344%)" offset="0.867187"/><stop stop-opacity="1" stop-color="rgb(0.621033%, 53.128052%, 68.988037%)" offset="0.875"/><stop stop-opacity="1" stop-color="rgb(0.584412%, 53.378296%, 69.322205%)" offset="0.882812"/><stop stop-opacity="1" stop-color="rgb(0.546265%, 53.627014%, 69.656372%)" offset="0.890625"/><stop stop-opacity="1" stop-color="rgb(0.508118%, 53.877258%, 69.992065%)" offset="0.898438"/><stop stop-opacity="1" stop-color="rgb(0.469971%, 54.127502%, 70.326233%)" offset="0.90625"/><stop stop-opacity="1" stop-color="rgb(0.43335%, 54.376221%, 70.6604%)" offset="0.914062"/><stop stop-opacity="1" stop-color="rgb(0.395203%, 54.626465%, 70.994568%)" offset="0.921875"/><stop stop-opacity="1" stop-color="rgb(0.357056%, 54.876709%, 71.330261%)" offset="0.929688"/><stop stop-opacity="1" stop-color="rgb(0.318909%, 55.125427%, 71.664429%)" offset="0.9375"/><stop stop-opacity="1" stop-color="rgb(0.282288%, 55.375671%, 71.998596%)" offset="0.945312"/><stop stop-opacity="1" stop-color="rgb(0.244141%, 55.625916%, 72.33429%)" offset="0.953125"/><stop stop-opacity="1" stop-color="rgb(0.205994%, 55.874634%, 72.668457%)" offset="0.960937"/><stop stop-opacity="1" stop-color="rgb(0.167847%, 56.124878%, 73.002625%)" offset="0.96875"/><stop stop-opacity="1" stop-color="rgb(0.131226%, 56.375122%, 73.336792%)" offset="0.976562"/><stop stop-opacity="1" stop-color="rgb(0.0930786%, 56.62384%, 73.672485%)" offset="0.984375"/><stop stop-opacity="1" stop-color="rgb(0.0549316%, 56.874084%, 74.006653%)" offset="0.992187"/><stop stop-opacity="1" stop-color="rgb(0.0183105%, 57.124329%, 74.34082%)" offset="1"/></linearGradient><clipPath id="1101cec3dc"><path d="M 14.097656 13.367188 L 99.21875 13.367188 L 99.21875 98.488281 L 14.097656 98.488281 Z M 14.097656 13.367188 " clip-rule="nonzero"/></clipPath><linearGradient x1="64.24055" gradientTransform="matrix(1, 0, 0, 1, 0.000000324116, 0.0000025904)" y1="64.24055" x2="13.420299" gradientUnits="userSpaceOnUse" y2="13.420299" id="b0075f6926"><stop stop-opacity="1" stop-color="rgb(13.328552%, 82.749939%, 93.328857%)" offset="0"/><stop stop-opacity="1" stop-color="rgb(13.330078%, 82.705688%, 93.327332%)" offset="0.498963"/><stop stop-opacity="1" stop-color="rgb(13.331604%, 82.662964%, 93.327332%)" offset="0.5"/><stop stop-opacity="1" stop-color="rgb(13.33313%, 82.615662%, 93.325806%)" offset="0.501037"/><stop stop-opacity="1" stop-color="rgb(13.334656%, 82.569885%, 93.32428%)" offset="1"/></linearGradient><linearGradient x1="41.70478" gradientTransform="matrix(1, 0, 0, 1, 0.000000324116, 0.0000025904)" y1="44.981417" x2="57.530897" gradientUnits="userSpaceOnUse" y2="67.521803" id="e27e4c34ff"><stop stop-opacity="1" stop-color="rgb(13.328552%, 82.749939%, 93.328857%)" offset="0"/><stop stop-opacity="1" stop-color="rgb(13.330078%, 82.705688%, 93.327332%)" offset="0.495707"/><stop stop-opacity="1" stop-color="rgb(13.331604%, 82.661438%, 93.327332%)" offset="0.5"/><stop stop-opacity="1" stop-color="rgb(13.33313%, 82.615662%, 93.325806%)" offset="0.504293"/><stop stop-opacity="1" stop-color="rgb(13.334656%, 82.571411%, 93.32428%)" offset="1"/></linearGradient><clipPath id="85667e48b0"><rect x="0" width="257" y="0" height="70"/></clipPath></defs><g clip-path="url(#27c23720a8)"><g clip-path="url(#5f887ee0be)"><path fill="url(#eeea64dca7)" d="M 14.097656 13.367188 L 14.097656 98.488281 L 99.21875 98.488281 L 99.21875 13.367188 Z M 14.097656 13.367188 " fill-rule="nonzero"/></g></g><path fill="#7f94fa" d="M 62.601562 47.507812 C 62.613281 47.988281 62.671875 48.460938 62.777344 48.925781 C 62.40625 48.484375 62.347656 48.011719 62.601562 47.507812 Z M 62.601562 47.507812 " fill-opacity="1" fill-rule="evenodd"/><path fill="#758cfa" d="M 37.59375 49.101562 C 37.492188 49.929688 37.257812 50.699219 36.882812 51.40625 C 36.980469 50.578125 37.21875 49.8125 37.59375 49.101562 Z M 37.59375 49.101562 " fill-opacity="1" fill-rule="evenodd"/><path fill="#758cfa" d="M 75.542969 49.101562 C 75.917969 49.8125 76.152344 50.578125 76.253906 51.40625 C 75.878906 50.699219 75.640625 49.929688 75.542969 49.101562 Z M 75.542969 49.101562 " fill-opacity="1" fill-rule="evenodd"/><path fill="#a9b7fa" d="M 33.867188 48.921875 C 33.882812 49.394531 33.765625 49.808594 33.511719 50.164062 C 33.496094 49.695312 33.613281 49.28125 33.867188 48.921875 Z M 33.867188 48.921875 " fill-opacity="1" fill-rule="evenodd"/><path fill="#a9b8fa" d="M 79.265625 48.921875 C 79.519531 49.28125 79.636719 49.695312 79.621094 50.164062 C 79.367188 49.808594 79.25 49.394531 79.265625 48.921875 Z M 79.265625 48.921875 " fill-opacity="1" fill-rule="evenodd"/><path fill="#bcc7fa" d="M 68.453125 51.230469 C 68.828125 51.9375 69.0625 52.707031 69.164062 53.535156 C 68.789062 52.824219 68.550781 52.054688 68.453125 51.230469 Z M 68.453125 51.230469 " fill-opacity="1" fill-rule="evenodd"/><path fill="#9dadfa" d="M 44.332031 52.292969 C 44.347656 52.765625 44.230469 53.179688 43.976562 53.535156 C 43.960938 53.066406 44.078125 52.652344 44.332031 52.292969 Z M 44.332031 52.292969 " fill-opacity="1" fill-rule="evenodd"/><path fill="#95a6fa" d="M 47.878906 52.828125 C 47.894531 53.296875 47.777344 53.710938 47.523438 54.070312 C 47.507812 53.597656 47.625 53.183594 47.878906 52.828125 Z M 47.878906 52.828125 " fill-opacity="1" fill-rule="evenodd"/><path fill="#91a6fa" d="M 65.257812 52.828125 C 65.511719 53.183594 65.628906 53.597656 65.613281 54.070312 C 65.359375 53.710938 65.242188 53.296875 65.257812 52.828125 Z M 65.257812 52.828125 " fill-opacity="1" fill-rule="evenodd"/><path fill="#9aabfa" d="M 47.523438 57.4375 C 47.722656 57.808594 47.839844 58.222656 47.878906 58.675781 C 47.585938 58.332031 47.464844 57.917969 47.523438 57.4375 Z M 47.523438 57.4375 " fill-opacity="1" fill-rule="evenodd"/><g clip-path="url(#1101cec3dc)"><path stroke-linecap="round" transform="matrix(1.091303, 0, 0, 1.091303, 14.097437, 13.368058)" fill="none" stroke-linejoin="miter" d="M 40.898826 62.195467 C 35.511776 62.635737 30.139044 61.189645 25.700545 58.100593 C 21.265624 55.01154 18.040553 50.472817 16.583723 45.268318 C 15.130473 40.06024 15.531369 34.512115 17.721984 29.568916 C 19.912598 24.625716 23.756911 20.598851 28.589149 18.182732 C 33.424966 15.763034 38.951613 15.104418 44.220542 16.317847 C 49.48947 17.531275 54.171371 20.54158 57.460872 24.829743 C 60.753953 29.117907 62.450605 34.41905 62.257315 39.820418 " stroke="url(#b0075f6926)" stroke-width="3.394" stroke-miterlimit="4"/></g><path stroke-linecap="round" transform="matrix(1.091303, 0, 0, 1.091303, 14.097437, 13.368058)" fill="none" stroke-linejoin="round" d="M 41.904647 54.431672 L 48.759266 61.304187 L 62.271633 47.72739 " stroke="url(#e27e4c34ff)" stroke-width="3.394" stroke-miterlimit="4"/><path stroke-linecap="butt" transform="matrix(1.091303, 0, 0, 1.091303, 14.097437, 13.368058)" fill="none" stroke-linejoin="miter" d="M 30.761866 27.825731 L 34.405731 27.825731 C 35.762337 27.825731 36.861223 28.924617 36.861223 30.277644 L 36.861223 33.925088 C 36.861223 35.281694 35.762337 36.377001 34.405731 36.380581 L 30.761866 36.380581 C 29.40526 36.377001 28.306373 35.281694 28.306373 33.925088 L 28.306373 30.277644 C 28.306373 28.924617 29.40526 27.825731 30.761866 27.825731 Z M 30.761866 27.825731 " stroke="#ffffff" stroke-width="2.38" stroke-opacity="1" stroke-miterlimit="4"/><path stroke-linecap="butt" transform="matrix(1.091303, 0, 0, 1.091303, 14.097437, 13.368058)" fill="none" stroke-linejoin="miter" d="M 43.637094 27.825731 L 47.280959 27.825731 C 48.637565 27.825731 49.736451 28.924617 49.736451 30.277644 L 49.736451 33.925088 C 49.736451 35.281694 48.637565 36.377001 47.280959 36.380581 L 43.637094 36.380581 C 42.280488 36.377001 41.181601 35.281694 41.181601 33.925088 L 41.181601 30.277644 C 41.181601 28.924617 42.280488 27.825731 43.637094 27.825731 Z M 43.637094 27.825731 " stroke="#ffffff" stroke-width="2.38" stroke-opacity="1" stroke-miterlimit="4"/><path stroke-linecap="butt" transform="matrix(1.091303, 0, 0, 1.091303, 14.097437, 13.368058)" fill="none" stroke-linejoin="miter" d="M 30.761866 40.700959 L 34.405731 40.700959 C 35.762337 40.700959 36.861223 41.799845 36.861223 43.152872 L 36.861223 46.800316 C 36.861223 48.156922 35.762337 49.252229 34.405731 49.252229 L 30.761866 49.252229 C 29.40526 49.252229 28.306373 48.156922 28.306373 46.800316 L 28.306373 43.152872 C 28.306373 41.799845 29.40526 40.700959 30.761866 40.700959 Z M 30.761866 40.700959 " stroke="#ffffff" stroke-width="2.38" stroke-opacity="1" stroke-miterlimit="4"/><path stroke-linecap="butt" transform="matrix(1.091303, 0, 0, 1.091303, 14.097437, 13.368058)" fill="none" stroke-linejoin="miter" d="M 43.637094 40.700959 L 47.280959 40.700959 C 48.637565 40.700959 49.736451 41.799845 49.736451 43.152872 L 49.736451 46.800316 C 49.736451 48.156922 48.637565 49.252229 47.280959 49.252229 L 43.637094 49.252229 C 42.280488 49.252229 41.181601 48.156922 41.181601 46.800316 L 41.181601 43.152872 C 41.181601 41.799845 42.280488 40.700959 43.637094 40.700959 Z M 43.637094 40.700959 " stroke="#ffffff" stroke-width="2.38" stroke-opacity="1" stroke-miterlimit="4"/><g transform="matrix(1, 0, 0, 1, 106, 21)"><g clip-path="url(#85667e48b0)"><g fill="#ffffff" fill-opacity="1"><g transform="translate(0.609611, 51.280358)"><g><path d="M 23.796875 -7.546875 L 9 -7.546875 L 6.28125 0 L 1.609375 0 L 13.859375 -33.71875 L 18.96875 -33.71875 L 31.1875 0 L 26.515625 0 Z M 22.53125 -11.140625 L 16.390625 -28.265625 L 10.265625 -11.140625 Z M 22.53125 -11.140625 "/></g></g></g><g fill="#ffffff" fill-opacity="1"><g transform="translate(28.77374, 51.280358)"><g><path d="M 2.09375 -13.375 C 2.09375 -16.132812 2.644531 -18.546875 3.75 -20.609375 C 4.851562 -22.671875 6.382812 -24.265625 8.34375 -25.390625 C 10.300781 -26.523438 12.546875 -27.09375 15.078125 -27.09375 C 18.359375 -27.09375 21.0625 -26.296875 23.1875 -24.703125 C 25.3125 -23.117188 26.710938 -20.914062 27.390625 -18.09375 L 22.625 -18.09375 C 22.164062 -19.71875 21.28125 -21 19.96875 -21.9375 C 18.65625 -22.882812 17.023438 -23.359375 15.078125 -23.359375 C 12.546875 -23.359375 10.503906 -22.488281 8.953125 -20.75 C 7.398438 -19.019531 6.625 -16.5625 6.625 -13.375 C 6.625 -10.164062 7.398438 -7.6875 8.953125 -5.9375 C 10.503906 -4.1875 12.546875 -3.3125 15.078125 -3.3125 C 17.023438 -3.3125 18.644531 -3.765625 19.9375 -4.671875 C 21.238281 -5.578125 22.132812 -6.875 22.625 -8.5625 L 27.390625 -8.5625 C 26.679688 -5.832031 25.253906 -3.648438 23.109375 -2.015625 C 20.972656 -0.378906 18.296875 0.4375 15.078125 0.4375 C 12.546875 0.4375 10.300781 -0.128906 8.34375 -1.265625 C 6.382812 -2.398438 4.851562 -4.003906 3.75 -6.078125 C 2.644531 -8.160156 2.09375 -10.59375 2.09375 -13.375 Z M 2.09375 -13.375 "/></g></g></g><g fill="#ffffff" fill-opacity="1"><g transform="translate(53.678663, 51.280358)"><g><path d="M 9.140625 -23.015625 L 9.140625 -7.296875 C 9.140625 -6.003906 9.414062 -5.085938 9.96875 -4.546875 C 10.519531 -4.015625 11.476562 -3.75 12.84375 -3.75 L 16.109375 -3.75 L 16.109375 0 L 12.109375 0 C 9.648438 0 7.800781 -0.566406 6.5625 -1.703125 C 5.332031 -2.835938 4.71875 -4.703125 4.71875 -7.296875 L 4.71875 -23.015625 L 1.265625 -23.015625 L 1.265625 -26.65625 L 4.71875 -26.65625 L 4.71875 -33.375 L 9.140625 -33.375 L 9.140625 -26.65625 L 16.109375 -26.65625 L 16.109375 -23.015625 Z M 9.140625 -23.015625 "/></g></g></g><g fill="#ffffff" fill-opacity="1"><g transform="translate(66.76288, 51.280358)"><g><path d="M 6.03125 -31 C 5.1875 -31 4.472656 -31.289062 3.890625 -31.875 C 3.304688 -32.457031 3.015625 -33.171875 3.015625 -34.015625 C 3.015625 -34.859375 3.304688 -35.570312 3.890625 -36.15625 C 4.472656 -36.738281 5.1875 -37.03125 6.03125 -37.03125 C 6.84375 -37.03125 7.53125 -36.738281 8.09375 -36.15625 C 8.664062 -35.570312 8.953125 -34.859375 8.953125 -34.015625 C 8.953125 -33.171875 8.664062 -32.457031 8.09375 -31.875 C 7.53125 -31.289062 6.84375 -31 6.03125 -31 Z M 8.171875 -26.65625 L 8.171875 0 L 3.75 0 L 3.75 -26.65625 Z M 8.171875 -26.65625 "/></g></g></g><g fill="#ffffff" fill-opacity="1"><g transform="translate(74.107012, 51.280358)"><g><path d="M 13.671875 -4.09375 L 21.9375 -26.65625 L 26.65625 -26.65625 L 16.203125 0 L 11.046875 0 L 0.578125 -26.65625 L 5.359375 -26.65625 Z M 13.671875 -4.09375 "/></g></g></g><g fill="#ffffff" fill-opacity="1"><g transform="translate(96.774272, 51.280358)"><g><path d="M 2.09375 -13.421875 C 2.09375 -16.148438 2.644531 -18.546875 3.75 -20.609375 C 4.851562 -22.671875 6.367188 -24.265625 8.296875 -25.390625 C 10.222656 -26.523438 12.375 -27.09375 14.75 -27.09375 C 17.082031 -27.09375 19.109375 -26.585938 20.828125 -25.578125 C 22.546875 -24.578125 23.828125 -23.316406 24.671875 -21.796875 L 24.671875 -26.65625 L 29.140625 -26.65625 L 29.140625 0 L 24.671875 0 L 24.671875 -4.96875 C 23.796875 -3.40625 22.488281 -2.113281 20.75 -1.09375 C 19.019531 -0.0703125 17 0.4375 14.6875 0.4375 C 12.320312 0.4375 10.179688 -0.144531 8.265625 -1.3125 C 6.359375 -2.476562 4.851562 -4.113281 3.75 -6.21875 C 2.644531 -8.332031 2.09375 -10.734375 2.09375 -13.421875 Z M 24.671875 -13.375 C 24.671875 -15.382812 24.265625 -17.132812 23.453125 -18.625 C 22.640625 -20.125 21.539062 -21.269531 20.15625 -22.0625 C 18.78125 -22.851562 17.269531 -23.25 15.625 -23.25 C 13.96875 -23.25 12.457031 -22.859375 11.09375 -22.078125 C 9.726562 -21.304688 8.640625 -20.175781 7.828125 -18.6875 C 7.023438 -17.195312 6.625 -15.441406 6.625 -13.421875 C 6.625 -11.378906 7.023438 -9.601562 7.828125 -8.09375 C 8.640625 -6.59375 9.726562 -5.441406 11.09375 -4.640625 C 12.457031 -3.847656 13.96875 -3.453125 15.625 -3.453125 C 17.269531 -3.453125 18.78125 -3.847656 20.15625 -4.640625 C 21.539062 -5.441406 22.640625 -6.59375 23.453125 -8.09375 C 24.265625 -9.601562 24.671875 -11.363281 24.671875 -13.375 Z M 24.671875 -13.375 "/></g></g></g><g fill="#ffffff" fill-opacity="1"><g transform="translate(125.035696, 51.280358)"><g><path d="M 8.171875 -22.328125 C 8.953125 -23.859375 10.0625 -25.046875 11.5 -25.890625 C 12.945312 -26.734375 14.707031 -27.15625 16.78125 -27.15625 L 16.78125 -22.578125 L 15.625 -22.578125 C 10.65625 -22.578125 8.171875 -19.882812 8.171875 -14.5 L 8.171875 0 L 3.75 0 L 3.75 -26.65625 L 8.171875 -26.65625 Z M 8.171875 -22.328125 "/></g></g></g><g fill="#ffffff" fill-opacity="1"><g transform="translate(138.557718, 51.280358)"><g/></g></g><g fill="#ffffff" fill-opacity="1"><g transform="translate(146.923394, 51.280358)"><g><path d="M 23.796875 -7.546875 L 9 -7.546875 L 6.28125 0 L 1.609375 0 L 13.859375 -33.71875 L 18.96875 -33.71875 L 31.1875 0 L 26.515625 0 Z M 22.53125 -11.140625 L 16.390625 -28.265625 L 10.265625 -11.140625 Z M 22.53125 -11.140625 "/></g></g></g><g fill="#ffffff" fill-opacity="1"><g transform="translate(175.087523, 51.280358)"><g><path d="M 8.171875 -21.75 C 9.046875 -23.269531 10.347656 -24.539062 12.078125 -25.5625 C 13.816406 -26.582031 15.84375 -27.09375 18.15625 -27.09375 C 20.519531 -27.09375 22.664062 -26.523438 24.59375 -25.390625 C 26.519531 -24.265625 28.035156 -22.671875 29.140625 -20.609375 C 30.242188 -18.546875 30.796875 -16.148438 30.796875 -13.421875 C 30.796875 -10.734375 30.242188 -8.332031 29.140625 -6.21875 C 28.035156 -4.113281 26.519531 -2.476562 24.59375 -1.3125 C 22.664062 -0.144531 20.519531 0.4375 18.15625 0.4375 C 15.882812 0.4375 13.878906 -0.0703125 12.140625 -1.09375 C 10.398438 -2.113281 9.078125 -3.390625 8.171875 -4.921875 L 8.171875 12.65625 L 3.75 12.65625 L 3.75 -26.65625 L 8.171875 -26.65625 Z M 26.28125 -13.421875 C 26.28125 -15.441406 25.875 -17.195312 25.0625 -18.6875 C 24.25 -20.175781 23.148438 -21.304688 21.765625 -22.078125 C 20.390625 -22.859375 18.875 -23.25 17.21875 -23.25 C 15.601562 -23.25 14.101562 -22.851562 12.71875 -22.0625 C 11.34375 -21.269531 10.238281 -20.117188 9.40625 -18.609375 C 8.582031 -17.097656 8.171875 -15.351562 8.171875 -13.375 C 8.171875 -11.363281 8.582031 -9.601562 9.40625 -8.09375 C 10.238281 -6.59375 11.34375 -5.441406 12.71875 -4.640625 C 14.101562 -3.847656 15.601562 -3.453125 17.21875 -3.453125 C 18.875 -3.453125 20.390625 -3.847656 21.765625 -4.640625 C 23.148438 -5.441406 24.25 -6.59375 25.0625 -8.09375 C 25.875 -9.601562 26.28125 -11.378906 26.28125 -13.421875 Z M 26.28125 -13.421875 "/></g></g></g><g fill="#ffffff" fill-opacity="1"><g transform="translate(203.348947, 51.280358)"><g><path d="M 8.171875 -21.75 C 9.046875 -23.269531 10.347656 -24.539062 12.078125 -25.5625 C 13.816406 -26.582031 15.84375 -27.09375 18.15625 -27.09375 C 20.519531 -27.09375 22.664062 -26.523438 24.59375 -25.390625 C 26.519531 -24.265625 28.035156 -22.671875 29.140625 -20.609375 C 30.242188 -18.546875 30.796875 -16.148438 30.796875 -13.421875 C 30.796875 -10.734375 30.242188 -8.332031 29.140625 -6.21875 C 28.035156 -4.113281 26.519531 -2.476562 24.59375 -1.3125 C 22.664062 -0.144531 20.519531 0.4375 18.15625 0.4375 C 15.882812 0.4375 13.878906 -0.0703125 12.140625 -1.09375 C 10.398438 -2.113281 9.078125 -3.390625 8.171875 -4.921875 L 8.171875 12.65625 L 3.75 12.65625 L 3.75 -26.65625 L 8.171875 -26.65625 Z M 26.28125 -13.421875 C 26.28125 -15.441406 25.875 -17.195312 25.0625 -18.6875 C 24.25 -20.175781 23.148438 -21.304688 21.765625 -22.078125 C 20.390625 -22.859375 18.875 -23.25 17.21875 -23.25 C 15.601562 -23.25 14.101562 -22.851562 12.71875 -22.0625 C 11.34375 -21.269531 10.238281 -20.117188 9.40625 -18.609375 C 8.582031 -17.097656 8.171875 -15.351562 8.171875 -13.375 C 8.171875 -11.363281 8.582031 -9.601562 9.40625 -8.09375 C 10.238281 -6.59375 11.34375 -5.441406 12.71875 -4.640625 C 14.101562 -3.847656 15.601562 -3.453125 17.21875 -3.453125 C 18.875 -3.453125 20.390625 -3.847656 21.765625 -4.640625 C 23.148438 -5.441406 24.25 -6.59375 25.0625 -8.09375 C 25.875 -9.601562 26.28125 -11.378906 26.28125 -13.421875 Z M 26.28125 -13.421875 "/></g></g></g><g fill="#ffffff" fill-opacity="1"><g transform="translate(231.610371, 51.280358)"><g><path d="M 13.1875 0.4375 C 11.144531 0.4375 9.3125 0.0859375 7.6875 -0.609375 C 6.0625 -1.304688 4.78125 -2.28125 3.84375 -3.53125 C 2.90625 -4.78125 2.382812 -6.210938 2.28125 -7.828125 L 6.859375 -7.828125 C 6.992188 -6.503906 7.617188 -5.421875 8.734375 -4.578125 C 9.847656 -3.734375 11.316406 -3.3125 13.140625 -3.3125 C 14.828125 -3.3125 16.15625 -3.679688 17.125 -4.421875 C 18.101562 -5.171875 18.59375 -6.113281 18.59375 -7.25 C 18.59375 -8.414062 18.070312 -9.28125 17.03125 -9.84375 C 15.988281 -10.414062 14.382812 -10.976562 12.21875 -11.53125 C 10.238281 -12.050781 8.625 -12.578125 7.375 -13.109375 C 6.125 -13.648438 5.050781 -14.445312 4.15625 -15.5 C 3.269531 -16.550781 2.828125 -17.9375 2.828125 -19.65625 C 2.828125 -21.019531 3.226562 -22.269531 4.03125 -23.40625 C 4.84375 -24.539062 5.992188 -25.4375 7.484375 -26.09375 C 8.984375 -26.757812 10.691406 -27.09375 12.609375 -27.09375 C 15.554688 -27.09375 17.9375 -26.347656 19.75 -24.859375 C 21.570312 -23.367188 22.546875 -21.328125 22.671875 -18.734375 L 18.25 -18.734375 C 18.144531 -20.128906 17.582031 -21.25 16.5625 -22.09375 C 15.539062 -22.9375 14.171875 -23.359375 12.453125 -23.359375 C 10.867188 -23.359375 9.601562 -23.015625 8.65625 -22.328125 C 7.71875 -21.648438 7.25 -20.757812 7.25 -19.65625 C 7.25 -18.78125 7.53125 -18.054688 8.09375 -17.484375 C 8.664062 -16.921875 9.378906 -16.46875 10.234375 -16.125 C 11.097656 -15.789062 12.289062 -15.410156 13.8125 -14.984375 C 15.726562 -14.460938 17.285156 -13.953125 18.484375 -13.453125 C 19.691406 -12.953125 20.722656 -12.195312 21.578125 -11.1875 C 22.441406 -10.1875 22.890625 -8.875 22.921875 -7.25 C 22.921875 -5.789062 22.515625 -4.476562 21.703125 -3.3125 C 20.890625 -2.144531 19.742188 -1.226562 18.265625 -0.5625 C 16.796875 0.101562 15.101562 0.4375 13.1875 0.4375 Z M 13.1875 0.4375 "/></g></g></g></g></g></svg>