<svg width="55" height="55" viewBox="0 0 55 55" fill="none" xmlns="http://www.w3.org/2000/svg">
<path d="M50.5333 54.3333L42.6667 46.4667V52.4H37.3333V37.3333H52.4V42.6667H46.4L54.2667 50.5333L50.5333 54.3333ZM26.6667 53.3333C22.9778 53.3333 19.5111 52.6333 16.2667 51.2333C13.0222 49.8333 10.2 47.9333 7.8 45.5333C5.4 43.1333 3.5 40.3111 2.1 37.0667C0.7 33.8222 0 30.3556 0 26.6667C0 22.9778 0.7 19.5111 2.1 16.2667C3.5 13.0222 5.4 10.2 7.8 7.8C10.2 5.4 13.0222 3.5 16.2667 2.1C19.5111 0.7 22.9778 0 26.6667 0C30.3556 0 33.8222 0.7 37.0667 2.1C40.3111 3.5 43.1333 5.4 45.5333 7.8C47.9333 10.2 49.8333 13.0222 51.2333 16.2667C52.6333 19.5111 53.3333 22.9778 53.3333 26.6667C53.3333 27.5556 53.2889 28.4444 53.2 29.3333C53.1111 30.2222 52.9778 31.1111 52.8 32H47.3333C47.5556 31.1111 47.7222 30.2222 47.8333 29.3333C47.9444 28.4444 48 27.5556 48 26.6667C48 25.7778 47.9444 24.8889 47.8333 24C47.7222 23.1111 47.5556 22.2222 47.3333 21.3333H38.2667C38.4 22.2222 38.5 23.1111 38.5667 24C38.6333 24.8889 38.6667 25.7778 38.6667 26.6667C38.6667 27.5556 38.6333 28.4444 38.5667 29.3333C38.5 30.2222 38.4 31.1111 38.2667 32H32.9333C33.0667 31.1111 33.1667 30.2222 33.2333 29.3333C33.3 28.4444 33.3333 27.5556 33.3333 26.6667C33.3333 25.7778 33.3 24.8889 33.2333 24C33.1667 23.1111 33.0667 22.2222 32.9333 21.3333H20.4C20.2667 22.2222 20.1667 23.1111 20.1 24C20.0333 24.8889 20 25.7778 20 26.6667C20 27.5556 20.0333 28.4444 20.1 29.3333C20.1667 30.2222 20.2667 31.1111 20.4 32H29.3333V37.3333H21.6C22.1333 39.2444 22.8222 41.0778 23.6667 42.8333C24.5111 44.5889 25.5111 46.2667 26.6667 47.8667C27.5556 47.8667 28.4444 47.8111 29.3333 47.7C30.2222 47.5889 31.1111 47.4889 32 47.4V52.8667C31.1111 52.9556 30.2222 53.0556 29.3333 53.1667C28.4444 53.2778 27.5556 53.3333 26.6667 53.3333ZM6 32H15.0667C14.9333 31.1111 14.8333 30.2222 14.7667 29.3333C14.7 28.4444 14.6667 27.5556 14.6667 26.6667C14.6667 25.7778 14.7 24.8889 14.7667 24C14.8333 23.1111 14.9333 22.2222 15.0667 21.3333H6C5.77778 22.2222 5.61111 23.1111 5.5 24C5.38889 24.8889 5.33333 25.7778 5.33333 26.6667C5.33333 27.5556 5.38889 28.4444 5.5 29.3333C5.61111 30.2222 5.77778 31.1111 6 32ZM8.26667 16H16.1333C16.5333 14.3556 17.0333 12.7444 17.6333 11.1667C18.2333 9.58889 18.9333 8.04444 19.7333 6.53333C17.2889 7.33333 15.0889 8.54444 13.1333 10.1667C11.1778 11.7889 9.55556 13.7333 8.26667 16ZM19.7333 46.8C18.9333 45.2889 18.2333 43.7444 17.6333 42.1667C17.0333 40.5889 16.5333 38.9778 16.1333 37.3333H8.26667C9.55556 39.6 11.1778 41.5444 13.1333 43.1667C15.0889 44.7889 17.2889 46 19.7333 46.8ZM21.6 16H31.7333C31.2 14.0889 30.5111 12.2556 29.6667 10.5C28.8222 8.74444 27.8222 7.06667 26.6667 5.46667C25.5111 7.06667 24.5111 8.74444 23.6667 10.5C22.8222 12.2556 22.1333 14.0889 21.6 16ZM37.2 16H45.0667C43.7778 13.7333 42.1556 11.7889 40.2 10.1667C38.2444 8.54444 36.0444 7.33333 33.6 6.53333C34.4 8.04444 35.1 9.58889 35.7 11.1667C36.3 12.7444 36.8 14.3556 37.2 16Z" fill="url(#paint0_linear_3500_5438)"/>
<defs>
<linearGradient id="paint0_linear_3500_5438" x1="27.1333" y1="0" x2="27.1333" y2="54.3333" gradientUnits="userSpaceOnUse">
<stop offset="0.235" stop-color="#08BAF0"/>
<stop offset="0.85" stop-color="#1CD2A5"/>
</linearGradient>
</defs>
</svg>
