<svg width="54" height="54" viewBox="0 0 54 54" fill="none" xmlns="http://www.w3.org/2000/svg">
<path d="M24 53.0667C20.6222 52.7111 17.4778 51.7889 14.5667 50.3C11.6556 48.8111 9.12222 46.8778 6.96667 44.5C4.81111 42.1222 3.11111 39.4 1.86667 36.3333C0.622222 33.2667 0 30 0 26.5333C0 22.4889 0.811111 18.7556 2.43333 15.3333C4.05556 11.9111 6.26667 8.97778 9.06667 6.53333H2.66667V1.2H18.6667V17.2H13.3333V9.93333C10.8889 11.8889 8.94444 14.3 7.5 17.1667C6.05556 20.0333 5.33333 23.1556 5.33333 26.5333C5.33333 32 7.12222 36.7222 10.7 40.7C14.2778 44.6778 18.7111 47 24 47.6667V53.0667ZM22.8667 38.8L11.6 27.4667L15.3333 23.7333L22.8667 31.2667L38 16.1333L41.7333 19.9333L22.8667 38.8ZM34.6667 51.8667V35.8667H40V43.1333C42.4444 41.1333 44.3889 38.7111 45.8333 35.8667C47.2778 33.0222 48 29.9111 48 26.5333C48 21.0667 46.2111 16.3444 42.6333 12.3667C39.0556 8.38889 34.6222 6.06667 29.3333 5.4V0C36.0889 0.666667 41.7778 3.51111 46.4 8.53333C51.0222 13.5556 53.3333 19.5556 53.3333 26.5333C53.3333 30.5778 52.5222 34.3111 50.9 37.7333C49.2778 41.1556 47.0667 44.0889 44.2667 46.5333H50.6667V51.8667H34.6667Z" fill="url(#paint0_linear_3500_5457)"/>
<defs>
<linearGradient id="paint0_linear_3500_5457" x1="26.6667" y1="0" x2="26.6667" y2="53.0667" gradientUnits="userSpaceOnUse">
<stop offset="0.235" stop-color="#08BAF0"/>
<stop offset="0.85" stop-color="#1CD2A5"/>
</linearGradient>
</defs>
</svg>
