<svg width="29" height="29" viewBox="0 0 29 29" fill="none" xmlns="http://www.w3.org/2000/svg">
<path d="M14.1667 28.3333C12.2069 28.3333 10.3653 27.9615 8.64167 27.2177C6.91806 26.474 5.41875 25.4646 4.14375 24.1896C2.86875 22.9146 1.85938 21.4153 1.11563 19.6917C0.371875 17.9681 0 16.1264 0 14.1667H2.83333C2.83333 15.725 3.12847 17.1948 3.71875 18.576C4.30903 19.9573 5.11771 21.1615 6.14479 22.1885C7.17188 23.2156 8.37604 24.0302 9.75729 24.6323C11.1385 25.2344 12.6083 25.5354 14.1667 25.5354C17.3306 25.5354 20.0104 24.4375 22.2063 22.2417C24.4021 20.0458 25.5 17.366 25.5 14.2021C25.5 11.0382 24.4021 8.35833 22.2063 6.1625C20.0104 3.96667 17.3306 2.86875 14.1667 2.86875C12.0653 2.86875 10.1587 3.38229 8.44688 4.40938C6.73507 5.43646 5.38333 6.8 4.39167 8.5H8.5V11.3333H0V2.83333H2.83333V5.66667C4.13194 3.94306 5.76111 2.56771 7.72083 1.54063C9.68056 0.513542 11.8292 0 14.1667 0C16.1264 0 17.9681 0.371875 19.6917 1.11563C21.4153 1.85938 22.9146 2.86875 24.1896 4.14375C25.4646 5.41875 26.474 6.91806 27.2177 8.64167C27.9615 10.3653 28.3333 12.2069 28.3333 14.1667C28.3333 16.1264 27.9615 17.9681 27.2177 19.6917C26.474 21.4153 25.4646 22.9146 24.1896 24.1896C22.9146 25.4646 21.4153 26.474 19.6917 27.2177C17.9681 27.9615 16.1264 28.3333 14.1667 28.3333ZM11.3333 19.8333C10.9319 19.8333 10.5955 19.6976 10.324 19.426C10.0524 19.1545 9.91667 18.8181 9.91667 18.4167V14.1667C9.91667 13.7653 10.0524 13.4288 10.324 13.1573C10.5955 12.8858 10.9319 12.75 11.3333 12.75V11.3333C11.3333 10.5542 11.6108 9.88715 12.1656 9.33229C12.7205 8.77743 13.3875 8.5 14.1667 8.5C14.9458 8.5 15.6128 8.77743 16.1677 9.33229C16.7226 9.88715 17 10.5542 17 11.3333V12.75C17.4014 12.75 17.7378 12.8858 18.0094 13.1573C18.2809 13.4288 18.4167 13.7653 18.4167 14.1667V18.4167C18.4167 18.8181 18.2809 19.1545 18.0094 19.426C17.7378 19.6976 17.4014 19.8333 17 19.8333H11.3333ZM12.75 12.75H15.5833V11.3333C15.5833 10.9319 15.4476 10.5955 15.176 10.324C14.9045 10.0524 14.5681 9.91667 14.1667 9.91667C13.7653 9.91667 13.4288 10.0524 13.1573 10.324C12.8858 10.5955 12.75 10.9319 12.75 11.3333V12.75Z" fill="#1F1F1F"/>
</svg>
