<svg width="260" height="260" viewBox="0 0 260 260" fill="none" xmlns="http://www.w3.org/2000/svg">
<mask id="mask0_20_50019" style="mask-type:alpha" maskUnits="userSpaceOnUse" x="0" y="0" width="260" height="260">
<rect width="260" height="260" fill="#D9D9D9"/>
</mask>
<g mask="url(#mask0_20_50019)">
<path d="M86.6667 249.166C80.7083 249.166 75.6076 247.045 71.3646 242.802C67.1215 238.559 65 233.458 65 227.5V184.166H86.6667V195H195V64.9997H86.6667V75.833H65V32.4997C65 26.5413 67.1215 21.4406 71.3646 17.1976C75.6076 12.9545 80.7083 10.833 86.6667 10.833H195C200.958 10.833 206.059 12.9545 210.302 17.1976C214.545 21.4406 216.667 26.5413 216.667 32.4997V227.5C216.667 233.458 214.545 238.559 210.302 242.802C206.059 247.045 200.958 249.166 195 249.166H86.6667ZM86.6667 216.666V227.5H195V216.666H86.6667ZM47.6667 184.166L32.5 169L93.1667 108.333H54.1667V86.6664H130V162.5H108.333V123.5L47.6667 184.166ZM86.6667 43.333H195V32.4997H86.6667V43.333Z" fill="url(#paint0_linear_20_50019)"/>
</g>
<defs>
<linearGradient id="paint0_linear_20_50019" x1="124.583" y1="10.833" x2="124.583" y2="249.166" gradientUnits="userSpaceOnUse">
<stop stop-color="#35CDFB"/>
<stop offset="1" stop-color="#00FFB3"/>
</linearGradient>
</defs>
</svg>
