<svg width="130" height="250" viewBox="0 0 130 250" fill="none" xmlns="http://www.w3.org/2000/svg">
<path d="M43.3333 65C43.3333 59.0417 45.4549 53.941 49.6979 49.6979C53.941 45.4549 59.0417 43.3333 65 43.3333C70.9583 43.3333 76.059 45.4549 80.3021 49.6979C84.5451 53.941 86.6667 59.0417 86.6667 65C86.6667 70.9583 84.5451 76.059 80.3021 80.3021C76.059 84.5451 70.9583 86.6667 65 86.6667C59.0417 86.6667 53.941 84.5451 49.6979 80.3021C45.4549 76.059 43.3333 70.9583 43.3333 65ZM65 249.167L16.25 200.417L32.5 178.75L16.25 157.083L32.5 134.063V121.333C22.75 115.556 14.8958 107.747 8.9375 97.9063C2.97917 88.066 0 77.0972 0 65C0 46.9444 6.31944 31.5972 18.9583 18.9583C31.5972 6.31944 46.9444 0 65 0C83.0555 0 98.4028 6.31944 111.042 18.9583C123.681 31.5972 130 46.9444 130 65C130 77.0972 127.021 88.066 121.062 97.9063C115.104 107.747 107.25 115.556 97.5 121.333V216.667L65 249.167ZM21.6667 65C21.6667 75.1111 24.7361 84.0035 30.875 91.6771C37.0139 99.3507 44.7778 104.451 54.1667 106.979V140.833L43.0625 156.542L59.5833 178.75L44.6875 197.979L65 218.292L75.8333 207.458V106.979C85.2222 104.451 92.9861 99.3507 99.125 91.6771C105.264 84.0035 108.333 75.1111 108.333 65C108.333 53.0833 104.09 42.8819 95.6042 34.3958C87.118 25.9097 76.9167 21.6667 65 21.6667C53.0833 21.6667 42.8819 25.9097 34.3958 34.3958C25.9097 42.8819 21.6667 53.0833 21.6667 65Z" fill="url(#paint0_linear_20_50042)"/>
<defs>
<linearGradient id="paint0_linear_20_50042" x1="65" y1="0" x2="65" y2="249.167" gradientUnits="userSpaceOnUse">
<stop stop-color="#35CDFB"/>
<stop offset="1" stop-color="#00FFB3"/>
</linearGradient>
</defs>
</svg>
