<svg width="48" height="54" viewBox="0 0 48 54" fill="none" xmlns="http://www.w3.org/2000/svg">
<path d="M34.6667 40C35.7778 40 36.7222 39.6111 37.5 38.8333C38.2778 38.0556 38.6667 37.1111 38.6667 36C38.6667 34.8889 38.2778 33.9444 37.5 33.1667C36.7222 32.3889 35.7778 32 34.6667 32C33.5556 32 32.6111 32.3889 31.8333 33.1667C31.0556 33.9444 30.6667 34.8889 30.6667 36C30.6667 37.1111 31.0556 38.0556 31.8333 38.8333C32.6111 39.6111 33.5556 40 34.6667 40ZM34.6667 48C36.0444 48 37.3111 47.6778 38.4667 47.0333C39.6222 46.3889 40.5556 45.5333 41.2667 44.4667C40.2889 43.8889 39.2444 43.4444 38.1333 43.1333C37.0222 42.8222 35.8667 42.6667 34.6667 42.6667C33.4667 42.6667 32.3111 42.8222 31.2 43.1333C30.0889 43.4444 29.0444 43.8889 28.0667 44.4667C28.7778 45.5333 29.7111 46.3889 30.8667 47.0333C32.0222 47.6778 33.2889 48 34.6667 48ZM21.3333 53.3333C15.1556 51.7778 10.0556 48.2333 6.03333 42.7C2.01111 37.1667 0 31.0222 0 24.2667V8L21.3333 0L42.6667 8V23.1333C41.8222 22.7778 40.9556 22.4556 40.0667 22.1667C39.1778 21.8778 38.2667 21.6667 37.3333 21.5333V11.7333L21.3333 5.73333L5.33333 11.7333V24.2667C5.33333 26.3556 5.61111 28.4444 6.16667 30.5333C6.72222 32.6222 7.5 34.6111 8.5 36.5C9.5 38.3889 10.7111 40.1333 12.1333 41.7333C13.5556 43.3333 15.1333 44.6667 16.8667 45.7333C17.3556 47.1556 18 48.5111 18.8 49.8C19.6 51.0889 20.5111 52.2444 21.5333 53.2667C21.4889 53.2667 21.4556 53.2778 21.4333 53.3C21.4111 53.3222 21.3778 53.3333 21.3333 53.3333ZM34.6667 53.3333C30.9778 53.3333 27.8333 52.0333 25.2333 49.4333C22.6333 46.8333 21.3333 43.6889 21.3333 40C21.3333 36.3111 22.6333 33.1667 25.2333 30.5667C27.8333 27.9667 30.9778 26.6667 34.6667 26.6667C38.3556 26.6667 41.5 27.9667 44.1 30.5667C46.7 33.1667 48 36.3111 48 40C48 43.6889 46.7 46.8333 44.1 49.4333C41.5 52.0333 38.3556 53.3333 34.6667 53.3333Z" fill="url(#paint0_linear_3500_5441)"/>
<defs>
<linearGradient id="paint0_linear_3500_5441" x1="24" y1="0" x2="24" y2="53.3333" gradientUnits="userSpaceOnUse">
<stop offset="0.235" stop-color="#08BAF0"/>
<stop offset="0.85" stop-color="#1CD2A5"/>
</linearGradient>
</defs>
</svg>
