<svg width="38" height="59" viewBox="0 0 38 59" fill="none" xmlns="http://www.w3.org/2000/svg">
<path d="M16.1333 37.3333L8.66667 29.8667L12.4 26.1333L16.1333 29.8667L25.6 20.4L29.3333 24.1333L16.1333 37.3333ZM5.33333 58.6667C3.86667 58.6667 2.61111 58.1444 1.56667 57.1C0.522222 56.0556 0 54.8 0 53.3333V5.33333C0 3.86667 0.522222 2.61111 1.56667 1.56667C2.61111 0.522222 3.86667 0 5.33333 0H32C33.4667 0 34.7222 0.522222 35.7667 1.56667C36.8111 2.61111 37.3333 3.86667 37.3333 5.33333V53.3333C37.3333 54.8 36.8111 56.0556 35.7667 57.1C34.7222 58.1444 33.4667 58.6667 32 58.6667H5.33333ZM5.33333 50.6667V53.3333H32V50.6667H5.33333ZM5.33333 45.3333H32V13.3333H5.33333V45.3333ZM5.33333 8H32V5.33333H5.33333V8Z" fill="url(#paint0_linear_3500_5435)"/>
<defs>
<linearGradient id="paint0_linear_3500_5435" x1="18.6667" y1="0" x2="18.6667" y2="58.6667" gradientUnits="userSpaceOnUse">
<stop offset="0.235" stop-color="#08BAF0"/>
<stop offset="0.85" stop-color="#1CD2A5"/>
</linearGradient>
</defs>
</svg>
