<svg width="43" height="56" viewBox="0 0 43 56" fill="none" xmlns="http://www.w3.org/2000/svg">
<path d="M21.3333 56L2.13333 41.6C1.46667 41.1111 0.944444 40.4889 0.566667 39.7333C0.188889 38.9778 0 38.1778 0 37.3333V5.33333C0 3.86667 0.522222 2.61111 1.56667 1.56667C2.61111 0.522222 3.86667 0 5.33333 0H37.3333C38.8 0 40.0556 0.522222 41.1 1.56667C42.1444 2.61111 42.6667 3.86667 42.6667 5.33333V37.3333C42.6667 38.1778 42.4778 38.9778 42.1 39.7333C41.7222 40.4889 41.2 41.1111 40.5333 41.6L21.3333 56ZM21.3333 49.3333L37.3333 37.3333V5.33333H5.33333V37.3333L21.3333 49.3333ZM18.5333 34.6667L33.6 19.6L29.8667 15.7333L18.5333 27.0667L12.9333 21.4667L9.06667 25.2L18.5333 34.6667Z" fill="url(#paint0_linear_3500_5447)"/>
<defs>
<linearGradient id="paint0_linear_3500_5447" x1="21.3333" y1="0" x2="21.3333" y2="56" gradientUnits="userSpaceOnUse">
<stop offset="0.235" stop-color="#08BAF0"/>
<stop offset="0.85" stop-color="#1CD2A5"/>
</linearGradient>
</defs>
</svg>
