<svg width="106" height="34" viewBox="0 0 106 34" fill="none" xmlns="http://www.w3.org/2000/svg">
<g clip-path="url(#clip0_9099_1703)">
<path d="M28.6065 0H5.39353C2.41477 0 0 2.41477 0 5.39353V28.6065C0 31.5852 2.41477 34 5.39353 34H28.6065C31.5852 34 34 31.5852 34 28.6065V5.39353C34 2.41477 31.5852 0 28.6065 0Z" fill="#009DFF"/>
<path d="M13.8958 6.87695C16.3347 6.87695 17.4981 7.47252 18.632 8.91922H18.8303C20.532 7.47252 22.007 6.87695 24.4176 6.87695C28.6438 6.87695 30.3739 8.60699 29.5227 12.5493L27.651 21.3134H23.5954L25.4388 12.7765C25.8077 10.9332 25.0982 10.1104 23.2548 10.1104C21.4115 10.1104 20.3337 10.9332 19.9364 12.7765L18.1214 21.3134H14.0658L15.8808 12.7765C16.278 10.9332 15.5402 10.1104 13.6969 10.1104C11.8535 10.1104 10.7757 10.9615 10.3785 12.7765L8.56345 21.3134H4.50781L6.37951 12.5493C7.20231 8.60699 9.69791 6.87695 13.8952 6.87695H13.8958Z" fill="white"/>
<path d="M23.3638 22.0615C22.8532 23.3054 21.8825 23.8975 20.3009 23.8975C18.7194 23.8975 17.9974 23.3224 18.0161 22.0615H13.8058C13.2845 23.3218 12.2809 23.8975 10.743 23.8975C9.20502 23.8975 8.45929 23.3224 8.46779 22.0615H4.36342C3.81489 25.5766 5.57665 27.1304 9.58015 27.1304C11.9908 27.1304 13.4658 26.5348 15.1675 25.0881H15.3658C16.5003 26.5348 17.6631 27.1304 20.102 27.1304C24.0783 27.1304 26.5269 25.5766 27.4732 22.0615H23.3638Z" fill="#00426E"/>
</g>
<path d="M49.4716 14.0625C49.4186 13.5663 49.1951 13.1799 48.8011 12.9034C48.411 12.6269 47.9034 12.4886 47.2784 12.4886C46.839 12.4886 46.4621 12.5549 46.1477 12.6875C45.8333 12.8201 45.5928 13 45.4261 13.2273C45.2595 13.4545 45.1742 13.714 45.1705 14.0057C45.1705 14.2481 45.2254 14.4583 45.3352 14.6364C45.4489 14.8144 45.6023 14.9659 45.7955 15.0909C45.9886 15.2121 46.2027 15.3144 46.4375 15.3977C46.6723 15.4811 46.9091 15.5511 47.1477 15.608L48.2386 15.8807C48.678 15.983 49.1004 16.1212 49.5057 16.2955C49.9148 16.4697 50.2803 16.6894 50.6023 16.9545C50.928 17.2197 51.1856 17.5398 51.375 17.9148C51.5644 18.2898 51.6591 18.7292 51.6591 19.233C51.6591 19.9148 51.4848 20.5152 51.1364 21.0341C50.7879 21.5492 50.2841 21.9527 49.625 22.2443C48.9697 22.5322 48.1761 22.6761 47.2443 22.6761C46.339 22.6761 45.553 22.536 44.8864 22.2557C44.2235 21.9754 43.7045 21.5663 43.3295 21.0284C42.9583 20.4905 42.7576 19.8352 42.7273 19.0625H44.8011C44.8314 19.4678 44.9564 19.8049 45.1761 20.0739C45.3958 20.3428 45.6818 20.5436 46.0341 20.6761C46.3902 20.8087 46.7879 20.875 47.2273 20.875C47.6856 20.875 48.0871 20.8068 48.4318 20.6705C48.7803 20.5303 49.053 20.3371 49.25 20.0909C49.447 19.8409 49.5473 19.5492 49.5511 19.2159C49.5473 18.9129 49.4583 18.6629 49.2841 18.4659C49.1098 18.2652 48.8655 18.0985 48.5511 17.9659C48.2405 17.8295 47.8769 17.7083 47.4602 17.6023L46.1364 17.2614C45.178 17.0152 44.4205 16.642 43.8636 16.142C43.3106 15.6383 43.0341 14.9697 43.0341 14.1364C43.0341 13.4508 43.2197 12.8504 43.5909 12.3352C43.9659 11.8201 44.4754 11.4205 45.1193 11.1364C45.7633 10.8485 46.4924 10.7045 47.3068 10.7045C48.1326 10.7045 48.8561 10.8485 49.4773 11.1364C50.1023 11.4205 50.5928 11.8163 50.9489 12.3239C51.3049 12.8277 51.4886 13.4072 51.5 14.0625H49.4716ZM55.8063 10.8636V22.5H53.6984V10.8636H55.8063ZM58.249 10.8636H60.8285L64.2831 19.2955H64.4194L67.874 10.8636H70.4535V22.5H68.4308V14.5057H68.3228L65.1069 22.4659H63.5956L60.3797 14.4886H60.2717V22.5H58.249V10.8636ZM76.5264 12.6307V10.8636H85.8105V12.6307H82.2139V22.5H80.123V12.6307H76.5264ZM89.8682 10.8636V22.5H87.7602V10.8636H89.8682ZM92.3109 10.8636H94.8904L98.3449 19.2955H98.4813L101.936 10.8636H104.515V22.5H102.493V14.5057H102.385L99.1688 22.4659H97.6574L94.4415 14.4886H94.3336V22.5H92.3109V10.8636Z" fill="white"/>
<defs>
<clipPath id="clip0_9099_1703">
<rect width="34" height="34" rx="8" fill="white"/>
</clipPath>
</defs>
</svg>
