<svg width="137" height="34" viewBox="0 0 137 34" fill="none" xmlns="http://www.w3.org/2000/svg">
<rect width="34" height="34" rx="8" fill="black"/>
<path d="M26.3991 9.33538L26.3582 8.96379L25.4441 8.5922C22.8559 7.53641 20.0865 6.99617 17.2913 7.00177C14.4333 6.97702 11.5997 7.52934 8.96017 8.62564L8.1278 9.01582L8.09064 9.38741C7.88455 11.7342 8.04628 14.0988 8.57 16.3957C9.73309 21.1001 12.4866 24.6414 16.5295 26.6294L17.2727 27.001L17.9936 26.6294C22.0403 24.6414 24.7938 21.1001 25.9532 16.3957C26.468 14.0798 26.6185 11.6977 26.3991 9.33538ZM25.2843 16.2396C24.1695 20.7508 21.5386 24.1397 17.6703 26.0423L17.2393 26.2578L16.8045 26.0423C12.9362 24.1397 10.3053 20.7508 9.19056 16.2396C8.69053 14.0084 8.53886 11.7133 8.74093 9.43571L9.23887 9.20532C11.7902 8.14679 14.5292 7.61468 17.2913 7.64092C20.0015 7.63564 22.6866 8.16078 25.1951 9.18675L25.7339 9.40599C25.9417 11.6951 25.795 14.0026 25.2992 16.247L25.2843 16.2396Z" fill="white"/>
<path d="M9.6662 10.1016C9.57502 11.1967 9.58996 12.298 9.71079 13.3902C9.7591 13.877 9.8297 14.401 9.93003 14.9509C10.2199 14.832 10.7327 14.6388 11.435 14.4307C15.2328 13.3137 19.2718 13.3137 23.0696 14.4307C22.999 14.8432 22.9098 15.2779 22.7983 15.7201C22.776 15.8093 22.75 15.8948 22.7277 15.984C19.1454 14.9974 15.3629 14.9974 11.7806 15.984C11.1451 16.1586 10.6398 16.3295 10.2942 16.4633C10.431 16.9667 10.5935 17.4628 10.781 17.9497C10.9673 18.4459 11.1819 18.931 11.4238 19.4026C11.674 19.8964 11.9545 20.3741 12.2636 20.8333C12.769 20.7069 13.3376 20.588 13.9618 20.4877C16.157 20.1283 18.3959 20.1283 20.5911 20.4877C20.186 21.023 19.7333 21.5205 19.2385 21.9741C18.6351 22.5201 17.9748 22.9997 17.269 23.4047C16.5632 22.9983 15.9029 22.5174 15.2996 21.9703C14.5973 22.0372 13.947 22.1375 13.3561 22.249C13.8215 22.7643 14.3286 23.2403 14.8722 23.6722C15.6105 24.2518 16.4091 24.7501 17.2542 25.1586C18.1026 24.7446 18.9037 24.24 19.6435 23.6537C20.1868 23.2227 20.6927 22.7466 21.1559 22.2305C21.5598 21.7888 21.9323 21.3194 22.2707 20.8258C22.5772 20.3684 22.8564 19.8931 23.1068 19.4026C22.5791 19.2428 22.0589 19.1091 21.5461 18.9976C18.7282 18.4029 15.8172 18.4029 12.9994 18.9976C12.7341 18.5175 12.4995 18.021 12.2971 17.5112C15.5609 16.7005 18.9734 16.7005 22.2372 17.5112C22.7352 17.6375 23.2368 17.7862 23.7459 17.9608C23.9391 17.4592 24.0989 16.9612 24.2327 16.4745C24.3665 15.9877 24.4928 15.4451 24.582 14.9546C24.686 14.401 24.7566 13.8733 24.8087 13.3828C24.2921 13.1747 23.7831 12.9926 23.2777 12.8366C19.3577 11.6386 15.1692 11.6386 11.2492 12.8366C11.1972 12.19 11.186 11.6289 11.1934 11.1978C15.1458 9.97904 19.3736 9.97904 23.326 11.1978C23.8277 11.3576 24.3367 11.536 24.8458 11.7441L24.9053 11.7664C24.918 11.2096 24.8994 10.6526 24.8495 10.0979C19.9778 8.13861 14.537 8.13994 9.6662 10.1016Z" fill="white"/>
<path d="M43.1477 22.5V10.8636H50.7159V12.6307H45.2557V15.7898H50.3239V17.5568H45.2557V20.733H50.7614V22.5H43.1477ZM54.9924 17.3864V22.5H52.9356V13.7727H54.9015V15.2557H55.0037C55.2045 14.767 55.5246 14.3788 55.964 14.0909C56.4072 13.803 56.9545 13.6591 57.606 13.6591C58.2083 13.6591 58.7329 13.7879 59.1799 14.0455C59.6306 14.303 59.9791 14.6761 60.2253 15.1648C60.4753 15.6534 60.5984 16.2462 60.5947 16.9432V22.5H58.5378V17.2614C58.5378 16.678 58.3863 16.2216 58.0833 15.892C57.7841 15.5625 57.3693 15.3977 56.839 15.3977C56.4791 15.3977 56.1591 15.4773 55.8787 15.6364C55.6022 15.7917 55.3844 16.017 55.2253 16.3125C55.07 16.608 54.9924 16.9659 54.9924 17.3864ZM66.6524 22.6705C65.7812 22.6705 65.0331 22.4792 64.4081 22.0966C63.7869 21.714 63.3077 21.1856 62.9706 20.5114C62.6372 19.8333 62.4706 19.053 62.4706 18.1705C62.4706 17.2841 62.641 16.5019 62.9819 15.8239C63.3228 15.142 63.8039 14.6117 64.4251 14.233C65.0501 13.8504 65.7887 13.6591 66.641 13.6591C67.3494 13.6591 67.9763 13.7898 68.5217 14.0511C69.0709 14.3087 69.5084 14.6742 69.8342 15.1477C70.16 15.6174 70.3456 16.1667 70.391 16.7955H68.4251C68.3456 16.375 68.1562 16.0246 67.8569 15.7443C67.5615 15.4602 67.1656 15.3182 66.6694 15.3182C66.249 15.3182 65.8797 15.4318 65.5615 15.6591C65.2433 15.8826 64.9952 16.2045 64.8172 16.625C64.6429 17.0455 64.5558 17.5492 64.5558 18.1364C64.5558 18.7311 64.6429 19.2424 64.8172 19.6705C64.9914 20.0947 65.2357 20.4223 65.5501 20.6534C65.8683 20.8807 66.2414 20.9943 66.6694 20.9943C66.9725 20.9943 67.2433 20.9375 67.4819 20.8239C67.7244 20.7064 67.927 20.5379 68.0899 20.3182C68.2528 20.0985 68.3645 19.8314 68.4251 19.517H70.391C70.3418 20.1345 70.16 20.6818 69.8456 21.1591C69.5312 21.6326 69.1031 22.0038 68.5615 22.2727C68.0198 22.5379 67.3834 22.6705 66.6524 22.6705ZM72.2399 22.5V13.7727H74.2343V15.2273H74.3252C74.4843 14.7235 74.757 14.3352 75.1434 14.0625C75.5335 13.786 75.9786 13.6477 76.4786 13.6477C76.5922 13.6477 76.7191 13.6534 76.8593 13.6648C77.0032 13.6723 77.1225 13.6856 77.2172 13.7045V15.5966C77.1301 15.5663 76.9918 15.5398 76.8024 15.517C76.6168 15.4905 76.4369 15.4773 76.2627 15.4773C75.8877 15.4773 75.5505 15.5587 75.2513 15.7216C74.9559 15.8807 74.7229 16.1023 74.5524 16.3864C74.382 16.6705 74.2968 16.9981 74.2968 17.3693V22.5H72.2399ZM78.7437 22.5V13.7727H80.8005V22.5H78.7437ZM79.7778 12.5341C79.452 12.5341 79.1717 12.4261 78.9369 12.2102C78.702 11.9905 78.5846 11.7273 78.5846 11.4205C78.5846 11.1098 78.702 10.8466 78.9369 10.6307C79.1717 10.411 79.452 10.3011 79.7778 10.3011C80.1073 10.3011 80.3876 10.411 80.6187 10.6307C80.8535 10.8466 80.971 11.1098 80.971 11.4205C80.971 11.7273 80.8535 11.9905 80.6187 12.2102C80.3876 12.4261 80.1073 12.5341 79.7778 12.5341ZM83.0756 25.7727V13.7727H85.0983V15.2159H85.2176C85.3237 15.0038 85.4733 14.7784 85.6665 14.5398C85.8597 14.2973 86.121 14.0909 86.4506 13.9205C86.7801 13.7462 87.2006 13.6591 87.7119 13.6591C88.3862 13.6591 88.9941 13.8314 89.5358 14.1761C90.0812 14.517 90.5131 15.0227 90.8312 15.6932C91.1532 16.3598 91.3142 17.178 91.3142 18.1477C91.3142 19.1061 91.157 19.9205 90.8426 20.5909C90.5282 21.2614 90.1002 21.7727 89.5585 22.125C89.0169 22.4773 88.4032 22.6534 87.7176 22.6534C87.2176 22.6534 86.8028 22.5701 86.4733 22.4034C86.1437 22.2367 85.8786 22.036 85.6778 21.8011C85.4809 21.5625 85.3275 21.3371 85.2176 21.125H85.1324V25.7727H83.0756ZM85.0926 18.1364C85.0926 18.7008 85.1722 19.1951 85.3312 19.6193C85.4941 20.0436 85.7271 20.375 86.0301 20.6136C86.3369 20.8485 86.7081 20.9659 87.1437 20.9659C87.5983 20.9659 87.979 20.8447 88.2858 20.6023C88.5926 20.3561 88.8237 20.0208 88.979 19.5966C89.1381 19.1686 89.2176 18.6818 89.2176 18.1364C89.2176 17.5947 89.14 17.1136 88.9847 16.6932C88.8294 16.2727 88.5983 15.9432 88.2915 15.7045C87.9847 15.4659 87.6021 15.3466 87.1437 15.3466C86.7044 15.3466 86.3312 15.4621 86.0244 15.6932C85.7176 15.9242 85.4847 16.2481 85.3256 16.6648C85.1703 17.0814 85.0926 17.572 85.0926 18.1364ZM97.5935 13.7727V15.3636H92.5765V13.7727H97.5935ZM93.8151 11.6818H95.8719V19.875C95.8719 20.1515 95.9136 20.3636 95.9969 20.5114C96.0841 20.6553 96.1977 20.7538 96.3378 20.8068C96.478 20.8598 96.6333 20.8864 96.8037 20.8864C96.9325 20.8864 97.05 20.8769 97.156 20.858C97.2659 20.839 97.3492 20.822 97.406 20.8068L97.7526 22.4148C97.6428 22.4527 97.4856 22.4943 97.281 22.5398C97.0803 22.5852 96.8341 22.6117 96.5424 22.6193C96.0272 22.6345 95.5632 22.5568 95.1503 22.3864C94.7375 22.2121 94.4098 21.9432 94.1674 21.5795C93.9287 21.2159 93.8113 20.7614 93.8151 20.2159V11.6818ZM101.985 22.6761C101.432 22.6761 100.934 22.5777 100.491 22.3807C100.051 22.1799 99.7029 21.8845 99.4453 21.4943C99.1915 21.1042 99.0646 20.6231 99.0646 20.0511C99.0646 19.5587 99.1555 19.1515 99.3373 18.8295C99.5191 18.5076 99.7673 18.25 100.082 18.0568C100.396 17.8636 100.75 17.7178 101.144 17.6193C101.542 17.517 101.953 17.4432 102.377 17.3977C102.888 17.3447 103.303 17.2973 103.621 17.2557C103.94 17.2102 104.171 17.142 104.315 17.0511C104.462 16.9564 104.536 16.8106 104.536 16.6136V16.5795C104.536 16.1515 104.409 15.8201 104.156 15.5852C103.902 15.3504 103.536 15.233 103.059 15.233C102.555 15.233 102.156 15.3428 101.86 15.5625C101.568 15.7822 101.371 16.0417 101.269 16.3409L99.3487 16.0682C99.5002 15.5379 99.7502 15.0947 100.099 14.7386C100.447 14.3788 100.873 14.1098 101.377 13.9318C101.881 13.75 102.438 13.6591 103.048 13.6591C103.468 13.6591 103.887 13.7083 104.303 13.8068C104.72 13.9053 105.101 14.0682 105.445 14.2955C105.79 14.5189 106.066 14.8239 106.275 15.2102C106.487 15.5966 106.593 16.0795 106.593 16.6591V22.5H104.616V21.3011H104.548C104.423 21.5436 104.246 21.7708 104.019 21.983C103.796 22.1913 103.513 22.3598 103.173 22.4886C102.835 22.6136 102.44 22.6761 101.985 22.6761ZM102.519 21.1648C102.932 21.1648 103.29 21.0833 103.593 20.9205C103.896 20.7538 104.129 20.5341 104.292 20.2614C104.459 19.9886 104.542 19.6913 104.542 19.3693V18.3409C104.477 18.3939 104.368 18.4432 104.212 18.4886C104.061 18.5341 103.89 18.5739 103.701 18.608C103.512 18.642 103.324 18.6723 103.138 18.6989C102.953 18.7254 102.792 18.7481 102.656 18.767C102.349 18.8087 102.074 18.8769 101.832 18.9716C101.589 19.0663 101.398 19.1989 101.258 19.3693C101.118 19.536 101.048 19.7519 101.048 20.017C101.048 20.3958 101.186 20.6818 101.462 20.875C101.739 21.0682 102.091 21.1648 102.519 21.1648ZM112.06 22.6534C111.374 22.6534 110.761 22.4773 110.219 22.125C109.677 21.7727 109.249 21.2614 108.935 20.5909C108.62 19.9205 108.463 19.1061 108.463 18.1477C108.463 17.178 108.622 16.3598 108.941 15.6932C109.262 15.0227 109.696 14.517 110.242 14.1761C110.787 13.8314 111.395 13.6591 112.066 13.6591C112.577 13.6591 112.997 13.7462 113.327 13.9205C113.656 14.0909 113.918 14.2973 114.111 14.5398C114.304 14.7784 114.454 15.0038 114.56 15.2159H114.645V10.8636H116.708V22.5H114.685V21.125H114.56C114.454 21.3371 114.3 21.5625 114.1 21.8011C113.899 22.036 113.634 22.2367 113.304 22.4034C112.975 22.5701 112.56 22.6534 112.06 22.6534ZM112.634 20.9659C113.069 20.9659 113.441 20.8485 113.747 20.6136C114.054 20.375 114.287 20.0436 114.446 19.6193C114.605 19.1951 114.685 18.7008 114.685 18.1364C114.685 17.572 114.605 17.0814 114.446 16.6648C114.291 16.2481 114.06 15.9242 113.753 15.6932C113.45 15.4621 113.077 15.3466 112.634 15.3466C112.175 15.3466 111.793 15.4659 111.486 15.7045C111.179 15.9432 110.948 16.2727 110.793 16.6932C110.637 17.1136 110.56 17.5947 110.56 18.1364C110.56 18.6818 110.637 19.1686 110.793 19.5966C110.952 20.0208 111.185 20.3561 111.492 20.6023C111.802 20.8447 112.183 20.9659 112.634 20.9659ZM122.866 22.6705C122.014 22.6705 121.275 22.483 120.65 22.108C120.025 21.733 119.54 21.2083 119.196 20.5341C118.855 19.8598 118.684 19.072 118.684 18.1705C118.684 17.2689 118.855 16.4792 119.196 15.8011C119.54 15.1231 120.025 14.5966 120.65 14.2216C121.275 13.8466 122.014 13.6591 122.866 13.6591C123.718 13.6591 124.457 13.8466 125.082 14.2216C125.707 14.5966 126.19 15.1231 126.531 15.8011C126.876 16.4792 127.048 17.2689 127.048 18.1705C127.048 19.072 126.876 19.8598 126.531 20.5341C126.19 21.2083 125.707 21.733 125.082 22.108C124.457 22.483 123.718 22.6705 122.866 22.6705ZM122.878 21.0227C123.34 21.0227 123.726 20.8958 124.037 20.642C124.347 20.3845 124.578 20.0398 124.73 19.608C124.885 19.1761 124.963 18.6951 124.963 18.1648C124.963 17.6307 124.885 17.1477 124.73 16.7159C124.578 16.2803 124.347 15.9337 124.037 15.6761C123.726 15.4186 123.34 15.2898 122.878 15.2898C122.404 15.2898 122.01 15.4186 121.696 15.6761C121.385 15.9337 121.152 16.2803 120.997 16.7159C120.845 17.1477 120.77 17.6307 120.77 18.1648C120.77 18.6951 120.845 19.1761 120.997 19.608C121.152 20.0398 121.385 20.3845 121.696 20.642C122.01 20.8958 122.404 21.0227 122.878 21.0227ZM135.851 16.0795L133.976 16.2841C133.923 16.0947 133.831 15.9167 133.698 15.75C133.569 15.5833 133.395 15.4489 133.175 15.3466C132.956 15.2443 132.687 15.1932 132.368 15.1932C131.94 15.1932 131.581 15.286 131.289 15.4716C131.001 15.6572 130.859 15.8977 130.863 16.1932C130.859 16.447 130.952 16.6534 131.141 16.8125C131.334 16.9716 131.653 17.1023 132.096 17.2045L133.584 17.5227C134.41 17.7008 135.024 17.983 135.425 18.3693C135.831 18.7557 136.035 19.2614 136.039 19.8864C136.035 20.4356 135.874 20.9205 135.556 21.3409C135.242 21.7576 134.804 22.0833 134.243 22.3182C133.683 22.553 133.039 22.6705 132.312 22.6705C131.243 22.6705 130.384 22.447 129.732 22C129.081 21.5492 128.692 20.9223 128.567 20.1193L130.573 19.9261C130.664 20.3201 130.857 20.6174 131.153 20.8182C131.448 21.0189 131.832 21.1193 132.306 21.1193C132.795 21.1193 133.187 21.0189 133.482 20.8182C133.781 20.6174 133.931 20.3693 133.931 20.0739C133.931 19.8239 133.834 19.6174 133.641 19.4545C133.452 19.2917 133.156 19.1667 132.755 19.0795L131.266 18.767C130.429 18.5928 129.81 18.2992 129.408 17.8864C129.007 17.4697 128.808 16.9432 128.812 16.3068C128.808 15.7689 128.954 15.303 129.249 14.9091C129.548 14.5114 129.963 14.2045 130.493 13.9886C131.028 13.7689 131.643 13.6591 132.34 13.6591C133.363 13.6591 134.168 13.8769 134.755 14.3125C135.346 14.7481 135.711 15.3371 135.851 16.0795Z" fill="white"/>
</svg>
