<svg width="170" height="54" viewBox="0 0 170 54" fill="none" xmlns="http://www.w3.org/2000/svg">
<rect x="0.2" y="0.2" width="169.6" height="53.1426" rx="15.8" fill="#001E30"/>
<rect x="0.2" y="0.2" width="169.6" height="53.1426" rx="15.8" stroke="#009DFF" stroke-width="0.4"/>
<g clip-path="url(#clip0_3028_8589)">
<path d="M48.8562 12H28.6864C26.0982 12 24 14.0982 24 16.6864V36.8562C24 39.4444 26.0982 41.5426 28.6864 41.5426H48.8562C51.4444 41.5426 53.5426 39.4444 53.5426 36.8562V16.6864C53.5426 14.0982 51.4444 12 48.8562 12Z" fill="#009DFF"/>
<path d="M36.0732 17.9736C38.1924 17.9736 39.2033 18.4911 40.1885 19.7482H40.3608C41.8394 18.4911 43.1211 17.9736 45.2157 17.9736C48.8878 17.9736 50.391 19.4769 49.6515 22.9023L48.0252 30.5174H44.5012L46.1029 23.0998C46.4235 21.4981 45.807 20.7831 44.2053 20.7831C42.6036 20.7831 41.6671 21.4981 41.322 23.0998L39.7449 30.5174H36.2209L37.798 23.0998C38.1432 21.4981 37.5021 20.7831 35.9004 20.7831C34.2987 20.7831 33.3622 21.5227 33.017 23.0998L31.44 30.5174H27.916L29.5423 22.9023C30.2573 19.4769 32.4257 17.9736 36.0727 17.9736H36.0732Z" fill="white"/>
<path d="M44.3033 31.1655C43.8597 32.2463 43.0163 32.7608 41.6421 32.7608C40.2678 32.7608 39.6405 32.2611 39.6568 31.1655H35.9984C35.5454 32.2606 34.6734 32.7608 33.3371 32.7608C32.0008 32.7608 31.3529 32.2611 31.3602 31.1655H27.794C27.3173 34.2197 28.8481 35.5698 32.3268 35.5698C34.4213 35.5698 35.703 35.0523 37.1816 33.7953H37.3539C38.3397 35.0523 39.35 35.5698 41.4692 35.5698C44.9242 35.5698 47.0518 34.2197 47.8741 31.1655H44.3033Z" fill="#00426E"/>
</g>
<path d="M70.3492 23.4224C70.3751 22.7727 70.1861 22.2711 69.7824 21.9176C69.3837 21.5642 68.7806 21.3874 67.9731 21.3874C67.4243 21.3874 66.948 21.4654 66.5443 21.6213C66.1405 21.7721 65.8169 21.9826 65.5736 22.2529C65.3355 22.518 65.1879 22.8247 65.131 23.1729C65.074 23.4588 65.0922 23.7083 65.1853 23.9214C65.2837 24.1346 65.4364 24.3191 65.6435 24.475C65.8557 24.6258 66.1068 24.7583 66.3967 24.8727C66.6866 24.9818 66.9946 25.0754 67.3208 25.1534L68.6875 25.4964C69.3553 25.6524 69.9558 25.8603 70.489 26.1202C71.0274 26.3801 71.4778 26.6997 71.8401 27.0792C72.2077 27.4586 72.4665 27.9057 72.6167 28.4203C72.7668 28.9349 72.7875 29.5248 72.6788 30.1902C72.5131 31.1674 72.1275 32.0147 71.5218 32.732C70.9161 33.4441 70.1214 33.9977 69.1378 34.3927C68.1542 34.7826 67.0153 34.9775 65.7211 34.9775C64.4373 34.9775 63.3527 34.78 62.4675 34.3849C61.5823 33.9899 60.9378 33.4051 60.534 32.6306C60.1353 31.8509 60.0163 30.8867 60.1768 29.738H63.4304C63.3734 30.2733 63.4511 30.7204 63.6634 31.079C63.8808 31.4325 64.2043 31.7002 64.634 31.8821C65.0637 32.0588 65.5684 32.1472 66.1482 32.1472C66.7229 32.1472 67.2328 32.064 67.678 31.8977C68.1284 31.7314 68.4933 31.5001 68.7729 31.2038C69.0524 30.9075 69.2233 30.567 69.2854 30.1824C69.3475 29.8237 69.2931 29.5222 69.1223 29.2779C68.9515 29.0336 68.6771 28.8257 68.2992 28.6542C67.9265 28.4774 67.4631 28.3215 66.9092 28.1864L65.2475 27.7497C63.9636 27.4223 62.993 26.9103 62.3355 26.2137C61.678 25.5172 61.4425 24.579 61.6289 23.399C61.7945 22.4322 62.1957 21.5876 62.8325 20.865C63.4744 20.1373 64.282 19.5733 65.2552 19.1731C66.2336 18.7677 67.3027 18.5649 68.4623 18.5649C69.6426 18.5649 70.6391 18.7703 71.4519 19.1809C72.2646 19.5863 72.8574 20.1529 73.2301 20.8806C73.6028 21.6083 73.7167 22.4556 73.5718 23.4224H70.3492Z" fill="#009DFF"/>
<path d="M80.1897 18.7833L77.5495 34.7514H74.1872L76.8274 18.7833H80.1897Z" fill="#009DFF"/>
<path d="M82.9561 18.7833H87.1027L89.7196 29.5118H89.906L96.0483 18.7833H100.195L97.5547 34.7514H94.2933L96.0172 24.3581H95.8774L90.069 34.6734H87.8404L85.4487 24.3191H85.3167L83.5773 34.7514H80.3159L82.9561 18.7833Z" fill="#009DFF"/>
<path d="M106.955 21.5668L107.42 18.7833H120.482L120.016 21.5668H115.147L112.973 34.7514H109.649L111.823 21.5668H106.955Z" fill="#009DFF"/>
<path d="M125.995 18.7833L123.355 34.7514H119.992L122.633 18.7833H125.995Z" fill="#009DFF"/>
<path d="M128.761 18.7833H132.908L135.525 29.5118H135.711L141.853 18.7833H146L143.36 34.7514H140.098L141.822 24.3581H141.683L135.874 34.6734H133.646L131.254 24.3191H131.122L129.382 34.7514H126.121L128.761 18.7833Z" fill="#009DFF"/>
<defs>
<clipPath id="clip0_3028_8589">
<rect width="29.5426" height="29.5426" fill="white" transform="translate(24 12)"/>
</clipPath>
</defs>
</svg>
