<svg xmlns="http://www.w3.org/2000/svg" xmlns:xlink="http://www.w3.org/1999/xlink" width="500" zoomAndPan="magnify" viewBox="0 0 375 374.999991" height="500" preserveAspectRatio="xMidYMid meet" version="1.0"><path fill="#000000" d="M 88.25 0 L 286.804688 0 C 288.25 0 289.695312 0.0351562 291.136719 0.105469 C 292.578125 0.175781 294.019531 0.285156 295.457031 0.425781 C 296.894531 0.566406 298.328125 0.742188 299.753906 0.957031 C 301.183594 1.167969 302.605469 1.414062 304.023438 1.695312 C 305.4375 1.976562 306.847656 2.292969 308.25 2.644531 C 309.648438 2.996094 311.042969 3.378906 312.421875 3.800781 C 313.804688 4.21875 315.175781 4.671875 316.535156 5.15625 C 317.894531 5.644531 319.242188 6.164062 320.578125 6.714844 C 321.910156 7.269531 323.230469 7.855469 324.539062 8.472656 C 325.84375 9.089844 327.132812 9.738281 328.40625 10.417969 C 329.679688 11.101562 330.9375 11.8125 332.175781 12.554688 C 333.414062 13.296875 334.632812 14.066406 335.835938 14.871094 C 337.035156 15.671875 338.214844 16.503906 339.375 17.363281 C 340.535156 18.222656 341.675781 19.113281 342.789062 20.027344 C 343.90625 20.945312 345 21.886719 346.070312 22.859375 C 347.140625 23.828125 348.1875 24.824219 349.207031 25.84375 C 350.230469 26.863281 351.222656 27.910156 352.195312 28.980469 C 353.164062 30.050781 354.105469 31.144531 355.023438 32.257812 C 355.941406 33.375 356.828125 34.515625 357.6875 35.671875 C 358.546875 36.832031 359.378906 38.015625 360.183594 39.214844 C 360.984375 40.414062 361.757812 41.636719 362.5 42.875 C 363.242188 44.113281 363.953125 45.367188 364.632812 46.640625 C 365.316406 47.914062 365.964844 49.203125 366.582031 50.511719 C 367.199219 51.816406 367.785156 53.136719 368.335938 54.46875 C 368.890625 55.804688 369.410156 57.148438 369.894531 58.511719 C 370.382812 59.871094 370.835938 61.242188 371.253906 62.621094 C 371.675781 64.003906 372.058594 65.394531 372.410156 66.796875 C 372.761719 68.195312 373.078125 69.605469 373.359375 71.023438 C 373.640625 72.4375 373.886719 73.859375 374.097656 75.289062 C 374.3125 76.71875 374.488281 78.148438 374.628906 79.585938 C 374.769531 81.023438 374.878906 82.464844 374.949219 83.90625 C 375.019531 85.347656 375.054688 86.792969 375.054688 88.234375 L 375.054688 286.765625 C 375.054688 288.207031 375.019531 289.652344 374.949219 291.09375 C 374.878906 292.535156 374.769531 293.976562 374.628906 295.414062 C 374.488281 296.851562 374.3125 298.28125 374.097656 299.710938 C 373.886719 301.140625 373.640625 302.5625 373.359375 303.976562 C 373.078125 305.394531 372.761719 306.804688 372.410156 308.203125 C 372.058594 309.605469 371.675781 310.996094 371.253906 312.378906 C 370.835938 313.757812 370.382812 315.128906 369.894531 316.488281 C 369.410156 317.851562 368.890625 319.195312 368.335938 320.53125 C 367.785156 321.863281 367.199219 323.183594 366.582031 324.488281 C 365.964844 325.796875 365.316406 327.085938 364.632812 328.359375 C 363.953125 329.632812 363.242188 330.886719 362.5 332.125 C 361.757812 333.363281 360.984375 334.585938 360.183594 335.785156 C 359.378906 336.984375 358.546875 338.167969 357.6875 339.324219 C 356.828125 340.484375 355.941406 341.625 355.023438 342.742188 C 354.105469 343.855469 353.164062 344.949219 352.195312 346.019531 C 351.222656 347.089844 350.230469 348.136719 349.207031 349.15625 C 348.1875 350.175781 347.140625 351.171875 346.070312 352.140625 C 345 353.113281 343.90625 354.054688 342.789062 354.972656 C 341.675781 355.886719 340.535156 356.777344 339.375 357.636719 C 338.214844 358.496094 337.035156 359.328125 335.835938 360.128906 C 334.632812 360.933594 333.414062 361.703125 332.175781 362.445312 C 330.9375 363.1875 329.679688 363.898438 328.40625 364.582031 C 327.132812 365.261719 325.84375 365.910156 324.539062 366.527344 C 323.230469 367.144531 321.910156 367.730469 320.578125 368.28125 C 319.242188 368.835938 317.894531 369.355469 316.535156 369.84375 C 315.175781 370.328125 313.804688 370.78125 312.421875 371.199219 C 311.042969 371.621094 309.648438 372.003906 308.25 372.355469 C 306.847656 372.707031 305.4375 373.023438 304.023438 373.304688 C 302.605469 373.585938 301.183594 373.832031 299.753906 374.042969 C 298.328125 374.257812 296.894531 374.433594 295.457031 374.574219 C 294.019531 374.714844 292.578125 374.824219 291.136719 374.894531 C 289.695312 374.964844 288.25 375 286.804688 375 L 88.25 375 C 86.804688 375 85.359375 374.964844 83.917969 374.894531 C 82.476562 374.824219 81.035156 374.714844 79.597656 374.574219 C 78.160156 374.433594 76.726562 374.257812 75.300781 374.042969 C 73.871094 373.832031 72.449219 373.585938 71.03125 373.304688 C 69.617188 373.023438 68.207031 372.707031 66.804688 372.355469 C 65.40625 372.003906 64.011719 371.621094 62.632812 371.199219 C 61.25 370.78125 59.878906 370.328125 58.519531 369.84375 C 57.160156 369.355469 55.8125 368.835938 54.476562 368.28125 C 53.144531 367.730469 51.824219 367.144531 50.515625 366.527344 C 49.210938 365.910156 47.921875 365.261719 46.648438 364.582031 C 45.375 363.898438 44.117188 363.1875 42.878906 362.445312 C 41.640625 361.703125 40.421875 360.933594 39.21875 360.128906 C 38.019531 359.328125 36.839844 358.496094 35.679688 357.636719 C 34.519531 356.777344 33.378906 355.886719 32.265625 354.972656 C 31.148438 354.054688 30.054688 353.113281 28.984375 352.140625 C 27.914062 351.171875 26.867188 350.175781 25.847656 349.15625 C 24.824219 348.136719 23.832031 347.089844 22.859375 346.019531 C 21.890625 344.949219 20.949219 343.855469 20.03125 342.742188 C 19.113281 341.625 18.226562 340.484375 17.367188 339.324219 C 16.507812 338.167969 15.675781 336.984375 14.871094 335.785156 C 14.070312 334.585938 13.296875 333.363281 12.554688 332.125 C 11.8125 330.886719 11.101562 329.632812 10.421875 328.359375 C 9.738281 327.085938 9.089844 325.796875 8.472656 324.488281 C 7.855469 323.183594 7.269531 321.863281 6.71875 320.53125 C 6.164062 319.195312 5.644531 317.851562 5.160156 316.488281 C 4.671875 315.128906 4.21875 313.757812 3.800781 312.378906 C 3.378906 310.996094 2.996094 309.605469 2.644531 308.203125 C 2.292969 306.804688 1.976562 305.394531 1.695312 303.976562 C 1.414062 302.5625 1.167969 301.140625 0.957031 299.710938 C 0.742188 298.28125 0.566406 296.851562 0.425781 295.414062 C 0.285156 293.976562 0.175781 292.535156 0.105469 291.09375 C 0.0351562 289.652344 0 288.207031 0 286.765625 L 0 88.234375 C 0 86.792969 0.0351562 85.347656 0.105469 83.90625 C 0.175781 82.464844 0.285156 81.023438 0.425781 79.585938 C 0.566406 78.148438 0.742188 76.71875 0.957031 75.289062 C 1.167969 73.859375 1.414062 72.4375 1.695312 71.023438 C 1.976562 69.605469 2.292969 68.195312 2.644531 66.796875 C 2.996094 65.394531 3.378906 64.003906 3.800781 62.621094 C 4.21875 61.242188 4.671875 59.871094 5.160156 58.511719 C 5.644531 57.148438 6.164062 55.804688 6.71875 54.46875 C 7.269531 53.136719 7.855469 51.816406 8.472656 50.511719 C 9.089844 49.203125 9.738281 47.914062 10.421875 46.640625 C 11.101562 45.367188 11.8125 44.113281 12.554688 42.875 C 13.296875 41.636719 14.070312 40.414062 14.871094 39.214844 C 15.675781 38.015625 16.507812 36.832031 17.367188 35.671875 C 18.226562 34.515625 19.113281 33.375 20.03125 32.257812 C 20.949219 31.144531 21.890625 30.050781 22.859375 28.980469 C 23.832031 27.910156 24.824219 26.863281 25.847656 25.84375 C 26.867188 24.824219 27.914062 23.828125 28.984375 22.859375 C 30.054688 21.886719 31.148438 20.945312 32.265625 20.027344 C 33.378906 19.113281 34.519531 18.222656 35.679688 17.363281 C 36.839844 16.503906 38.019531 15.671875 39.21875 14.871094 C 40.421875 14.066406 41.640625 13.296875 42.878906 12.554688 C 44.117188 11.8125 45.375 11.101562 46.648438 10.417969 C 47.921875 9.738281 49.210938 9.089844 50.515625 8.472656 C 51.824219 7.855469 53.144531 7.269531 54.476562 6.714844 C 55.8125 6.164062 57.160156 5.644531 58.519531 5.15625 C 59.878906 4.671875 61.25 4.21875 62.632812 3.800781 C 64.011719 3.378906 65.40625 2.996094 66.804688 2.644531 C 68.207031 2.292969 69.617188 1.976562 71.03125 1.695312 C 72.449219 1.414062 73.871094 1.167969 75.300781 0.957031 C 76.726562 0.742188 78.160156 0.566406 79.597656 0.425781 C 81.035156 0.285156 82.476562 0.175781 83.917969 0.105469 C 85.359375 0.0351562 86.804688 0 88.25 0 Z M 88.25 0 " fill-opacity="1" fill-rule="nonzero"/><path fill="#ffffff" d="M 291.210938 102.964844 L 290.757812 98.867188 L 280.675781 94.765625 C 252.125 83.121094 221.574219 77.164062 190.742188 77.226562 C 159.214844 76.953125 127.957031 83.042969 98.839844 95.136719 L 89.65625 99.4375 L 89.246094 103.539062 C 86.976562 129.421875 88.757812 155.5 94.535156 180.835938 C 107.367188 232.722656 137.738281 271.78125 182.335938 293.707031 L 190.535156 297.804688 L 198.488281 293.707031 C 243.128906 271.78125 273.5 232.722656 286.289062 180.835938 C 291.96875 155.292969 293.628906 129.019531 291.210938 102.964844 Z M 278.910156 179.113281 C 266.613281 228.867188 237.59375 266.246094 194.921875 287.230469 L 190.167969 289.609375 L 185.371094 287.230469 C 142.699219 266.246094 113.679688 228.867188 101.382812 179.113281 C 95.867188 154.503906 94.191406 129.191406 96.421875 104.070312 L 101.914062 101.53125 C 130.058594 89.855469 160.273438 83.984375 190.742188 84.273438 C 220.636719 84.214844 250.257812 90.007812 277.925781 101.324219 L 283.871094 103.742188 C 286.164062 128.988281 284.546875 154.441406 279.074219 179.195312 Z M 278.910156 179.113281 " fill-opacity="1" fill-rule="nonzero"/><path fill="#ffffff" d="M 106.628906 111.414062 C 105.621094 123.492188 105.785156 135.640625 107.121094 147.6875 C 107.652344 153.054688 108.429688 158.835938 109.539062 164.898438 C 112.734375 163.589844 118.394531 161.457031 126.140625 159.164062 C 168.035156 146.84375 212.585938 146.84375 254.480469 159.164062 C 253.703125 163.710938 252.71875 168.507812 251.488281 173.382812 C 251.242188 174.367188 250.957031 175.308594 250.710938 176.292969 C 211.191406 165.414062 169.46875 165.414062 129.953125 176.292969 C 122.941406 178.21875 117.367188 180.105469 113.554688 181.582031 C 115.066406 187.132812 116.855469 192.605469 118.925781 197.972656 C 120.980469 203.449219 123.347656 208.796875 126.015625 214 C 128.777344 219.445312 131.871094 224.714844 135.28125 229.777344 C 140.855469 228.386719 147.128906 227.074219 154.011719 225.96875 C 178.226562 222.003906 202.925781 222.003906 227.140625 225.96875 C 222.671875 231.871094 217.679688 237.359375 212.21875 242.359375 C 205.5625 248.382812 198.28125 253.671875 190.496094 258.140625 C 182.710938 253.65625 175.425781 248.355469 168.769531 242.320312 C 161.023438 243.058594 153.851562 244.164062 147.332031 245.394531 C 152.464844 251.078125 158.058594 256.328125 164.054688 261.089844 C 172.199219 267.484375 181.007812 272.980469 190.332031 277.484375 C 199.691406 272.917969 208.527344 267.351562 216.6875 260.886719 C 222.679688 256.132812 228.261719 250.882812 233.371094 245.1875 C 237.828125 240.316406 241.9375 235.140625 245.667969 229.695312 C 249.050781 224.652344 252.128906 219.410156 254.890625 214 C 249.070312 212.238281 243.332031 210.761719 237.675781 209.53125 C 206.589844 202.972656 174.480469 202.972656 143.398438 209.53125 C 140.46875 204.238281 137.882812 198.761719 135.648438 193.136719 C 171.652344 184.195312 209.296875 184.195312 245.300781 193.136719 C 250.792969 194.53125 256.324219 196.171875 261.941406 198.097656 C 264.074219 192.566406 265.835938 187.070312 267.3125 181.703125 C 268.789062 176.335938 270.179688 170.351562 271.164062 164.941406 C 272.3125 158.835938 273.089844 153.015625 273.664062 147.605469 C 267.964844 145.308594 262.351562 143.300781 256.777344 141.582031 C 213.535156 128.367188 167.332031 128.367188 124.089844 141.582031 C 123.515625 134.449219 123.394531 128.261719 123.476562 123.503906 C 167.074219 110.0625 213.710938 110.0625 257.308594 123.503906 C 262.84375 125.269531 268.457031 127.234375 274.074219 129.53125 L 274.730469 129.777344 C 274.871094 123.636719 274.664062 117.492188 274.117188 111.375 C 220.375 89.765625 160.359375 89.777344 106.628906 111.414062 Z M 106.628906 111.414062 " fill-opacity="1" fill-rule="nonzero"/></svg>