<svg width="64" height="64" viewBox="0 0 64 64" fill="none" xmlns="http://www.w3.org/2000/svg">
<rect width="64" height="64" rx="21.3333" fill="white"/>
<g clip-path="url(#clip0_9042_1400)">
<path d="M26.2401 8.70115L26.7801 10.8835C24.6559 11.4059 22.6229 12.2466 20.7501 13.377L19.5951 11.4495C21.6588 10.2036 23.8992 9.277 26.2401 8.70115ZM37.7601 8.70115L37.2201 10.8835C39.3443 11.4059 41.3773 12.2466 43.2501 13.377L44.4126 11.4495C42.3465 10.2029 40.1036 9.27628 37.7601 8.70115ZM11.4501 19.594C10.2041 21.6575 9.27735 23.8977 8.70134 26.2384L10.8838 26.7784C11.4064 24.6544 12.2471 22.6216 13.3776 20.749L11.4501 19.594ZM10.2501 31.998C10.2495 30.9073 10.331 29.818 10.4938 28.7395L8.27009 28.402C7.90997 30.7858 7.90997 33.2102 8.27009 35.5941L10.4938 35.2566C10.331 34.178 10.2495 33.0888 10.2501 31.998ZM44.4051 52.5465L43.2501 50.619C41.3796 51.7489 39.3492 52.5896 37.2276 53.1128L37.7676 55.2949C40.1059 54.7183 42.3437 53.7918 44.4051 52.5465ZM53.7501 31.998C53.7507 33.0888 53.6692 34.178 53.5063 35.2566L55.7301 35.5941C56.0902 33.2103 56.0902 30.7859 55.7301 28.4022L53.5063 28.7397C53.6692 29.8181 53.7506 30.9073 53.7501 31.998ZM55.2988 37.7576L53.1163 37.2177C52.5938 39.3417 51.7531 41.3745 50.6226 43.2471L52.5501 44.4096C53.7968 42.3437 54.7235 40.101 55.2988 37.7576ZM35.2588 53.5061C33.0985 53.8312 30.9017 53.8312 28.7413 53.5061L28.4038 55.7299C30.7878 56.0898 33.2123 56.0898 35.5963 55.7299L35.2588 53.5061ZM49.5088 44.9007C48.2116 46.6575 46.6581 48.2096 44.9001 49.5053L46.2351 51.3163C48.1743 49.8906 49.8885 48.1816 51.3201 46.2467L49.5088 44.9007ZM44.9001 14.4906C46.6583 15.7874 48.2119 17.3408 49.5088 19.099L51.3201 17.749C49.893 15.8153 48.184 14.1065 46.2501 12.6797L44.9001 14.4906ZM14.4913 19.099C15.7883 17.3408 17.3418 15.7874 19.1001 14.4906L17.7501 12.6795C15.8161 14.1064 14.1071 15.8153 12.6801 17.7492L14.4913 19.099ZM52.5501 19.594L50.6226 20.749C51.7524 22.6192 52.5931 24.6495 53.1163 26.7709L55.2988 26.2309C54.7221 23.8928 53.7954 21.6552 52.5501 19.594ZM28.7413 10.4937C30.9017 10.1686 33.0985 10.1686 35.2588 10.4937L35.5963 8.2699C33.2123 7.91003 30.7878 7.91003 28.4038 8.2699L28.7413 10.4937ZM15.6463 51.9128L11.0001 52.9965L12.0838 48.3505L9.89384 47.8367L8.81009 52.4828C8.72276 52.8555 8.73201 53.2444 8.83695 53.6126C8.9419 53.9807 9.13907 54.316 9.40979 54.5867C9.68052 54.8574 10.0159 55.0545 10.384 55.1594C10.7522 55.2643 11.1411 55.2735 11.5138 55.1861L16.1563 54.1211L15.6463 51.9128ZM10.3626 45.8307L12.5526 46.3406L13.3026 43.1196C12.2095 41.2824 11.3944 39.2936 10.8838 37.2177L8.70134 37.7576C9.19057 39.7459 9.9342 41.6628 10.9138 43.4608L10.3626 45.8307ZM20.8626 50.7053L17.6413 51.4553L18.1513 53.6453L20.5213 53.094C22.3196 54.0736 24.2366 54.8171 26.2251 55.3062L26.7651 53.1238C24.6934 52.6073 22.7094 51.7873 20.8776 50.6903L20.8626 50.7053ZM32.0001 12.4995C24.9045 12.5033 18.3707 16.3607 14.9404 22.5715C11.5101 28.7824 11.7244 36.3662 15.5001 42.3733L13.6251 50.3715L21.6238 48.4967C28.6397 52.9153 37.6826 52.4143 44.1675 47.248C50.6524 42.0816 53.1606 33.3795 50.4206 25.5546C47.6807 17.7293 40.2913 12.4928 32.0001 12.4995Z" fill="#3A76F0"/>
</g>
<defs>
<clipPath id="clip0_9042_1400">
<rect width="48" height="48" fill="white" transform="translate(8 8)"/>
</clipPath>
</defs>
</svg>
