<svg width="64" height="64" viewBox="0 0 64 64" fill="none" xmlns="http://www.w3.org/2000/svg">
<rect width="64" height="64" rx="21.3333" fill="white"/>
<g clip-path="url(#clip0_9042_1395)">
<path d="M32 8C25.6362 8 19.5275 10.5301 15.0312 15.0294C10.5304 19.5304 8.00129 25.6347 8 32C8 38.3626 10.5312 44.4714 15.0312 48.9706C19.5275 53.4699 25.6362 56 32 56C38.3638 56 44.4725 53.4699 48.9688 48.9706C53.4688 44.4714 56 38.3626 56 32C56 25.6374 53.4688 19.5286 48.9688 15.0294C44.4725 10.5301 38.3638 8 32 8Z" fill="url(#paint0_linear_9042_1395)"/>
<path d="M18.8642 31.7467C25.8617 28.6987 30.5267 26.6892 32.8592 25.7182C39.5267 22.9459 40.9104 22.4644 41.8142 22.448C42.0129 22.4449 42.4554 22.494 42.7442 22.7274C42.9842 22.9243 43.0517 23.1905 43.0854 23.3775C43.1154 23.5642 43.1567 23.9899 43.1229 24.3221C42.7629 28.1171 41.1992 37.3264 40.4042 41.577C40.0704 43.3755 39.4067 43.9785 38.7654 44.0374C37.3704 44.1656 36.3129 43.1164 34.9629 42.2317C32.8517 40.8469 31.6592 39.9851 29.6079 38.634C27.2379 37.0725 28.7754 36.2141 30.1254 34.8116C30.4779 34.4445 36.6204 28.8589 36.7367 28.3522C36.7517 28.2889 36.7667 28.0526 36.6242 27.9281C36.4854 27.8032 36.2792 27.846 36.1292 27.8797C35.9154 27.9277 32.5442 30.1582 26.0042 34.5709C25.0479 35.2286 24.1817 35.5492 23.4017 35.5324C22.5467 35.514 20.8967 35.0479 19.6704 34.6496C18.1704 34.161 16.9742 33.9026 17.0792 33.0727C17.1317 32.6407 17.7279 32.1986 18.8642 31.7467Z" fill="white"/>
</g>
<defs>
<linearGradient id="paint0_linear_9042_1395" x1="32" y1="8" x2="32" y2="56" gradientUnits="userSpaceOnUse">
<stop stop-color="#2AABEE"/>
<stop offset="1" stop-color="#229ED9"/>
</linearGradient>
<clipPath id="clip0_9042_1395">
<rect width="48" height="48" fill="white" transform="translate(8 8)"/>
</clipPath>
</defs>
</svg>
