<svg width="64" height="64" viewBox="0 0 64 64" fill="none" xmlns="http://www.w3.org/2000/svg">
<rect width="64" height="64" rx="21.3333" fill="white"/>
<g clip-path="url(#clip0_9042_1389)">
<path d="M9.02662 31.7126C9.0255 35.7455 10.0875 39.6834 12.1069 43.1543L8.8335 55.0132L21.0645 51.8311C24.4474 53.6584 28.2378 54.6159 32.0895 54.6162H32.0996C44.8149 54.6162 55.1655 44.3496 55.1709 31.7306C55.1734 25.6158 52.7756 19.8659 48.4192 15.5399C44.0636 11.2144 38.2708 8.83092 32.0987 8.82812C19.3819 8.82812 9.03206 19.0942 9.02681 31.7126" fill="url(#paint0_linear_9042_1389)"/>
<path d="M8.20063 31.7053C8.19931 35.8834 9.29937 39.962 11.3907 43.5572L8 55.8413L20.6696 52.5451C24.1604 54.4337 28.0908 55.4294 32.0902 55.4309H32.1005C45.272 55.4309 55.9944 44.795 56 31.7243C56.0023 25.3898 53.5182 19.4331 49.0062 14.9522C44.4937 10.4718 38.4937 8.0026 32.1005 8C18.9267 8 8.20588 18.6344 8.20063 31.7053ZM15.7458 42.938L15.2727 42.1929C13.2841 39.0554 12.2345 35.4298 12.236 31.7068C12.2401 20.8426 21.1509 12.0037 32.108 12.0037C37.4143 12.006 42.401 14.0584 46.1517 17.7823C49.9023 21.5066 51.9661 26.4573 51.9648 31.7228C51.9599 42.587 43.049 51.427 32.1005 51.427H32.0926C28.5277 51.4251 25.0314 50.4752 21.9823 48.68L21.2566 48.253L13.7382 50.2089L15.7458 42.938Z" fill="url(#paint1_linear_9042_1389)"/>
<path d="M26.1291 21.7928C25.6817 20.8062 25.2109 20.7863 24.7855 20.769C24.4371 20.7541 24.0389 20.7552 23.641 20.7552C23.2427 20.7552 22.5957 20.9039 22.0487 21.4964C21.5012 22.0896 19.9585 23.5229 19.9585 26.438C19.9585 29.3532 22.0984 32.1707 22.3967 32.5664C22.6954 32.9614 26.5279 39.1351 32.5977 41.5102C37.6422 43.484 38.6687 43.0914 39.7636 42.9924C40.8586 42.8938 43.2968 41.5595 43.7942 40.1759C44.2921 38.7924 44.2921 37.6066 44.1428 37.3588C43.9936 37.1119 43.5953 36.9636 42.9981 36.6674C42.4009 36.3712 39.4649 34.9376 38.9176 34.7398C38.3701 34.5422 37.972 34.4436 37.5737 35.0369C37.1755 35.6293 36.0319 36.9636 35.6834 37.3588C35.3352 37.7549 34.9866 37.8042 34.3896 37.5078C33.7921 37.2105 31.8689 36.5856 29.5872 34.5671C27.8119 32.9965 26.6134 31.057 26.2651 30.4637C25.9167 29.8713 26.2277 29.5502 26.5272 29.255C26.7955 28.9895 27.1246 28.5631 27.4234 28.2172C27.7212 27.8711 27.8206 27.6243 28.0197 27.2291C28.219 26.8336 28.1192 26.4875 27.9702 26.1911C27.8206 25.8948 26.6601 22.9644 26.1291 21.7928Z" fill="white"/>
</g>
<defs>
<linearGradient id="paint0_linear_9042_1389" x1="32.0022" y1="55.0132" x2="32.0022" y2="8.82812" gradientUnits="userSpaceOnUse">
<stop stop-color="#1FAF38"/>
<stop offset="1" stop-color="#60D669"/>
</linearGradient>
<linearGradient id="paint1_linear_9042_1389" x1="32" y1="55.8413" x2="32" y2="8" gradientUnits="userSpaceOnUse">
<stop stop-color="#F9F9F9"/>
<stop offset="1" stop-color="white"/>
</linearGradient>
<clipPath id="clip0_9042_1389">
<rect width="48" height="48" fill="white" transform="translate(8 8)"/>
</clipPath>
</defs>
</svg>
