<svg width="36" height="30" viewBox="0 0 36 30" fill="none" xmlns="http://www.w3.org/2000/svg">
<path d="M31.4667 0.475373H3.84653C2.95242 0.475373 2.09493 0.830562 1.46269 1.46279C0.830464 2.09502 0.475281 2.95251 0.475281 3.84662V19.4025C0.475281 20.2966 0.830464 21.1541 1.46269 21.7863C2.09493 22.4186 2.95242 22.7738 3.84653 22.7738H23.0434L26.4676 28.6445L28.8756 22.7738H31.4811C32.3752 22.7738 33.2327 22.4186 33.8649 21.7863C34.4972 21.1541 34.8523 20.2966 34.8523 19.4025V3.82736C34.8473 2.93408 34.4878 2.07934 33.853 1.45086C33.2182 0.822375 32.3599 0.47153 31.4667 0.475373Z" fill="#00485D" stroke="#00485D" stroke-width="0.950618" stroke-linecap="round" stroke-linejoin="round"/>
</svg>
