<svg width="31" height="23" viewBox="0 0 31 23" fill="none" xmlns="http://www.w3.org/2000/svg">
<path d="M26.777 10.6847C26.9766 9.61817 26.857 8.51651 26.4334 7.51762C26.0098 6.51874 25.301 5.66701 24.3956 5.06908C23.4902 4.47116 22.4286 4.1536 21.3436 4.15618C20.2586 4.15876 19.1985 4.48135 18.2959 5.08358C17.6409 3.49061 16.4533 2.17442 14.9358 1.35975C13.4183 0.54508 11.665 0.282466 9.97537 0.616751C8.28576 0.951035 6.76459 1.86149 5.67161 3.19263C4.57863 4.52378 3.98164 6.19306 3.98258 7.91542C3.98258 8.00693 3.98258 8.09362 3.98258 8.18512C2.9162 8.49146 1.98727 9.15452 1.35104 10.0635C0.714809 10.9725 0.409827 12.0723 0.487073 13.1791C0.564319 14.2859 1.01911 15.3327 1.77544 16.1444C2.53176 16.9562 3.54379 17.4838 4.64238 17.6391V17.6872H26.5362C27.4421 17.6825 28.3109 17.3274 28.9607 16.6962C29.6105 16.0651 29.9908 15.207 30.022 14.3017C30.0531 13.3964 29.7326 12.5141 29.1277 11.8398C28.5228 11.1656 27.6804 10.7516 26.777 10.6847Z" fill="white" stroke="#00485D" stroke-width="0.950618" stroke-linecap="round" stroke-linejoin="round"/>
<path d="M20.5505 15.4474L14.487 7.80908L8.41879 15.4474H10.7931V22.3151H18.1809V15.4474H20.5505Z" fill="#00485D" stroke="#00485D" stroke-width="0.950618" stroke-linecap="round" stroke-linejoin="round"/>
<path d="M20.5505 13.9706L14.487 6.33716L8.41879 13.9706H10.7931V20.8431H18.1809V13.9706H20.5505Z" fill="#009DFF" stroke="#00485D" stroke-width="0.950618" stroke-linecap="round" stroke-linejoin="round"/>
</svg>
