<svg width="41" height="28" viewBox="0 0 41 28" fill="none" xmlns="http://www.w3.org/2000/svg">
<path d="M25.1335 16.2187V12.5055L21.4252 12.0961C21.2253 11.3208 20.919 10.5768 20.5149 9.88556L22.8603 6.95739L20.2356 4.33264L17.3171 6.66361C16.6278 6.25888 15.8876 5.94791 15.1161 5.73893L14.7019 2.01611H10.9887L10.5746 5.72448C9.80007 5.92468 9.05639 6.22927 8.36399 6.6299L5.43582 4.28929L2.81107 6.91405L5.12278 9.83258C4.71756 10.521 4.40809 11.2615 4.20291 12.0335L0.475281 12.4477V16.1609L4.18365 16.5751C4.38427 17.3502 4.69056 18.094 5.09388 18.7857L2.74846 21.7138L5.37803 24.3386L8.29175 22.0076C8.98061 22.412 9.72095 22.7214 10.4927 22.9275L10.9117 26.6551H14.6201L15.0342 22.9467C15.8089 22.7449 16.5526 22.4387 17.2448 22.0365L20.173 24.3771L22.7977 21.7523L20.4668 18.8386C20.8715 18.1477 21.1825 17.4059 21.3914 16.6329L25.1335 16.2187ZM12.8285 18.7664C11.9522 18.7664 11.0955 18.5065 10.3669 18.0197C9.63823 17.5328 9.07033 16.8408 8.73497 16.0312C8.39962 15.2216 8.31188 14.3307 8.48284 13.4712C8.6538 12.6117 9.07579 11.8222 9.69545 11.2026C10.3151 10.5829 11.1046 10.1609 11.9641 9.98996C12.8236 9.81899 13.7145 9.90674 14.5241 10.2421C15.3337 10.5775 16.0257 11.1454 16.5125 11.874C16.9994 12.6026 17.2593 13.4593 17.2593 14.3356C17.2593 15.5107 16.7924 16.6377 15.9615 17.4686C15.1306 18.2996 14.0036 18.7664 12.8285 18.7664Z" fill="#009DFF" stroke="#00485D" stroke-width="0.950618" stroke-linecap="round" stroke-linejoin="round"/>
<path d="M39.7268 8.76996L39.3126 6.30895L36.8131 6.44862C36.5929 5.95834 36.3079 5.49991 35.9655 5.08567L37.1936 2.88955L35.1612 1.44473L33.49 3.31336C32.9898 3.11812 32.4644 2.99489 31.9296 2.94734L31.2457 0.539307L28.7847 0.953488L28.9244 3.45303C28.4331 3.67135 27.9745 3.9566 27.5614 4.30065L25.3509 3.05329L23.906 5.08085L25.7747 6.75203C25.5801 7.25437 25.4553 7.78101 25.4038 8.31725L22.9958 9.00113L23.4052 11.4621L25.9047 11.3225C26.1248 11.8128 26.4099 12.2712 26.7523 12.6854L25.529 14.8815L27.5566 16.3264L29.2278 14.4577C29.7281 14.6524 30.2534 14.7756 30.7882 14.8238L31.4769 17.2318L33.9331 16.8176L33.7982 14.3181C34.2895 14.0997 34.7481 13.8145 35.1612 13.4704L37.3573 14.6985L38.8021 12.671L36.9335 10.9998C37.1242 10.4966 37.2473 9.97022 37.2995 9.43458L39.7268 8.76996ZM31.8525 11.8185C31.273 11.9151 30.6779 11.8378 30.1423 11.5962C29.6067 11.3547 29.1548 10.9598 28.8436 10.4615C28.5324 9.96317 28.3759 9.38378 28.3939 8.79655C28.4118 8.20931 28.6035 7.64058 28.9446 7.16223C29.2857 6.68388 29.7609 6.31738 30.3103 6.10904C30.8596 5.90071 31.4584 5.85989 32.0309 5.99175C32.6034 6.12361 33.124 6.42222 33.5269 6.84985C33.9297 7.27749 34.1968 7.81494 34.2943 8.39431C34.3591 8.77951 34.3474 9.17371 34.2597 9.55436C34.172 9.93501 34.0102 10.2946 33.7834 10.6127C33.5566 10.9307 33.2693 11.2009 32.938 11.4078C32.6067 11.6147 32.2378 11.7543 31.8525 11.8185Z" fill="#00485D" stroke="#00485D" stroke-width="0.950618" stroke-miterlimit="10"/>
</svg>
