<svg width="34" height="30" viewBox="0 0 34 30" fill="none" xmlns="http://www.w3.org/2000/svg">
<path d="M25.3062 29.2175H31.5141L31.5141 6.10524H25.3062L25.3062 29.2175Z" fill="#009DFF" stroke="#70DDFF" stroke-width="0.950618" stroke-linecap="round" stroke-linejoin="round"/>
<path d="M17.0278 29.2224H23.2357L23.2357 11.2826H17.0278V29.2224Z" fill="#70DDFF" stroke="#70DDFF" stroke-width="0.950618" stroke-miterlimit="10"/>
<path d="M8.75447 29.2175H14.9624L14.9624 15.4195H8.75447L8.75447 29.2175Z" fill="#009DFF" stroke="#70DDFF" stroke-width="0.950618" stroke-linecap="round" stroke-linejoin="round"/>
<path d="M0.475298 29.2175H6.6832L6.6832 18.8678H0.475298L0.475298 29.2175Z" fill="#70DDFF" stroke="#70DDFF" stroke-width="0.950618" stroke-miterlimit="10"/>
<path d="M3.37398 17.343L2.77197 16.5484L9.11954 11.7178L12.2644 12.7678L17.461 7.17148L20.5192 8.10098L26.0625 1.74859L28.4127 3.26566L30.8496 1.5415L31.4276 2.36024L28.4368 4.47449L26.2455 3.05857L20.8515 9.24721L17.7692 8.30807L12.5582 13.9188L9.30256 12.8352L3.37398 17.343Z" fill="#70DDFF"/>
<path d="M31.9346 4.26222L33.8947 0L29.2231 0.428631L31.9346 4.26222Z" fill="#70DDFF"/>
</svg>
