<svg width="24" height="33" viewBox="0 0 24 33" fill="none" xmlns="http://www.w3.org/2000/svg">
<path d="M11.723 0C8.61387 0 5.63209 1.23509 3.4336 3.43358C1.2351 5.63208 0 8.61387 0 11.723C0 18.1991 11.723 32.2816 11.723 32.2816C11.723 32.2816 23.446 18.1991 23.446 11.723C23.446 8.61387 22.2109 5.63208 20.0124 3.43358C17.814 1.23509 14.8321 0 11.723 0ZM11.723 18.2651C10.4956 18.2668 9.29539 17.9043 8.27408 17.2236C7.25277 16.5429 6.45633 15.5746 5.98551 14.4411C5.51469 13.3076 5.39064 12.06 5.62909 10.856C5.86753 9.65203 6.45775 8.54583 7.32505 7.67737C8.19235 6.80892 9.29776 6.21724 10.5014 5.97719C11.7051 5.73714 12.9529 5.85952 14.087 6.32883C15.2211 6.79814 16.1905 7.59331 16.8725 8.61371C17.5546 9.63411 17.9186 10.8339 17.9186 12.0613C17.9197 12.8756 17.7603 13.6821 17.4494 14.4348C17.1385 15.1874 16.6823 15.8714 16.1069 16.4476C15.5315 17.0237 14.8481 17.4809 14.0959 17.7927C13.3437 18.1046 12.5373 18.2651 11.723 18.2651Z" fill="#00485D"/>
</svg>
