<svg width="14" height="17" viewBox="0 0 14 17" fill="none" xmlns="http://www.w3.org/2000/svg">
<path d="M2.5 14.1667H4.16667V12.5H2.5V14.1667ZM2.5 10.8333H4.16667V7.5H2.5V10.8333ZM5.83333 14.1667H7.5V10.8333H5.83333V14.1667ZM5.83333 9.16667H7.5V7.5H5.83333V9.16667ZM9.16667 14.1667H10.8333V12.5H9.16667V14.1667ZM9.16667 10.8333H10.8333V7.5H9.16667V10.8333ZM1.66667 16.6667C1.20833 16.6667 0.815972 16.5035 0.489583 16.1771C0.163194 15.8507 0 15.4583 0 15V5L5 0H11.6667C12.125 0 12.5174 0.163194 12.8438 0.489583C13.1701 0.815972 13.3333 1.20833 13.3333 1.66667V15C13.3333 15.4583 13.1701 15.8507 12.8438 16.1771C12.5174 16.5035 12.125 16.6667 11.6667 16.6667H1.66667ZM1.66667 15H11.6667V1.66667H5.70833L1.66667 5.70833V15Z" fill="#6ADDFF"/>
</svg>
